<svg xmlns="http://www.w3.org/2000/svg" width="676" height="676" viewBox="0 0 676 676">
  <g id="avatarFemale" transform="translate(0)">
    <path id="Tracé_1341" data-name="Tracé 1341" d="M938,450c0,120.33-62.88,225.98-157.58,285.87q-13.26,8.4-27.34,15.55c-2.12,1.09-4.25,2.14-6.4,3.17-1.77.86-3.56,1.7-5.35,2.53a334.831,334.831,0,0,1-57.78,20.47c-1.29.33-2.59.65-3.89.96-.97.24-1.95.47-2.93.69a2.494,2.494,0,0,1-.37.09c-2.01.47-4.02.92-6.05,1.33-1.14.24-2.28.48-3.42.71-.69.15-1.39.28-2.08.41-.87.17-1.73.33-2.6.5-.48.1-.96.18-1.45.26-1.1.2-2.2.4-3.29.59-1.86.32-3.74.63-5.61.91-1.36.21-2.71.41-4.07.6-1.6.23-3.2.44-4.81.64-.44.07-.88.12-1.32.17l-1.71.21c-1.74.21-3.5.4-5.25.58q-1.71.18-3.42.33c-1.47.14-2.94.26-4.42.38-1.8.14-3.59.27-5.4.38-1.16.07-2.32.14-3.49.2-2.98.16-5.96.27-8.96.35-1.49.04-2.99.07-4.49.09h-.03c-1.49.02-2.99.03-4.49.03A337.827,337.827,0,0,1,262,450c0-186.67,151.33-338,338-338S938,263.33,938,450Z" transform="translate(-262 -112)" fill="#6c63ff"/>
    <path id="Tracé_1342" data-name="Tracé 1342" d="M814.11,318.21c-17.36,12.71-32.53,29.77-45.79,49.87-37.74,57.19-60.02,139.03-73.18,215.5-3.36,19.54-6.13,38.73-8.4,57.06-7.82,63.05-9.85,116.05-10.38,138.69-2.01.47-4.02.92-6.05,1.33.35-17.33,1.6-54.84,6.01-101.59q.855-9.06,1.88-18.56,1.14-10.68,2.52-21.84c1.9-15.35,4.14-31.26,6.79-47.44q.63-3.825,1.27-7.6c16.67-97.79,42.25-172.05,76.33-221.89q20.64-30.21,45.44-48.39Z" transform="translate(-262 -112)" opacity="0.2"/>
    <path id="Tracé_1343" data-name="Tracé 1343" d="M810.44,584.55c-26.01,19.06-40.58,61.12-48.72,102.09a556.784,556.784,0,0,0-8.64,64.78c-2.12,1.09-4.25,2.14-6.4,3.17a545.881,545.881,0,0,1,9.85-73.69c8.56-40.58,23.68-81.66,50.35-101.2Z" transform="translate(-262 -112)" opacity="0.2"/>
    <circle id="Ellipse_197" data-name="Ellipse 197" cx="30.089" cy="30.089" r="30.089" transform="translate(555.65 145.893)" opacity="0.2"/>
    <circle id="Ellipse_198" data-name="Ellipse 198" cx="30.089" cy="30.089" r="30.089" transform="translate(545.96 404.902)" opacity="0.2"/>
    <path id="Tracé_1344" data-name="Tracé 1344" d="M728.286,338.521c6.38,36-7.7,68.592-7.7,68.592s-24.43-25.768-30.81-61.766,7.7-68.592,7.7-68.592S721.905,302.524,728.286,338.521Z" transform="translate(-262 -112)" opacity="0.2"/>
    <path id="Tracé_1345" data-name="Tracé 1345" d="M828.282,423.971c-34.335,12.555-68.837,4.5-68.837,4.5s21.166-28.413,55.5-40.968,68.837-4.5,68.837-4.5S862.617,411.416,828.282,423.971Z" transform="translate(-262 -112)" opacity="0.2"/>
    <path id="Tracé_1346" data-name="Tracé 1346" d="M834.1,653.333c-24.066,8.8-48.283,3.059-48.283,3.059s14.8-20.008,38.868-28.808,48.283-3.059,48.283-3.059S858.171,644.533,834.1,653.333Z" transform="translate(-262 -112)" opacity="0.2"/>
    <path id="Tracé_1347" data-name="Tracé 1347" d="M443.853,292.179c48.875-82.584,145.571-86.433,145.571-86.433S683.649,193.7,744.093,319.473C800.432,436.707,878.187,549.9,756.611,577.343l-21.96-68.35-13.6,73.438a475.712,475.712,0,0,1-52.018.889c-130.2-4.2-254.192,1.23-250.2-45.491C424.141,475.721,396.826,371.641,443.853,292.179Z" transform="translate(-262 -112)" fill="#2f2e41"/>
    <circle id="Ellipse_199" data-name="Ellipse 199" cx="123.623" cy="123.623" r="123.623" transform="translate(213.322 158.536)" fill="#ffddba"/>
    <path id="Tracé_1348" data-name="Tracé 1348" d="M658.468,462.839S608.1,609.355,667.625,650.563s-96.151,68.68-137.359,41.208-73.258-73.258-73.258-73.258S562.316,513.2,539.423,453.682Z" transform="translate(-262 -112)" fill="#ffddba"/>
    <path id="Tracé_1349" data-name="Tracé 1349" d="M750.04,682.61l-8.71,74.51a334.835,334.835,0,0,1-57.78,20.47c-1.29.33-2.59.65-3.89.96-.97.24-1.95.47-2.93.69a2.487,2.487,0,0,1-.37.09c-2.01.47-4.02.92-6.05,1.33-1.14.24-2.28.48-3.42.71-.69.15-1.39.28-2.08.41-.87.17-1.73.33-2.6.5-.48.1-.96.18-1.45.26-1.1.2-2.2.4-3.29.59-1.86.32-3.74.63-5.61.91-1.36.21-2.71.41-4.07.6-1.6.23-3.2.44-4.81.64-.44.07-.88.12-1.32.17l-1.71.21c-1.74.21-3.5.4-5.25.58q-1.71.18-3.42.33c-1.47.14-2.94.26-4.42.38-1.8.14-3.59.27-5.4.38-1.16.07-2.32.14-3.49.2-2.98.16-5.96.27-8.96.35-1.49.04-2.99.07-4.49.09h-.03c-1.49.02-2.99.03-4.49.03A338.3,338.3,0,0,1,304.71,614.59a446.372,446.372,0,0,1,46.99-28.13c5.17-2.61,12.18-4.21,20.19-5.03,18.09-1.88,41.53.22,61.86,4.07,18.54,3.48,34.52,8.43,41.57,13.1,18.32,12.13,91.58,51.96,91.58,51.96s64.07,9.16,89.95-9.92c.01,0,.01-.01.02-.01,6.1-4.52,14.54-4.55,23.85-1.96q2.955.825,6.02,1.97a121.62,121.62,0,0,1,16.48,7.85c.12.07.23.13.35.2,1.87,1.05,3.73,2.15,5.57,3.28C730.93,665.25,750.04,682.61,750.04,682.61Z" transform="translate(-262 -112)" fill="#2f2e41"/>
    <path id="Tracé_1350" data-name="Tracé 1350" d="M380.25,706.82c-2.96-54.98-6.32-100.02-8.36-125.39,18.09-1.88,41.53.22,61.86,4.07,16.55,33.16,53.85,109.7,88.18,193.44a336.987,336.987,0,0,1-141.68-72.12Z" transform="translate(-262 -112)" fill="#2f2e41"/>
    <path id="Tracé_1351" data-name="Tracé 1351" d="M701.96,648.27l1.22.63C703.06,650.2,702.77,651,701.96,648.27Z" transform="translate(-262 -112)" fill="#2f2e41"/>
    <path id="Tracé_1352" data-name="Tracé 1352" d="M703.57,648.69c.01.14.03.29.04.43l-.43-.22c.01-.13.02-.27.04-.41C703.32,646.74,703.2,644.67,703.57,648.69Z" transform="translate(-262 -112)" fill="#2f2e41"/>
    <path id="Tracé_1353" data-name="Tracé 1353" d="M780.42,735.87q-13.26,8.4-27.34,15.55c-2.12,1.09-4.25,2.14-6.4,3.17-1.77.86-3.56,1.7-5.35,2.53a334.831,334.831,0,0,1-57.78,20.47c14.41-46.53,23.54-92.47,20.06-128.47l5.53,2.85,26.65,13.73a81.909,81.909,0,0,1,20.74,15.2,75.924,75.924,0,0,1,5.19,5.74A82.262,82.262,0,0,1,780.38,735C780.39,735.29,780.41,735.58,780.42,735.87Z" transform="translate(-262 -112)" fill="#2f2e41"/>
    <path id="Tracé_1354" data-name="Tracé 1354" d="M479.2,284.218l95.531-50.04,59.936,9.3A107.149,107.149,0,0,1,722.739,325.7l11.208,49.5L666,372.586,647.021,328.3v43.559L615.67,370.65l-18.2-70.511L586.1,375.2l-111.453-2.275Z" transform="translate(-262 -112)" fill="#2f2e41"/>
  </g>
</svg>
