<svg xmlns="http://www.w3.org/2000/svg" width="676" height="676.025" viewBox="0 0 676 676.025">
  <g id="avatarMale" transform="translate(0)">
    <path id="Tracé_1355" data-name="Tracé 1355" d="M938,450a336.854,336.854,0,0,1-27.22,133.1l-1.12,2.58A338.559,338.559,0,0,1,541.35,782.93q-3.045-.54-6.08-1.12a334.982,334.982,0,0,1-61.14-18.03q-4.815-1.935-9.56-4.01c-2.16-.94-4.32-1.91-6.46-2.91A338.415,338.415,0,0,1,262,450c0-186.67,151.33-338,338-338S938,263.33,938,450Z" transform="translate(-262 -112)" fill="#6c63ff"/>
    <path id="Tracé_1356" data-name="Tracé 1356" d="M541.35,782.93q-3.045-.54-6.08-1.12c-1.32-38.31-5.85-116.94-21.3-199.29-8.45-45.07-20.18-91.27-36.45-132.57a412.607,412.607,0,0,0-19.07-41.84c-16.44-31.05-36.38-57.19-60.56-74.9l3.56-4.86q30.165,22.11,54.22,62.08,7.215,11.97,13.86,25.54,7.125,14.52,13.59,30.83,4.125,10.38,7.97,21.48,16.74,48.195,28.46,109.98,2.6,13.65,4.94,27.97C536.6,680.2,540.25,748.59,541.35,782.93Z" transform="translate(-262 -112)" opacity="0.2"/>
    <path id="Tracé_1357" data-name="Tracé 1357" d="M464.57,759.77c-2.16-.94-4.32-1.91-6.46-2.91-2.09-22.7-5.93-50.86-12.95-77.59a254.556,254.556,0,0,0-11.81-35.2c-8.01-18.75-18.38-34.69-31.79-44.52l3.56-4.85c14.04,10.28,24.87,26.53,33.24,45.54,9.43,21.42,15.72,46.35,19.91,70.17C461.38,728.1,463.34,745.19,464.57,759.77Z" transform="translate(-262 -112)" opacity="0.2"/>
    <circle id="Ellipse_200" data-name="Ellipse 200" cx="30.089" cy="30.089" r="30.089" transform="translate(72.173 160.893)" opacity="0.2"/>
    <circle id="Ellipse_201" data-name="Ellipse 201" cx="30.089" cy="30.089" r="30.089" transform="translate(81.863 419.902)" opacity="0.2"/>
    <path id="Tracé_1358" data-name="Tracé 1358" d="M483.714,353.521c-6.38,36,7.7,68.592,7.7,68.592s24.43-25.768,30.81-61.766-7.7-68.592-7.7-68.592S490.095,317.524,483.714,353.521Z" transform="translate(-262 -112)" opacity="0.2"/>
    <path id="Tracé_1359" data-name="Tracé 1359" d="M383.718,438.971c34.335,12.555,68.837,4.5,68.837,4.5s-21.166-28.413-55.5-40.968-68.837-4.5-68.837-4.5S349.383,426.416,383.718,438.971Z" transform="translate(-262 -112)" opacity="0.2"/>
    <path id="Tracé_1360" data-name="Tracé 1360" d="M377.9,668.333c24.066,8.8,48.283,3.059,48.283,3.059s-14.8-20.008-38.868-28.808-48.283-3.059-48.283-3.059S353.829,659.533,377.9,668.333Z" transform="translate(-262 -112)" opacity="0.2"/>
    <circle id="Ellipse_202" data-name="Ellipse 202" cx="131.77" cy="131.77" r="131.77" transform="translate(205.536 149.309)" fill="#ffddba"/>
    <path id="Tracé_1361" data-name="Tracé 1361" d="M547.833,493.965S564.3,572.2,564.3,580.439s78.239,45.3,78.239,45.3l70-12.353,24.707-74.121s-41.178-61.767-41.178-86.474Z" transform="translate(-262 -112)" fill="#ffddba"/>
    <path id="Tracé_1362" data-name="Tracé 1362" d="M910.78,583.1l-1.12,2.58A338.559,338.559,0,0,1,541.35,782.93q-3.045-.54-6.08-1.12a334.982,334.982,0,0,1-61.14-18.03q-4.815-1.935-9.56-4.01c-2.16-.94-4.32-1.91-6.46-2.91a337.6,337.6,0,0,1-55.25-32.28l-15.62-45.31,8.78-6.7,18.06-13.79,19.27-14.71,5.01-3.83,75.61-57.72,5.58-4.26,39.3-30,.01-.01s42.5,69.25,104.27,48.66,60.42-79.63,60.42-79.63Z" transform="translate(-262 -112)" fill="#2f2e41"/>
    <path id="Tracé_1363" data-name="Tracé 1363" d="M485.035,286.916s41.837-90.646,122.023-69.728,125.51,52.3,129,83.673-1.743,78.443-1.743,78.443-8.716-64.5-64.5-50.552-142.941,3.486-142.941,3.486l-13.946,125.51s-15.689-22.661-33.121-8.716S429.253,314.807,485.035,286.916Z" transform="translate(-262 -112)" fill="#2f2e41"/>
    <path id="Tracé_1364" data-name="Tracé 1364" d="M474.13,763.78q-4.815-1.935-9.56-4.01c-2.16-.94-4.32-1.91-6.46-2.91a338.837,338.837,0,0,1-87.59-58.7c9.19-12.52,16.72-18.89,16.72-18.89h61.77l9.26,31.14Z" transform="translate(-262 -112)" fill="#2f2e41"/>
    <path id="Tracé_1365" data-name="Tracé 1365" d="M856.67,576.32l52.99,9.36a337.944,337.944,0,0,1-56.76,88.57Z" transform="translate(-262 -112)" fill="#2f2e41"/>
  </g>
</svg>
