<svg xmlns="http://www.w3.org/2000/svg" xmlns:xlink="http://www.w3.org/1999/xlink" width="676" height="676" viewBox="0 0 676 676">
  <defs>
    <clipPath id="clip-path">
      <rect id="Rectangle_366" data-name="Rectangle 366" width="325" height="325" transform="translate(-8162 5512)" fill="#fff"/>
    </clipPath>
  </defs>
  <g id="Groupe_144" data-name="Groupe 144" transform="translate(8338 -5336)">
    <g id="Groupe_126" data-name="Groupe 126" transform="translate(-150 -381)">
      <g id="Groupe_125" data-name="Groupe 125" transform="translate(-2042 -5910)">
        <g id="avatarFemale" transform="translate(-6146 11627)">
          <path id="Tracé_1341" data-name="Tracé 1341" d="M938,450c0,120.33-62.88,225.98-157.58,285.87q-13.26,8.4-27.34,15.55c-2.12,1.09-4.25,2.14-6.4,3.17-1.77.86-3.56,1.7-5.35,2.53a334.831,334.831,0,0,1-57.78,20.47c-1.29.33-2.59.65-3.89.96-.97.24-1.95.47-2.93.69a2.494,2.494,0,0,1-.37.09c-2.01.47-4.02.92-6.05,1.33-1.14.24-2.28.48-3.42.71-.69.15-1.39.28-2.08.41-.87.17-1.73.33-2.6.5-.48.1-.96.18-1.45.26-1.1.2-2.2.4-3.29.59-1.86.32-3.74.63-5.61.91-1.36.21-2.71.41-4.07.6-1.6.23-3.2.44-4.81.64-.44.07-.88.12-1.32.17l-1.71.21c-1.74.21-3.5.4-5.25.58q-1.71.18-3.42.33c-1.47.14-2.94.26-4.42.38-1.8.14-3.59.27-5.4.38-1.16.07-2.32.14-3.49.2-2.98.16-5.96.27-8.96.35-1.49.04-2.99.07-4.49.09h-.03c-1.49.02-2.99.03-4.49.03A337.827,337.827,0,0,1,262,450c0-186.67,151.33-338,338-338S938,263.33,938,450Z" transform="translate(-262 -112)" fill="#f07482"/>
          <path id="Tracé_1351" data-name="Tracé 1351" d="M701.96,648.27l1.22.63C703.06,650.2,702.77,651,701.96,648.27Z" transform="translate(-262 -112)" fill="#f07482"/>
          <path id="Tracé_1352" data-name="Tracé 1352" d="M703.57,648.69c.01.14.03.29.04.43l-.43-.22c.01-.13.02-.27.04-.41C703.32,646.74,703.2,644.67,703.57,648.69Z" transform="translate(-262 -112)" fill="#f07482"/>
        </g>
      </g>
      <g id="avatarFemale-2" data-name="avatarFemale" transform="translate(-8141.772 5763.228)" opacity="0.804">
        <path id="Tracé_1341-2" data-name="Tracé 1341" d="M845.545,403.772c0,103.873-54.28,195.073-136.028,246.772q-11.446,7.251-23.6,13.423c-1.83.941-3.669,1.847-5.525,2.736-1.528.742-3.073,1.467-4.618,2.184a289.038,289.038,0,0,1-49.878,17.67c-1.114.285-2.236.561-3.358.829-.837.207-1.683.406-2.529.6a2.149,2.149,0,0,1-.319.078c-1.735.406-3.47.794-5.222,1.148-.984.207-1.968.414-2.952.613-.6.13-1.2.242-1.8.354-.751.147-1.493.285-2.244.432-.414.086-.829.155-1.252.224-.95.173-1.9.345-2.84.509-1.606.276-3.229.544-4.843.786-1.174.181-2.339.354-3.513.518-1.381.2-2.762.38-4.152.553-.38.06-.76.1-1.14.147l-1.476.181c-1.5.181-3.021.345-4.532.5q-1.476.155-2.952.285c-1.269.121-2.538.224-3.815.328-1.554.121-3.1.233-4.661.328-1,.06-2,.121-3.013.173-2.572.138-5.145.233-7.735.3-1.286.034-2.581.06-3.876.078h-.026c-1.286.017-2.581.026-3.876.026A291.623,291.623,0,0,1,262,403.772C262,242.633,392.633,112,553.772,112S845.545,242.633,845.545,403.772Z" transform="translate(-262 -112)" fill="none" stroke="#fff" stroke-width="15"/>
      </g>
    </g>
    <g id="Groupe_de_masques_16" data-name="Groupe de masques 16" transform="translate(0 2)" clip-path="url(#clip-path)">
      <g id="sausage-on-a-fork" transform="translate(-8162 5512)">
        <g id="Groupe_140" data-name="Groupe 140">
          <path id="Tracé_1456" data-name="Tracé 1456" d="M210.9,204.541h-.169a110.982,110.982,0,0,0,3.415-27.793c.142-20.65-.095-36.944-1.163-49.77q-5.194,1.356-10.436,2.485c.862,11.562,1.168,26.852,1.026,47.211-.09,12.112-1.776,22.644-5.022,31.293l-2.633,7.148h.233l-20.709,60.534.116,38.736-27.391.032-.032-36.537.01-1.5-.4-.978c-7.56-18.176-17.415-45.741-21.85-58.34l.233-.01-2.342-6.714c-2.548-7.312-3.812-16.167-3.738-26.318.159-22.538.349-39.4,1.073-52.128-3.542-.581-7.042-1.279-10.51-2.046-.84,13.693-.978,31.287-1.137,54.1a96.359,96.359,0,0,0,2.358,23.14l-.587.027,2.315,6.7c.137.4,13.9,40.169,24.007,64.642L137.612,325l48.538-.053-.042-47.449c0-.111,0-.217-.005-.328l22.453-65.641Z" fill="#fff"/>
          <path id="Tracé_1457" data-name="Tracé 1457" d="M179.251,182.257h3.976c4.62,0,7.756-4.737,7.782-9.083l.83-41.655q-5.3.88-10.616,1.507l-.619,30.8L175.5,133.613c-3.537.328-7.069.6-10.6.756l6.624,39.181a10.329,10.329,0,0,0,2.8,6.561A6.93,6.93,0,0,0,179.251,182.257Z" fill="#fff"/>
          <path id="Tracé_1458" data-name="Tracé 1458" d="M138.151,183l4.267.058c4.441,0,7.518-4.4,7.772-8.686l6.418-39.789c-.529.005-1.058.032-1.58.032-3.05,0-6.085-.074-9.1-.2l-5.049,31.308-.751-31.647c-3.564-.248-7.1-.561-10.6-.983l.962,40.634C130.459,178.176,133.547,182.966,138.151,183Z" fill="#fff"/>
          <path id="Tracé_1459" data-name="Tracé 1459" d="M27.89,21.074c-15.358,22.062-8.078,50.04,12.223,66.55a172.171,172.171,0,0,0,71.129,34.232c3.468.788,6.952,1.465,10.457,2.057q3.807.642,7.634,1.132c1.084.137,2.168.291,3.257.412,1.549.169,3.1.3,4.652.439.9.079,1.792.18,2.691.243q3.624.269,7.259.4,3.909.15,7.824.148c.957,0,1.908-.047,2.866-.058,1.893-.027,3.785-.042,5.678-.116,3.537-.142,7.074-.392,10.605-.708,2.406-.217,4.811-.449,7.206-.745,1.168-.142,2.326-.333,3.495-.5,1.734-.243,3.473-.465,5.208-.751.64-.106,1.274-.233,1.914-.338q4.925-.841,9.8-1.914,5.21-1.126,10.357-2.506a228.45,228.45,0,0,0,75.131-35.4C327.323,54.6,293.943,0,253.779,0a46.49,46.49,0,0,0-27.607,9.363,110.431,110.431,0,0,1-16.336,9.759c1.269,9.728,4.007,19.318,6.313,28.855,1.491,6.175-3.748,10.648-8.454,10.648-2.786,0-5.382-1.57-6.281-5.281-2.289-9.468-4.747-18.768-6.318-28.189A122.82,122.82,0,0,1,164.221,31.2a104.9,104.9,0,0,0-6.651,32.435c-.27,5.091-4.393,7.66-8.358,7.66-3.923,0-7.692-2.516-7.423-7.6A130.643,130.643,0,0,1,147.5,31.086a103.037,103.037,0,0,1-28.638-6.434c-4.964,8.242-8.036,17.579-10.918,26.8A7.65,7.65,0,0,1,100.361,57c-4.784,0-9.58-3.764-7.766-9.574,3.231-10.341,6.793-20.418,12.038-29.643a90.05,90.05,0,0,1-10.759-7.5,41.656,41.656,0,0,0-26.556-9.13C51.982,1.153,36.523,8.67,27.89,21.074Z" fill="#fff"/>
        </g>
      </g>
    </g>
  </g>
</svg>
