<svg xmlns="http://www.w3.org/2000/svg" xmlns:xlink="http://www.w3.org/1999/xlink" width="1000" height="600" viewBox="0 0 1000 600">
  <defs>
    <clipPath id="clip-path">
      <rect id="Rectangle_385" data-name="Rectangle 385" width="317" height="317" transform="translate(342 86)" fill="#fff"/>
    </clipPath>
    <clipPath id="clip-boucherieC">
      <rect width="1000" height="600"/>
    </clipPath>
  </defs>
  <g id="boucherieC" clip-path="url(#clip-boucherieC)">
    <rect width="1000" height="600" fill="#fd4e62"/>
    <g id="Groupe_de_masques_26" data-name="Groupe de masques 26" clip-path="url(#clip-path)">
      <g id="sausage-on-a-fork" transform="translate(342 86)">
        <g id="Groupe_175" data-name="Groupe 175">
          <path id="Tracé_1556" data-name="Tracé 1556" d="M205.711,199.506h-.165a108.25,108.25,0,0,0,3.331-27.109c.139-20.142-.093-36.034-1.134-48.545q-5.066,1.323-10.179,2.423c.841,11.278,1.139,26.191,1,46.049-.088,11.814-1.732,22.086-4.9,30.522l-2.568,6.972h.227l-20.2,59.044.114,37.783-26.717.031-.031-35.638.01-1.465-.392-.954c-7.374-17.729-16.986-44.615-21.312-56.9l.227-.01-2.284-6.549c-2.486-7.132-3.718-15.769-3.646-25.67.155-21.983.34-38.432,1.047-50.845-3.455-.567-6.869-1.248-10.252-2-.82,13.356-.954,30.517-1.109,52.768a93.987,93.987,0,0,0,2.3,22.571l-.572.026,2.258,6.539c.134.392,13.562,39.18,23.416,63.05l.041,45.4,47.343-.051-.041-46.281c0-.108,0-.211-.005-.32l21.9-64.025Z" fill="#fff"/>
          <path id="Tracé_1557" data-name="Tracé 1557" d="M174.838,177.77h3.878c4.507,0,7.565-4.62,7.59-8.859l.809-40.629q-5.167.858-10.354,1.47l-.6,30.043-4.981-29.47c-3.45.32-6.895.583-10.339.737l6.461,38.216a10.074,10.074,0,0,0,2.728,6.4A6.759,6.759,0,0,0,174.838,177.77Z" fill="#fff"/>
          <path id="Tracé_1558" data-name="Tracé 1558" d="M134.751,178.5l4.162.056c4.332,0,7.333-4.3,7.58-8.472l6.26-38.809c-.516.005-1.032.031-1.542.031-2.975,0-5.935-.072-8.874-.2l-4.925,30.537-.732-30.868c-3.476-.242-6.926-.547-10.339-.959l.938,39.634C127.248,173.79,130.259,178.462,134.751,178.5Z" fill="#fff"/>
          <path id="Tracé_1559" data-name="Tracé 1559" d="M27.2,20.555c-14.98,21.519-7.879,48.808,11.922,64.912a167.933,167.933,0,0,0,69.378,33.39c3.383.768,6.781,1.429,10.2,2.006q3.713.626,7.446,1.1c1.057.134,2.114.284,3.176.4,1.511.165,3.022.294,4.538.428.877.077,1.748.175,2.624.237q3.535.263,7.08.392,3.813.147,7.632.145c.933,0,1.861-.046,2.8-.056,1.846-.026,3.692-.041,5.538-.114,3.45-.139,6.9-.382,10.344-.691,2.347-.211,4.693-.438,7.028-.727,1.139-.139,2.269-.325,3.409-.485,1.691-.237,3.388-.454,5.08-.732.624-.1,1.243-.227,1.867-.33,3.2-.547,6.389-1.176,9.56-1.867q5.081-1.1,10.1-2.444A222.826,222.826,0,0,0,280.2,81.6C319.266,53.253,286.707,0,247.532,0A45.345,45.345,0,0,0,220.6,9.133a107.711,107.711,0,0,1-15.934,9.519c1.238,9.489,3.908,18.843,6.157,28.145,1.454,6.023-3.656,10.386-8.246,10.386-2.718,0-5.25-1.531-6.126-5.151-2.233-9.235-4.63-18.306-6.162-27.5a119.8,119.8,0,0,1-30.115,5.9,102.317,102.317,0,0,0-6.487,31.636c-.263,4.966-4.285,7.472-8.153,7.472-3.826,0-7.5-2.454-7.24-7.41a127.426,127.426,0,0,1,5.574-31.811,100.5,100.5,0,0,1-27.933-6.275C111.1,32.085,108.1,41.192,105.29,50.185a7.462,7.462,0,0,1-7.4,5.409c-4.667,0-9.344-3.672-7.575-9.339,3.151-10.086,6.626-19.915,11.742-28.913A87.833,87.833,0,0,1,91.563,10.03a40.63,40.63,0,0,0-25.9-8.906C50.7,1.124,35.624,8.457,27.2,20.555Z" fill="#fff"/>
        </g>
      </g>
    </g>
    <g id="boucheries" transform="translate(1028.331 -697.461)" style="isolation: isolate">
      <g id="Groupe_176" data-name="Groupe 176" style="isolation: isolate">
        <path id="Tracé_1560" data-name="Tracé 1560" d="M-637.147,1175.134c4.158.63,5.166,4.095,5.166,6.994v7.245c0,5.04-3.276,8.694-9.955,8.694h-10.4v-44.1h10.521c6.679,0,9.577,3.654,9.577,8.694v5.545C-632.233,1171.039-633.241,1174.756-637.147,1175.134Zm-11.782-1.449h6.993c4.159,0,6.3-1.575,6.3-4.914v-5.1c0-4.41-1.638-6.615-6.3-6.615h-6.993Zm7.245,3.15h-7.245v18.145h7.245c4.663,0,6.3-2.2,6.3-6.615v-6.616C-635.383,1178.41-637.525,1176.835-641.684,1176.835Z" fill="#fff"/>
        <path id="Tracé_1561" data-name="Tracé 1561" d="M-614.72,1153.461h.5c6.679,0,10.081,3.15,10.081,9.324v26.462c0,6.174-3.4,9.324-10.081,9.324h-.5c-6.678,0-10.08-3.15-10.08-9.324v-26.462C-624.8,1156.548-621.4,1153.461-614.72,1153.461Zm.252,41.96c4.978,0,6.931-2.079,6.931-7.308V1163.92c0-5.23-1.953-7.309-6.931-7.309s-6.93,2.079-6.93,7.309v24.193C-621.4,1193.342-619.445,1195.421-614.468,1195.421Z" fill="#fff"/>
        <path id="Tracé_1562" data-name="Tracé 1562" d="M-576.038,1189.247c0,6.3-3.276,9.324-9.954,9.324h-.252c-6.678,0-9.955-2.961-9.955-9.324v-35.282h3.4v34.148c0,5.229,1.7,7.308,6.678,7.308s6.678-2.079,6.678-7.308v-34.148h3.4Z" fill="#fff"/>
        <path id="Tracé_1563" data-name="Tracé 1563" d="M-547.813,1189.247c0,6.3-3.4,9.324-10.081,9.324h-.126c-6.678,0-10.081-2.961-10.081-9.324v-26.462c0-6.048,3.4-9.324,10.081-9.324h.126c6.678,0,10.081,3.276,10.081,9.324v7.561h-3.4v-6.426c0-5.167-1.827-7.309-6.741-7.309s-6.741,2.142-6.741,7.309v24.193c0,5.166,1.827,7.308,6.741,7.308s6.741-2.142,6.741-7.308v-7.5h3.4Z" fill="#fff"/>
        <path id="Tracé_1564" data-name="Tracé 1564" d="M-536.6,1153.965v20.1h14.176v-20.1h3.4v44.1h-3.4v-20.854H-536.6v20.854H-540v-44.1Z" fill="#fff"/>
        <path id="Tracé_1565" data-name="Tracé 1565" d="M-510.709,1198.067v-44.1h17.326v3.15h-13.924v17.011h11.971v3.15h-11.971v17.641h14.113v3.15Z" fill="#fff"/>
        <path id="Tracé_1566" data-name="Tracé 1566" d="M-468.184,1198.067l-7.245-19.027h-7.686v19.027h-3.4v-44.1h10.4c6.679,0,10.08,3.15,10.08,9.324v6.427c0,4.788-2.016,7.749-6.048,8.82l7.561,19.531Zm-1.259-29.422v-4.221c0-5.23-1.953-7.309-6.931-7.309h-6.741v18.838h6.741C-471.4,1175.953-469.443,1173.811-469.443,1168.645Z" fill="#fff"/>
        <path id="Tracé_1567" data-name="Tracé 1567" d="M-457.854,1198.067v-44.1h3.4v44.1Z" fill="#fff"/>
        <path id="Tracé_1568" data-name="Tracé 1568" d="M-445.821,1198.067v-44.1h17.326v3.15h-13.923v17.011h11.97v3.15h-11.97v17.641h14.112v3.15Z" fill="#fff"/>
        <path id="Tracé_1569" data-name="Tracé 1569" d="M-406.508,1169.212v-5.671c0-4.851-1.764-6.993-6.49-6.993s-6.489,2.142-6.489,6.993v3.088c0,3.276,1.134,4.158,4.473,5.922l6.742,3.718c3.086,1.637,5.292,4.094,5.292,7.433v5.671c0,6.3-3.213,9.2-9.892,9.2H-413c-6.678,0-9.891-2.835-9.891-9.2v-7.183h3.4v6.175c0,4.788,1.764,7.119,6.552,7.119s6.553-2.331,6.553-7.119v-3.528c0-3.276-1.324-4.41-4.663-6.3l-6.615-3.591c-3.654-2.079-5.229-3.78-5.229-7.308v-5.1c0-6.048,3.78-9.072,9.828-9.072h.126c6.049,0,9.829,3.024,9.829,9.072v6.679Z" fill="#fff"/>
      </g>
    </g>
  </g>
</svg>
