<svg xmlns="http://www.w3.org/2000/svg" xmlns:xlink="http://www.w3.org/1999/xlink" width="1000" height="600" viewBox="0 0 1000 600">
  <defs>
    <clipPath id="clip-path">
      <rect id="Rectangle_385" data-name="Rectangle 385" width="313" height="313" transform="translate(341.569 85.569)" fill="#fff"/>
    </clipPath>
    <clipPath id="clip-boulangerC">
      <rect width="1000" height="600"/>
    </clipPath>
  </defs>
  <g id="boulangerC" clip-path="url(#clip-boulangerC)">
    <rect width="1000" height="600" fill="#fff"/>
    <rect id="Rectangle_384" data-name="Rectangle 384" width="1000" height="600" fill="#ffd139"/>
    <g id="Groupe_de_masques_23" data-name="Groupe de masques 23" transform="translate(2.431 2.431)" clip-path="url(#clip-path)">
      <g id="bread" transform="translate(342 115.787)">
        <path id="Tracé_1521" data-name="Tracé 1521" d="M381.974,297.243c-.312-3.537-9.32-86.584-156.035-86.584-146.406,0-155.7,83.02-156.029,86.553l-.041.855c0,56.185,52.6,56.185,87.4,56.185H294.61c34.8,0,87.4,0,87.4-56.185Zm-87.361,38.281H157.272c-47.217,0-68.43-5.347-68.671-36.914.671-4.879,8.259-45.485,73.465-62.128L150.517,274.3a9.363,9.363,0,1,0,17.911,5.469l14.486-47.442a291.39,291.39,0,0,1,40.2-2.894l-13.7,44.867a9.363,9.363,0,1,0,17.91,5.469l15.132-49.555c.037-.128.044-.259.072-.39a255.088,255.088,0,0,1,37.987,4.52L268.325,274.3a9.363,9.363,0,1,0,17.91,5.469L298.7,238.951c57.452,17.951,64.02,55.327,64.578,59.625C363.056,330.174,341.846,335.524,294.613,335.524Z" transform="translate(-69.87 -101.688)" fill="#fff"/>
        <path id="Tracé_1522" data-name="Tracé 1522" d="M176.913,175.813H194.24c20.8-25.271-20.795-50.545,0-75.822H176.913C156.112,125.268,197.714,150.542,176.913,175.813Z" transform="translate(-71.419 -99.991)" fill="#fff"/>
        <path id="Tracé_1523" data-name="Tracé 1523" d="M219.473,175.813h17.333c20.8-25.271-20.8-50.545,0-75.822H219.473C198.672,125.268,240.274,150.542,219.473,175.813Z" transform="translate(-72.072 -99.991)" fill="#fff"/>
        <path id="Tracé_1524" data-name="Tracé 1524" d="M262.04,175.813h17.333c20.8-25.271-20.8-50.545,0-75.822H262.04C241.239,125.268,282.841,150.542,262.04,175.813Z" transform="translate(-72.725 -99.991)" fill="#fff"/>
      </g>
    </g>
    <g id="BOULAngers" transform="translate(1109.771 -246.999)" style="isolation: isolate">
      <g id="Groupe_172" data-name="Groupe 172" style="isolation: isolate">
        <path id="Tracé_1525" data-name="Tracé 1525" d="M-724.588,723.672c4.158.63,5.166,4.1,5.166,6.994v7.245c0,5.04-3.276,8.694-9.954,8.694h-10.4V702.5h10.522c6.678,0,9.576,3.654,9.576,8.694v5.545C-719.674,719.577-720.682,723.294-724.588,723.672Zm-11.782-1.449h6.994c4.158,0,6.3-1.575,6.3-4.914v-5.1c0-4.41-1.638-6.615-6.3-6.615h-6.994Zm7.245,3.15h-7.245v18.146h7.245c4.663,0,6.3-2.206,6.3-6.616v-6.616C-722.824,726.948-724.966,725.373-729.125,725.373Z" fill="#fff"/>
        <path id="Tracé_1526" data-name="Tracé 1526" d="M-702.161,702h.5c6.679,0,10.081,3.15,10.081,9.324v26.462c0,6.174-3.4,9.324-10.081,9.324h-.5c-6.678,0-10.08-3.15-10.08-9.324V711.323C-712.241,705.086-708.839,702-702.161,702Zm.252,41.96c4.978,0,6.931-2.079,6.931-7.308V712.458c0-5.229-1.953-7.309-6.931-7.309s-6.93,2.08-6.93,7.309v24.193C-708.839,741.88-706.886,743.959-701.909,743.959Z" fill="#fff"/>
        <path id="Tracé_1527" data-name="Tracé 1527" d="M-663.479,737.785c0,6.3-3.276,9.324-9.954,9.324h-.252c-6.678,0-9.955-2.961-9.955-9.324V702.5h3.4v34.148c0,5.229,1.7,7.308,6.678,7.308s6.678-2.079,6.678-7.308V702.5h3.4Z" fill="#fff"/>
        <path id="Tracé_1528" data-name="Tracé 1528" d="M-638.72,746.6h-16.57V702.5h3.4v40.952h13.167Z" fill="#fff"/>
        <path id="Tracé_1529" data-name="Tracé 1529" d="M-618.245,735.265h-11.844l-2.458,11.34h-3.4l9.829-44.1h3.906l9.955,44.1h-3.529Zm-.693-3.087-5.229-24.32-5.229,24.32Z" fill="#fff"/>
        <path id="Tracé_1530" data-name="Tracé 1530" d="M-606.591,746.6V702.5h3.528l14.428,36.038V702.5h3.277v44.1h-3.34l-14.616-36.29V746.6Z" fill="#fff"/>
        <path id="Tracé_1531" data-name="Tracé 1531" d="M-556.631,737.785c0,6.3-3.4,9.324-10.081,9.324h-.5c-6.678,0-10.08-2.961-10.08-9.324V711.323c0-6.048,3.4-9.324,10.08-9.324h.5c6.678,0,10.081,3.276,10.081,9.324v5.8h-3.4v-4.662c0-5.229-1.952-7.309-6.93-7.309s-6.93,2.08-6.93,7.309v24.193c0,5.229,1.953,7.308,6.93,7.308s6.93-2.079,6.93-7.308V727.83h-7.182v-3.087h10.585Z" fill="#fff"/>
        <path id="Tracé_1532" data-name="Tracé 1532" d="M-548.7,746.6V702.5h17.326v3.15h-13.923v17.011h11.97v3.15h-11.97v17.641h14.112v3.15Z" fill="#fff"/>
        <path id="Tracé_1533" data-name="Tracé 1533" d="M-506.169,746.6l-7.246-19.027H-521.1V746.6h-3.4V702.5h10.4c6.679,0,10.081,3.15,10.081,9.324v6.427c0,4.788-2.016,7.749-6.049,8.82l7.561,19.531Zm-1.26-29.422v-4.221c0-5.23-1.953-7.309-6.931-7.309H-521.1v18.838h6.741C-509.382,724.491-507.429,722.349-507.429,717.183Z" fill="#fff"/>
        <path id="Tracé_1534" data-name="Tracé 1534" d="M-480.844,717.75v-5.671c0-4.85-1.764-6.993-6.489-6.993s-6.49,2.143-6.49,6.993v3.088c0,3.276,1.135,4.158,4.474,5.922l6.741,3.718c3.087,1.637,5.292,4.094,5.292,7.433v5.671c0,6.3-3.213,9.2-9.891,9.2h-.126c-6.679,0-9.892-2.835-9.892-9.2v-7.182h3.4V736.9c0,4.788,1.764,7.119,6.553,7.119s6.552-2.331,6.552-7.119v-3.528c0-3.276-1.323-4.41-4.662-6.3L-492,723.483c-3.654-2.079-5.229-3.78-5.229-7.308v-5.1c0-6.048,3.78-9.072,9.829-9.072h.126c6.048,0,9.828,3.024,9.828,9.072v6.679Z" fill="#fff"/>
      </g>
    </g>
  </g>
</svg>
