<svg xmlns="http://www.w3.org/2000/svg" xmlns:xlink="http://www.w3.org/1999/xlink" width="676" height="676" viewBox="0 0 676 676">
  <defs>
    <clipPath id="clip-path">
      <rect id="Rectangle_364" data-name="Rectangle 364" width="325" height="325" transform="translate(-8162 4100)" fill="#fff"/>
    </clipPath>
  </defs>
  <g id="Groupe_142" data-name="Groupe 142" transform="translate(8338 -3924)">
    <g id="Groupe_129" data-name="Groupe 129" transform="translate(-150 -1793)">
      <g id="Groupe_125" data-name="Groupe 125" transform="translate(-2042 -5910)">
        <g id="avatarFemale" transform="translate(-6146 11627)">
          <path id="Tracé_1341" data-name="Tracé 1341" d="M938,450c0,120.33-62.88,225.98-157.58,285.87q-13.26,8.4-27.34,15.55c-2.12,1.09-4.25,2.14-6.4,3.17-1.77.86-3.56,1.7-5.35,2.53a334.831,334.831,0,0,1-57.78,20.47c-1.29.33-2.59.65-3.89.96-.97.24-1.95.47-2.93.69a2.494,2.494,0,0,1-.37.09c-2.01.47-4.02.92-6.05,1.33-1.14.24-2.28.48-3.42.71-.69.15-1.39.28-2.08.41-.87.17-1.73.33-2.6.5-.48.1-.96.18-1.45.26-1.1.2-2.2.4-3.29.59-1.86.32-3.74.63-5.61.91-1.36.21-2.71.41-4.07.6-1.6.23-3.2.44-4.81.64-.44.07-.88.12-1.32.17l-1.71.21c-1.74.21-3.5.4-5.25.58q-1.71.18-3.42.33c-1.47.14-2.94.26-4.42.38-1.8.14-3.59.27-5.4.38-1.16.07-2.32.14-3.49.2-2.98.16-5.96.27-8.96.35-1.49.04-2.99.07-4.49.09h-.03c-1.49.02-2.99.03-4.49.03A337.827,337.827,0,0,1,262,450c0-186.67,151.33-338,338-338S938,263.33,938,450Z" transform="translate(-262 -112)" fill="#ff74c5"/>
          <path id="Tracé_1351" data-name="Tracé 1351" d="M701.96,648.27l1.22.63C703.06,650.2,702.77,651,701.96,648.27Z" transform="translate(-262 -112)" fill="#2f2e41"/>
          <path id="Tracé_1352" data-name="Tracé 1352" d="M703.57,648.69c.01.14.03.29.04.43l-.43-.22c.01-.13.02-.27.04-.41C703.32,646.74,703.2,644.67,703.57,648.69Z" transform="translate(-262 -112)" fill="#2f2e41"/>
        </g>
      </g>
    </g>
    <g id="Groupe_de_masques_11" data-name="Groupe de masques 11" opacity="0.998" clip-path="url(#clip-path)">
      <g id="icon" transform="translate(-8162 4100)">
        <path id="Tracé_1449" data-name="Tracé 1449" d="M279.852,247.018c-8.637-15.061-22.038-25.261-36.185-29.1-11.179-3.053-22.772-2.117-32.8,3.553l-29.835-52.16c18.465-36.834,59.914-119.414,67.349-132.433C258.016,20.039,240.774,0,240.774,0L162.491,136.911,84.229,0S67,20.039,76.624,36.865c7.445,13.029,48.906,95.6,67.349,132.433l-29.824,52.16c-10.03-5.669-21.645-6.605-32.8-3.553-14.168,3.84-27.559,14.04-36.2,29.1-15.508,27.091-9.583,59.585,13.178,72.614,10.094,5.8,21.783,6.722,33.047,3.67,14.136-3.861,27.559-14.061,36.185-29.09a65.624,65.624,0,0,0,7.552-20.486v.011a.256.256,0,0,1,.064-.16c.074-.574.181-1.149.234-1.776,6.4-42.96,18.507-64.9,27.069-75.56,8.584,10.658,20.7,32.59,27.091,75.56.064.628.17,1.2.223,1.776a.5.5,0,0,1,.064.16v-.011A66.227,66.227,0,0,0,197.4,294.2c8.637,15.029,22.06,25.229,36.206,29.09,11.264,3.053,22.953,2.127,33.068-3.67C289.446,306.592,295.349,274.108,279.852,247.018Zm-174.435,34.5C100.524,290.063,92.77,296.5,84.7,298.7c-3.6.979-8.871,1.574-13.71-1.2-10.317-5.9-12.008-23.251-3.68-37.823,4.978-8.637,12.519-14.923,20.741-17.167,3.563-.968,8.839-1.553,13.7,1.2C112.075,249.634,113.755,266.939,105.416,281.522ZM254.006,297.5c-4.84,2.787-10.094,2.18-13.689,1.2-8.084-2.2-15.827-8.637-20.73-17.178-8.328-14.582-6.648-31.888,3.68-37.812,4.861-2.765,10.136-2.17,13.71-1.2,8.2,2.244,15.763,8.53,20.709,17.167C266.014,274.247,264.334,291.594,254.006,297.5Z" fill="#fff"/>
      </g>
    </g>
  </g>
</svg>
