<svg xmlns="http://www.w3.org/2000/svg" xmlns:xlink="http://www.w3.org/1999/xlink" width="1000" height="600" viewBox="0 0 1000 600">
  <defs>
    <clipPath id="clip-path">
      <rect id="Rectangle_385" data-name="Rectangle 385" width="289" height="289" transform="translate(341.573 85.573)" fill="#fff"/>
    </clipPath>
    <clipPath id="clip-coiffeurC">
      <rect width="1000" height="600"/>
    </clipPath>
  </defs>
  <g id="coiffeurC" clip-path="url(#clip-coiffeurC)">
    <rect width="1000" height="600" fill="#ff74c5"/>
    <g id="Groupe_de_masques_28" data-name="Groupe de masques 28" transform="translate(14.427 14.427)" clip-path="url(#clip-path)">
      <g id="icon" transform="translate(374.364 86)">
        <path id="Tracé_1580" data-name="Tracé 1580" d="M251.359,219.007c-7.657-13.353-19.539-22.4-32.082-25.8-9.911-2.706-20.19-1.877-29.083,3.15L163.743,150.11c16.371-32.657,53.12-105.873,59.712-117.415C232,17.766,216.712,0,216.712,0L147.306,121.386,77.919,0S62.642,17.766,71.176,32.685c6.6,11.552,43.36,84.759,59.712,117.415l-26.442,46.246c-8.893-5.026-19.19-5.856-29.083-3.15C62.8,196.6,50.929,205.644,43.272,219c-13.749,24.019-8.5,52.828,11.684,64.38,8.949,5.139,19.313,5.96,29.3,3.253,12.533-3.423,24.434-12.467,32.082-25.792a58.182,58.182,0,0,0,6.7-18.163v.009a.226.226,0,0,1,.057-.141c.066-.509.16-1.018.207-1.575,5.677-38.089,16.409-57.543,24-66.992,7.61,9.449,18.351,28.894,24.019,66.992.057.556.151,1.066.2,1.575a.445.445,0,0,1,.057.141v-.009a58.717,58.717,0,0,0,6.686,18.163c7.657,13.325,19.558,22.368,32.1,25.792,9.987,2.706,20.35,1.886,29.318-3.253C259.865,271.826,265.1,243.026,251.359,219.007ZM96.7,249.6c-4.338,7.572-11.213,13.278-18.37,15.23-3.187.868-7.865,1.4-12.156-1.066-9.147-5.234-10.647-20.614-3.263-33.534,4.413-7.657,11.1-13.231,18.389-15.22,3.159-.858,7.836-1.377,12.146,1.066C102.607,221.327,104.1,236.67,96.7,249.6Zm131.74,14.164c-4.291,2.471-8.949,1.933-12.137,1.066-7.167-1.952-14.032-7.657-18.379-15.23-7.384-12.929-5.894-28.272,3.263-33.524,4.31-2.452,8.987-1.924,12.156-1.066,7.271,1.99,13.976,7.563,18.361,15.22C239.09,243.148,237.6,258.529,228.443,263.763Z" transform="translate(-35.605)" fill="#fff"/>
      </g>
    </g>
    <g id="coiffeurs" transform="translate(1028.754 -698.461)" style="isolation: isolate">
      <g id="Groupe_178" data-name="Groupe 178" style="isolation: isolate">
        <path id="Tracé_1581" data-name="Tracé 1581" d="M-614.467,1189.247c0,6.3-3.4,9.324-10.081,9.324h-.126c-6.678,0-10.08-2.961-10.08-9.324v-26.462c0-6.048,3.4-9.324,10.08-9.324h.126c6.678,0,10.081,3.276,10.081,9.324v7.561h-3.4v-6.426c0-5.167-1.827-7.309-6.741-7.309s-6.741,2.142-6.741,7.309v24.193c0,5.166,1.827,7.308,6.741,7.308s6.741-2.142,6.741-7.308v-7.5h3.4Z" fill="#fff"/>
        <path id="Tracé_1582" data-name="Tracé 1582" d="M-596.829,1153.461h.5c6.679,0,10.081,3.15,10.081,9.324v26.462c0,6.174-3.4,9.324-10.081,9.324h-.5c-6.678,0-10.08-3.15-10.08-9.324v-26.462C-606.909,1156.548-603.507,1153.461-596.829,1153.461Zm.252,41.96c4.978,0,6.931-2.079,6.931-7.308V1163.92c0-5.23-1.953-7.309-6.931-7.309s-6.93,2.079-6.93,7.309v24.193C-603.507,1193.342-601.554,1195.421-596.577,1195.421Z" fill="#fff"/>
        <path id="Tracé_1583" data-name="Tracé 1583" d="M-577.93,1198.067v-44.1h3.4v44.1Z" fill="#fff"/>
        <path id="Tracé_1584" data-name="Tracé 1584" d="M-565.9,1153.965h17.074v3.15h-13.672v17.326h11.719v3.15h-11.719v20.476h-3.4Z" fill="#fff"/>
        <path id="Tracé_1585" data-name="Tracé 1585" d="M-543.155,1153.965h17.074v3.15h-13.671v17.326h11.718v3.15h-11.718v20.476h-3.4Z" fill="#fff"/>
        <path id="Tracé_1586" data-name="Tracé 1586" d="M-520.412,1198.067v-44.1h17.326v3.15H-517.01v17.011h11.971v3.15H-517.01v17.641H-502.9v3.15Z" fill="#fff"/>
        <path id="Tracé_1587" data-name="Tracé 1587" d="M-476.186,1189.247c0,6.3-3.276,9.324-9.954,9.324h-.252c-6.678,0-9.955-2.961-9.955-9.324v-35.282h3.4v34.148c0,5.229,1.7,7.308,6.678,7.308s6.678-2.079,6.678-7.308v-34.148h3.4Z" fill="#fff"/>
        <path id="Tracé_1588" data-name="Tracé 1588" d="M-449.663,1198.067l-7.245-19.027H-464.6v19.027H-468v-44.1h10.4c6.679,0,10.081,3.15,10.081,9.324v6.427c0,4.788-2.016,7.749-6.048,8.82l7.56,19.531Zm-1.26-29.422v-4.221c0-5.23-1.953-7.309-6.931-7.309H-464.6v18.838h6.741C-452.876,1175.953-450.923,1173.811-450.923,1168.645Z" fill="#fff"/>
        <path id="Tracé_1589" data-name="Tracé 1589" d="M-424.337,1169.212v-5.671c0-4.851-1.765-6.993-6.49-6.993s-6.489,2.142-6.489,6.993v3.088c0,3.276,1.134,4.158,4.473,5.922l6.741,3.718c3.087,1.637,5.293,4.094,5.293,7.433v5.671c0,6.3-3.213,9.2-9.892,9.2h-.126c-6.678,0-9.891-2.835-9.891-9.2v-7.183h3.4v6.175c0,4.788,1.764,7.119,6.552,7.119s6.553-2.331,6.553-7.119v-3.528c0-3.276-1.324-4.41-4.663-6.3l-6.615-3.591c-3.655-2.079-5.229-3.78-5.229-7.308v-5.1c0-6.048,3.78-9.072,9.828-9.072h.126c6.049,0,9.828,3.024,9.828,9.072v6.679Z" fill="#fff"/>
      </g>
    </g>
  </g>
</svg>
