<svg xmlns="http://www.w3.org/2000/svg" xmlns:xlink="http://www.w3.org/1999/xlink" width="676" height="676" viewBox="0 0 676 676">
  <defs>
    <clipPath id="clip-path">
      <rect id="Rectangle_365" data-name="Rectangle 365" width="325" height="325" transform="translate(-8162 4806)" fill="#fff"/>
    </clipPath>
  </defs>
  <g id="Groupe_143" data-name="Groupe 143" transform="translate(8338 -4630)">
    <g id="Groupe_132" data-name="Groupe 132" transform="translate(-150 -1087)">
      <g id="Groupe_125" data-name="Groupe 125" transform="translate(-2042 -5910)">
        <g id="avatarFemale" transform="translate(-6146 11627)">
          <path id="Tracé_1341" data-name="Tracé 1341" d="M938,450c0,120.33-62.88,225.98-157.58,285.87q-13.26,8.4-27.34,15.55c-2.12,1.09-4.25,2.14-6.4,3.17-1.77.86-3.56,1.7-5.35,2.53a334.831,334.831,0,0,1-57.78,20.47c-1.29.33-2.59.65-3.89.96-.97.24-1.95.47-2.93.69a2.494,2.494,0,0,1-.37.09c-2.01.47-4.02.92-6.05,1.33-1.14.24-2.28.48-3.42.71-.69.15-1.39.28-2.08.41-.87.17-1.73.33-2.6.5-.48.1-.96.18-1.45.26-1.1.2-2.2.4-3.29.59-1.86.32-3.74.63-5.61.91-1.36.21-2.71.41-4.07.6-1.6.23-3.2.44-4.81.64-.44.07-.88.12-1.32.17l-1.71.21c-1.74.21-3.5.4-5.25.58q-1.71.18-3.42.33c-1.47.14-2.94.26-4.42.38-1.8.14-3.59.27-5.4.38-1.16.07-2.32.14-3.49.2-2.98.16-5.96.27-8.96.35-1.49.04-2.99.07-4.49.09h-.03c-1.49.02-2.99.03-4.49.03A337.827,337.827,0,0,1,262,450c0-186.67,151.33-338,338-338S938,263.33,938,450Z" transform="translate(-262 -112)" fill="#fddd9f"/>
          <path id="Tracé_1351" data-name="Tracé 1351" d="M701.96,648.27l1.22.63C703.06,650.2,702.77,651,701.96,648.27Z" transform="translate(-262 -112)" fill="#fddd9f"/>
          <path id="Tracé_1352" data-name="Tracé 1352" d="M703.57,648.69c.01.14.03.29.04.43l-.43-.22c.01-.13.02-.27.04-.41C703.32,646.74,703.2,644.67,703.57,648.69Z" transform="translate(-262 -112)" fill="#fddd9f"/>
        </g>
      </g>
      <g id="avatarFemale-2" data-name="avatarFemale" transform="translate(-8141.772 5763.228)" opacity="0.804">
        <path id="Tracé_1341-2" data-name="Tracé 1341" d="M845.545,403.772c0,103.873-54.28,195.073-136.028,246.772q-11.446,7.251-23.6,13.423c-1.83.941-3.669,1.847-5.525,2.736-1.528.742-3.073,1.467-4.618,2.184a289.038,289.038,0,0,1-49.878,17.67c-1.114.285-2.236.561-3.358.829-.837.207-1.683.406-2.529.6a2.149,2.149,0,0,1-.319.078c-1.735.406-3.47.794-5.222,1.148-.984.207-1.968.414-2.952.613-.6.13-1.2.242-1.8.354-.751.147-1.493.285-2.244.432-.414.086-.829.155-1.252.224-.95.173-1.9.345-2.84.509-1.606.276-3.229.544-4.843.786-1.174.181-2.339.354-3.513.518-1.381.2-2.762.38-4.152.553-.38.06-.76.1-1.14.147l-1.476.181c-1.5.181-3.021.345-4.532.5q-1.476.155-2.952.285c-1.269.121-2.538.224-3.815.328-1.554.121-3.1.233-4.661.328-1,.06-2,.121-3.013.173-2.572.138-5.145.233-7.735.3-1.286.034-2.581.06-3.876.078h-.026c-1.286.017-2.581.026-3.876.026A291.623,291.623,0,0,1,262,403.772C262,242.633,392.633,112,553.772,112S845.545,242.633,845.545,403.772Z" transform="translate(-262 -112)" fill="none" stroke="#fff" stroke-width="15"/>
      </g>
    </g>
    <g id="Groupe_de_masques_14" data-name="Groupe de masques 14" transform="translate(4)" clip-path="url(#clip-path)">
      <g id="groceries" transform="translate(-8162.302 4806)">
        <path id="Tracé_1454" data-name="Tracé 1454" d="M287.2,96.475H139.688L120.336,57.124h13.271V0H19.358V57.124H32.629L.317,122.823V305.928H128.54c10.682,13.31,26.536,21.451,43.546,18.45a36.759,36.759,0,0,0,9.122-2.913,36.709,36.709,0,0,0,9.12,2.913c16.8,2.966,32.7-4.927,43.546-18.45h72.371V167.544A38.087,38.087,0,0,0,287.2,96.475ZM38.4,19.041h76.165V38.081H38.4Zm15.45,38.084H99.115l34.491,70.127v10.942l-7.369,3.685a39.6,39.6,0,0,1-39.589-2.465,58.744,58.744,0,0,0-67.29,1.656V127.251ZM19.358,286.885V167.063l6.868-6.871a39.623,39.623,0,0,1,49.859-4.937,58.685,58.685,0,0,0,57.521,4.2v60.633c-15.534,12.445-22.093,34.61-18.319,56.021a69.839,69.839,0,0,0,2.8,10.776H19.358Zm174.276,18.743c-4.85-.855-8.6-3.957-12.425-6.12-3.843,2.172-7.578,5.264-12.428,6.12-16.893,2.978-31.5-14.441-34.741-32.822-5.284-29.965,16.516-51.828,37.647-39.031V248.8H190.73V233.775a23.128,23.128,0,0,1,16.132-3.434c15.51,2.735,25.163,21.785,21.515,42.462C225.209,290.776,210.8,308.653,193.634,305.628Zm99.916-153.11-6.348,2.244V286.885H244.328a69.451,69.451,0,0,0,2.8-10.774c5.162-29.274-9.44-59.668-36.958-64.523a40.377,40.377,0,0,0-18.413,1.076A28.61,28.61,0,0,1,219.29,191.68V172.639a47.677,47.677,0,0,0-47.072,40.516,40.554,40.554,0,0,0-19.571-1.627V122.823l-3.593-7.307H287.2a19.046,19.046,0,0,1,6.348,37Zm0,0" fill="#fff"/>
        <path id="Tracé_1455" data-name="Tracé 1455" d="M76.482,172.639a38.082,38.082,0,1,0,38.081,38.084A38.127,38.127,0,0,0,76.482,172.639Zm0,57.124a19.042,19.042,0,1,1,19.041-19.041A19.063,19.063,0,0,1,76.482,229.763Zm0,0" fill="#fff"/>
      </g>
    </g>
  </g>
</svg>
