<svg xmlns="http://www.w3.org/2000/svg" xmlns:xlink="http://www.w3.org/1999/xlink" width="1000" height="600" viewBox="0 0 1000 600">
  <defs>
    <clipPath id="clip-path">
      <rect id="Rectangle_385" data-name="Rectangle 385" width="279" height="279" transform="translate(342.339 86.339)" fill="#fff"/>
    </clipPath>
    <clipPath id="clip-epicerieC">
      <rect width="1000" height="600"/>
    </clipPath>
  </defs>
  <g id="epicerieC" clip-path="url(#clip-epicerieC)">
    <rect width="1000" height="600" fill="#262626"/>
    <g id="Groupe_de_masques_25" data-name="Groupe de masques 25" transform="translate(18.661 18.661)" clip-path="url(#clip-path)">
      <g id="groceries" transform="translate(342.013 86)">
        <path id="Tracé_1545" data-name="Tracé 1545" d="M247.189,83.021H120.245L103.591,49.158h11.42V0H16.695V49.158h11.42L.31,105.695V263.266H110.652c9.192,11.454,22.836,18.459,37.474,15.878a31.634,31.634,0,0,0,7.85-2.507,31.591,31.591,0,0,0,7.848,2.507c14.461,2.552,28.138-4.24,37.474-15.878h62.279V144.18a32.776,32.776,0,0,0-16.387-61.159ZM33.08,16.385H98.624V32.771H33.08Zm13.3,32.773H85.33l29.681,60.348v9.416l-6.342,3.171A34.078,34.078,0,0,1,74.6,119.972,50.552,50.552,0,0,0,16.695,121.4V109.506ZM16.695,246.879V143.766l5.911-5.913A34.1,34.1,0,0,1,65.512,133.6a50.5,50.5,0,0,0,49.5,3.617V189.4C101.643,200.108,96,219.182,99.247,237.608a60.1,60.1,0,0,0,2.411,9.273H16.695Zm149.973,16.129c-4.174-.736-7.4-3.406-10.692-5.266-3.307,1.869-6.521,4.53-10.695,5.266-14.537,2.563-27.108-12.427-29.9-28.245-4.547-25.787,14.213-44.6,32.4-33.588v12.933h16.387V201.175a19.9,19.9,0,0,1,13.882-2.955c13.347,2.354,21.654,18.747,18.515,36.541C193.84,250.227,181.438,265.611,166.668,263.008Zm85.983-131.759-5.462,1.931v113.7h-36.9a59.766,59.766,0,0,0,2.409-9.271c4.443-25.191-8.123-51.347-31.8-55.525a34.746,34.746,0,0,0-15.845.926,24.621,24.621,0,0,1,23.694-18.058V148.565a41.028,41.028,0,0,0-40.508,34.866,34.9,34.9,0,0,0-16.842-1.4V105.695L128.3,99.407H247.189a16.39,16.39,0,0,1,5.462,31.842Zm0,0" transform="translate(-0.31)" fill="#fff"/>
        <path id="Tracé_1546" data-name="Tracé 1546" d="M70.226,168.39A32.772,32.772,0,1,0,103,201.163,32.81,32.81,0,0,0,70.226,168.39Zm0,49.158a16.386,16.386,0,1,1,16.385-16.385A16.4,16.4,0,0,1,70.226,217.548Zm0,0" transform="translate(-4.683 -19.825)" fill="#fff"/>
      </g>
    </g>
    <g id="epiceries" transform="translate(898.391 -622.173)" style="isolation: isolate">
      <g id="Groupe_174" data-name="Groupe 174" style="isolation: isolate">
        <path id="Tracé_1547" data-name="Tracé 1547" d="M-498.391,1121.779v-44.1h17.326v3.15h-13.924v17.011h11.971v3.15h-11.971v17.641h14.113v3.15Z" fill="#fff"/>
        <path id="Tracé_1548" data-name="Tracé 1548" d="M-453.724,1087v6.931c0,6.174-3.4,9.324-10.08,9.324H-470.8v18.523h-3.4v-44.1h10.4C-457.125,1077.677-453.724,1080.827-453.724,1087Zm-3.4,1.135c0-5.23-1.954-7.309-6.931-7.309H-470.8v19.279h6.741c4.977,0,6.931-2.079,6.931-7.308Z" fill="#fff"/>
        <path id="Tracé_1549" data-name="Tracé 1549" d="M-446.8,1121.779v-44.1h3.4v44.1Z" fill="#fff"/>
        <path id="Tracé_1550" data-name="Tracé 1550" d="M-414.727,1112.959c0,6.3-3.4,9.324-10.081,9.324h-.126c-6.678,0-10.08-2.961-10.08-9.324V1086.5c0-6.048,3.4-9.324,10.08-9.324h.126c6.679,0,10.081,3.276,10.081,9.324v7.561h-3.4v-6.426c0-5.167-1.828-7.309-6.742-7.309s-6.741,2.142-6.741,7.309v24.193c0,5.166,1.827,7.308,6.741,7.308s6.742-2.142,6.742-7.308v-7.5h3.4Z" fill="#fff"/>
        <path id="Tracé_1551" data-name="Tracé 1551" d="M-406.917,1121.779v-44.1h17.326v3.15h-13.924v17.011h11.971v3.15h-11.971v17.641H-389.4v3.15Z" fill="#fff"/>
        <path id="Tracé_1552" data-name="Tracé 1552" d="M-364.392,1121.779l-7.245-19.027h-7.687v19.027h-3.4v-44.1h10.4c6.679,0,10.081,3.15,10.081,9.324v6.427c0,4.788-2.016,7.749-6.048,8.82l7.56,19.531Zm-1.26-29.423v-4.22c0-5.23-1.953-7.309-6.931-7.309h-6.741v18.838h6.741C-367.605,1099.665-365.652,1097.522-365.652,1092.356Z" fill="#fff"/>
        <path id="Tracé_1553" data-name="Tracé 1553" d="M-354.062,1121.779v-44.1h3.4v44.1Z" fill="#fff"/>
        <path id="Tracé_1554" data-name="Tracé 1554" d="M-342.029,1121.779v-44.1H-324.7v3.15h-13.924v17.011h11.971v3.15h-11.971v17.641h14.113v3.15Z" fill="#fff"/>
        <path id="Tracé_1555" data-name="Tracé 1555" d="M-302.717,1092.924v-5.671c0-4.851-1.764-6.993-6.489-6.993s-6.49,2.142-6.49,6.993v3.088c0,3.276,1.134,4.158,4.474,5.922l6.741,3.717c3.087,1.638,5.292,4.095,5.292,7.434v5.671c0,6.3-3.213,9.2-9.891,9.2h-.126c-6.679,0-9.892-2.835-9.892-9.2V1105.9h3.4v6.175c0,4.788,1.764,7.119,6.553,7.119s6.552-2.331,6.552-7.119v-3.528c0-3.277-1.323-4.41-4.662-6.3l-6.616-3.591c-3.654-2.079-5.229-3.78-5.229-7.308v-5.1c0-6.048,3.78-9.072,9.829-9.072h.126c6.048,0,9.828,3.024,9.828,9.072v6.679Z" fill="#fff"/>
      </g>
    </g>
  </g>
</svg>
