<svg xmlns="http://www.w3.org/2000/svg" xmlns:xlink="http://www.w3.org/1999/xlink" width="676" height="676" viewBox="0 0 676 676">
  <defs>
    <clipPath id="clip-path">
      <rect id="Rectangle_369" data-name="Rectangle 369" width="325" height="325" transform="translate(-8162 7630)" fill="#fff"/>
    </clipPath>
  </defs>
  <g id="Groupe_147" data-name="Groupe 147" transform="translate(8338 -7454)">
    <g id="Groupe_133" data-name="Groupe 133" transform="translate(-150 1737)">
      <g id="Groupe_125" data-name="Groupe 125" transform="translate(-2042 -5910)">
        <g id="avatarFemale" transform="translate(-6146 11627)">
          <path id="Tracé_1341" data-name="Tracé 1341" d="M938,450c0,120.33-62.88,225.98-157.58,285.87q-13.26,8.4-27.34,15.55c-2.12,1.09-4.25,2.14-6.4,3.17-1.77.86-3.56,1.7-5.35,2.53a334.831,334.831,0,0,1-57.78,20.47c-1.29.33-2.59.65-3.89.96-.97.24-1.95.47-2.93.69a2.494,2.494,0,0,1-.37.09c-2.01.47-4.02.92-6.05,1.33-1.14.24-2.28.48-3.42.71-.69.15-1.39.28-2.08.41-.87.17-1.73.33-2.6.5-.48.1-.96.18-1.45.26-1.1.2-2.2.4-3.29.59-1.86.32-3.74.63-5.61.91-1.36.21-2.71.41-4.07.6-1.6.23-3.2.44-4.81.64-.44.07-.88.12-1.32.17l-1.71.21c-1.74.21-3.5.4-5.25.58q-1.71.18-3.42.33c-1.47.14-2.94.26-4.42.38-1.8.14-3.59.27-5.4.38-1.16.07-2.32.14-3.49.2-2.98.16-5.96.27-8.96.35-1.49.04-2.99.07-4.49.09h-.03c-1.49.02-2.99.03-4.49.03A337.827,337.827,0,0,1,262,450c0-186.67,151.33-338,338-338S938,263.33,938,450Z" transform="translate(-262 -112)" fill="#b2d6ff"/>
          <path id="Tracé_1351" data-name="Tracé 1351" d="M701.96,648.27l1.22.63C703.06,650.2,702.77,651,701.96,648.27Z" transform="translate(-262 -112)" fill="#2f2e41"/>
          <path id="Tracé_1352" data-name="Tracé 1352" d="M703.57,648.69c.01.14.03.29.04.43l-.43-.22c.01-.13.02-.27.04-.41C703.32,646.74,703.2,644.67,703.57,648.69Z" transform="translate(-262 -112)" fill="#2f2e41"/>
        </g>
      </g>
      <g id="avatarFemale-2" data-name="avatarFemale" transform="translate(-8141.772 5763.228)" opacity="0.804">
        <path id="Tracé_1341-2" data-name="Tracé 1341" d="M845.545,403.772c0,103.873-54.28,195.073-136.028,246.772q-11.446,7.251-23.6,13.423c-1.83.941-3.669,1.847-5.525,2.736-1.528.742-3.073,1.467-4.618,2.184a289.038,289.038,0,0,1-49.878,17.67c-1.114.285-2.236.561-3.358.829-.837.207-1.683.406-2.529.6a2.149,2.149,0,0,1-.319.078c-1.735.406-3.47.794-5.222,1.148-.984.207-1.968.414-2.952.613-.6.13-1.2.242-1.8.354-.751.147-1.493.285-2.244.432-.414.086-.829.155-1.252.224-.95.173-1.9.345-2.84.509-1.606.276-3.229.544-4.843.786-1.174.181-2.339.354-3.513.518-1.381.2-2.762.38-4.152.553-.38.06-.76.1-1.14.147l-1.476.181c-1.5.181-3.021.345-4.532.5q-1.476.155-2.952.285c-1.269.121-2.538.224-3.815.328-1.554.121-3.1.233-4.661.328-1,.06-2,.121-3.013.173-2.572.138-5.145.233-7.735.3-1.286.034-2.581.06-3.876.078h-.026c-1.286.017-2.581.026-3.876.026A291.623,291.623,0,0,1,262,403.772C262,242.633,392.633,112,553.772,112S845.545,242.633,845.545,403.772Z" transform="translate(-262 -112)" fill="none" stroke="#fff" stroke-width="15"/>
      </g>
    </g>
    <g id="Groupe_de_masques_17" data-name="Groupe de masques 17" clip-path="url(#clip-path)">
      <g id="clothing-hanger" transform="translate(-8162 7630)">
        <path id="Tracé_1460" data-name="Tracé 1460" d="M309.545,216.864l-134.389-84.17v-6.322c0-3.735,1.916-6.745,6.032-9.46.508-.338,1.107-.7,1.771-1.107,6.528-4,20.116-12.325,20.116-31.087,0-19.488-16.061-34.442-31.595-37.646-16.357-3.4-31.19.586-40.849,11.188-8.807,9.635-11.279,17.662-11.8,30.694-.042.943-.066,2.974-.091,4.956-.025,2.738,5.379,4.963,12.053,4.963h2.418c6.673,0,12.095-2.212,12.108-4.95.006-2.261.025-4.533.042-4.963.369-8.988,2.786-14.277,11.962-16.133,5.706-1.148,11.865.448,15.474,3.984a9.169,9.169,0,0,1,2.261,7.224,10.593,10.593,0,0,1-4.57,7.949l-11.515,7.84c-7.344,4.7-10.469,10.33-10.469,18.811v14.077L15.472,216.568c-19.718,12.161-15.638,32.9-13.915,38.969,1.578,5.531,8.752,23.573,34.877,23.573H290.227c18.46,0,30.138-12,33.541-23.913C327.292,242.747,323.472,225.072,309.545,216.864ZM295.89,246.155a6.264,6.264,0,0,1-6.045,4.624H36.114a6.261,6.261,0,0,1-6.129-4.291,6.03,6.03,0,0,1,2.629-6.818l130.042-81.4,130.762,81.741A5.223,5.223,0,0,1,295.89,246.155Z" fill="#fff"/>
      </g>
    </g>
  </g>
</svg>
