<svg xmlns="http://www.w3.org/2000/svg" xmlns:xlink="http://www.w3.org/1999/xlink" width="1000" height="600" viewBox="0 0 1000 600">
  <defs>
    <clipPath id="clip-path">
      <rect id="Rectangle_385" data-name="Rectangle 385" width="317" height="317" transform="translate(342 86)" fill="#fff"/>
    </clipPath>
    <clipPath id="clip-friperieC">
      <rect width="1000" height="600"/>
    </clipPath>
  </defs>
  <g id="friperieC" clip-path="url(#clip-friperieC)">
    <rect width="1000" height="600" fill="#64b7ff"/>
    <g id="Groupe_de_masques_27" data-name="Groupe de masques 27" clip-path="url(#clip-path)">
      <g id="clothing-hanger" transform="translate(342 86)">
        <path id="Tracé_1570" data-name="Tracé 1570" d="M301.926,211.525l-131.081-82.1v-6.167c0-3.643,1.869-6.579,5.884-9.227.5-.33,1.079-.684,1.728-1.079,6.368-3.9,19.621-12.021,19.621-30.322,0-19.008-15.665-33.594-30.817-36.719-15.954-3.313-30.422.572-39.844,10.913-8.59,9.4-11,17.228-11.509,29.939-.041.92-.065,2.9-.088,4.834-.024,2.671,5.247,4.841,11.756,4.841h2.358c6.509,0,11.8-2.158,11.81-4.828.006-2.2.024-4.422.041-4.841.36-8.767,2.718-13.926,11.667-15.736,5.565-1.12,11.573.437,15.093,3.886a8.943,8.943,0,0,1,2.2,7.046,10.332,10.332,0,0,1-4.457,7.753l-11.231,7.647c-7.163,4.587-10.212,10.076-10.212,18.348v13.731L15.091,211.237C-4.142,223.1-.162,243.327,1.519,249.247c1.539,5.395,8.537,22.993,34.019,22.993H283.083c18.006,0,29.4-11.709,32.715-23.324C319.235,236.771,315.509,219.532,301.926,211.525ZM288.607,240.1a6.11,6.11,0,0,1-5.9,4.51H35.225a6.107,6.107,0,0,1-5.978-4.186,5.882,5.882,0,0,1,2.565-6.65l126.841-79.392L286.2,234.107A5.094,5.094,0,0,1,288.607,240.1Z" fill="#fff"/>
      </g>
    </g>
    <g id="Friperies" transform="translate(1238.125 -547.915)" style="isolation: isolate">
      <g id="Groupe_177" data-name="Groupe 177" style="isolation: isolate">
        <path id="Tracé_1571" data-name="Tracé 1571" d="M-837.125,1002.419h17.074v3.15h-13.672V1022.9H-822v3.149h-11.719v20.476h-3.4Z" fill="#fff"/>
        <path id="Tracé_1572" data-name="Tracé 1572" d="M-796.048,1046.521l-7.245-19.027h-7.687v19.027h-3.4v-44.1h10.4c6.679,0,10.081,3.15,10.081,9.324v6.427c0,4.788-2.016,7.749-6.049,8.82l7.561,19.531Zm-1.26-29.422v-4.221c0-5.23-1.953-7.309-6.931-7.309h-6.741v18.838h6.741C-799.261,1024.407-797.308,1022.265-797.308,1017.1Z" fill="#fff"/>
        <path id="Tracé_1573" data-name="Tracé 1573" d="M-785.718,1046.521v-44.1h3.4v44.1Z" fill="#fff"/>
        <path id="Tracé_1574" data-name="Tracé 1574" d="M-753.209,1011.743v6.931c0,6.175-3.4,9.324-10.081,9.324h-6.993v18.523h-3.4v-44.1h10.4C-756.611,1002.419-753.209,1005.569-753.209,1011.743Zm-3.4,1.135c0-5.23-1.953-7.309-6.931-7.309h-6.741v19.28h6.741c4.978,0,6.931-2.079,6.931-7.309Z" fill="#fff"/>
        <path id="Tracé_1575" data-name="Tracé 1575" d="M-746.533,1046.521v-44.1h17.326v3.15H-743.13v17.011h11.97v3.15h-11.97v17.641h14.112v3.15Z" fill="#fff"/>
        <path id="Tracé_1576" data-name="Tracé 1576" d="M-704.007,1046.521l-7.245-19.027h-7.687v19.027h-3.4v-44.1h10.4c6.679,0,10.081,3.15,10.081,9.324v6.427c0,4.788-2.016,7.749-6.049,8.82l7.561,19.531Zm-1.26-29.422v-4.221c0-5.23-1.953-7.309-6.931-7.309h-6.741v18.838h6.741C-707.22,1024.407-705.267,1022.265-705.267,1017.1Z" fill="#fff"/>
        <path id="Tracé_1577" data-name="Tracé 1577" d="M-693.677,1046.521v-44.1h3.4v44.1Z" fill="#fff"/>
        <path id="Tracé_1578" data-name="Tracé 1578" d="M-681.645,1046.521v-44.1h17.327v3.15h-13.924v17.011h11.971v3.15h-11.971v17.641h14.113v3.15Z" fill="#fff"/>
        <path id="Tracé_1579" data-name="Tracé 1579" d="M-642.332,1017.666v-5.671c0-4.85-1.764-6.993-6.489-6.993s-6.49,2.143-6.49,6.993v3.088c0,3.276,1.134,4.158,4.474,5.922l6.741,3.718c3.087,1.637,5.292,4.094,5.292,7.433v5.671c0,6.3-3.213,9.2-9.891,9.2h-.126c-6.679,0-9.892-2.835-9.892-9.2v-7.182h3.4v6.174c0,4.788,1.764,7.119,6.553,7.119s6.552-2.331,6.552-7.119v-3.528c0-3.276-1.323-4.41-4.662-6.3l-6.616-3.591c-3.654-2.079-5.229-3.78-5.229-7.308v-5.1c0-6.048,3.78-9.072,9.828-9.072h.127c6.048,0,9.828,3.024,9.828,9.072v6.679Z" fill="#fff"/>
      </g>
    </g>
  </g>
</svg>
