<svg xmlns="http://www.w3.org/2000/svg" xmlns:xlink="http://www.w3.org/1999/xlink" width="239.282" height="181.705" viewBox="0 0 239.282 181.705">
  <defs>
    <linearGradient id="linear-gradient" x1="0.5" y1="1" x2="0.5" gradientUnits="objectBoundingBox">
      <stop offset="0" stop-color="gray" stop-opacity="0.251"/>
      <stop offset="0.54" stop-color="gray" stop-opacity="0.122"/>
      <stop offset="1" stop-color="gray" stop-opacity="0.102"/>
    </linearGradient>
  </defs>
  <g id="undraw_High_five_u364" transform="translate(0.004 0.003)">
    <path id="Tracé_793" data-name="Tracé 793" d="M305.864,705.735a16.527,16.527,0,0,0-6.027.111c-1.908.533-3.489,2.09-2.922,3.579,1.266,3.318,8.694,1.007,12.119,3.276,1.223.811,1.7,2.086,2.655,3.081,1.545,1.616,4.2,2.37,6.767,2.785,15.406,2.491,32.97-3.92,46.473,2.254,4.373,2,7.822,5.184,12.617,6.518,6.352,1.768,13.309-.121,19.881-1.332a97.25,97.25,0,0,1,24.861-1.3c6.146.474,14.321.633,16.288-3.83,1.266-2.87-1.413-6.065-4.968-7.423s-7.717-1.315-11.687-1.185c-7.663.275-15.328.83-22.991.559-14.818-.526-28.817-6.4-43.247-6.594C338.877,706.026,322.747,707.437,305.864,705.735Z" transform="translate(-249.025 -554.101)" fill="#6c63ff" opacity="0.1"/>
    <path id="Tracé_794" data-name="Tracé 794" d="M261.225,384.607a10.179,10.179,0,0,0-2.515,6.07A8.752,8.752,0,0,0,267.259,382,10.3,10.3,0,0,0,261.225,384.607Z" transform="translate(-219.965 -307.268)" fill="#6c63ff" opacity="0.1"/>
    <path id="Tracé_795" data-name="Tracé 795" d="M308.818,122.281a10.252,10.252,0,0,0,3.906,5.286,8.743,8.743,0,0,0-3.029-11.8A10.176,10.176,0,0,0,308.818,122.281Z" transform="translate(-258.018 -104.14)" fill="#6c63ff" opacity="0.1"/>
    <path id="Tracé_796" data-name="Tracé 796" d="M886.307,172.66a10.189,10.189,0,0,0-2.517,6.07,8.747,8.747,0,0,0,8.549-8.68A10.357,10.357,0,0,0,886.307,172.66Z" transform="translate(-696.888 -145.554)" fill="#6c63ff" opacity="0.1"/>
    <path id="Tracé_797" data-name="Tracé 797" d="M589.545,303.864a10.262,10.262,0,0,0,1.96,6.272,8.743,8.743,0,0,0,1-12.135A10.225,10.225,0,0,0,589.545,303.864Z" transform="translate(-472.367 -243.177)" fill="#6c63ff" opacity="0.1"/>
    <path id="Tracé_798" data-name="Tracé 798" d="M917.6,502.166a10.262,10.262,0,0,0,1.96,6.272,8.745,8.745,0,0,0,1-12.138A10.246,10.246,0,0,0,917.6,502.166Z" transform="translate(-722.67 -394.476)" fill="#6c63ff" opacity="0.1"/>
    <path id="Tracé_799" data-name="Tracé 799" d="M234.251,89.531c-15.34-.462-29.95-4.74-43.9-9.433s-27.769-9.881-42.742-12.365c-9.63-1.6-20.644-1.823-28.4,2.645-7.469,4.3-9.881,11.718-11.178,18.6-.977,5.179-1.55,10.63,1.123,15.48,1.858,3.368,5.153,6.2,7.433,9.422,7.933,11.223,2.325,25.06-6.269,36.027-4.029,5.141-8.71,10.043-11.823,15.515s-4.551,11.74-1.827,17.319c2.7,5.532,9.128,9.687,16.094,12.609,14.148,5.926,30.813,7.634,47.075,8.6,35.987,2.133,72.163,1.209,108.245.284,13.354-.341,26.764-.687,39.9-2.474,7.3-.991,14.826-2.565,20.123-6.366,6.722-4.826,8.388-13,3.882-19.047-7.556-10.147-28.442-12.669-33.73-23.56-2.906-5.994.078-12.671,4.3-18.232,9.064-11.927,24.254-22.391,25.053-36.027.55-9.362-6.753-18.739-18.044-23.169-11.834-4.646-28.248-4.06-36.975,3.626C263.6,86.891,247.8,89.937,234.251,89.531Z" transform="translate(-95.23 -66.69)" fill="#0c00d3" opacity="0.288"/>
    <path id="Tracé_800" data-name="Tracé 800" d="M467.773,150.86a2.133,2.133,0,0,0-1.455,1.282l-.237-.038-.884-.142s-4.683-.386-5.558-.327a1.749,1.749,0,0,1-1.422-.8l-3.482-2.946-.27-.237c.377-.142.612-.216.612-.216s-9.343-11.614-11.358-11.839-5.345-2.937-5.378-2.963l-.036-.185c-.073-.391-.128-.787-.168-1.185l.5.3h0a3.988,3.988,0,0,1,.014-.412h0a7.5,7.5,0,0,1,1.394-3.982c.974-1.351,2.415-2.413,2.991-3.97a5.739,5.739,0,0,0,.306-2.083,6.945,6.945,0,0,0-.972-3.624,4.527,4.527,0,0,0-3.058-2.109c-.332-.052-.671-.059-1-.135-1.946-.457-2.662-3.067-4.553-3.707a3.835,3.835,0,0,0-2.714.268c-.851.37-1.621.9-2.453,1.311a14.472,14.472,0,0,0-2.531,1.292,2.647,2.647,0,0,0-.237.2h0l-.149.145h0a5.366,5.366,0,0,0-.808,1.055l-.036.059c-.024.04-.045.083-.066.126s-.036.066-.05.1-.038.076-.055.114l-.05.114-.043.109c-.014.04-.031.081-.043.123s-.024.069-.033.1l-.036.126-.021.1a.838.838,0,0,1-.024.13.421.421,0,0,0,0,.095v.438a1.448,1.448,0,0,0,.043.206h0a4.141,4.141,0,0,0,.905,1.27c-.038.036-.076.069-.114.107a8.262,8.262,0,0,0-2.529,5.952,8.15,8.15,0,0,0,.135,1.472,7.9,7.9,0,0,0-1.382-.837,12.062,12.062,0,0,0-5.141-1.185,35.4,35.4,0,0,1-6.983-1.123,2.773,2.773,0,0,1,.237.628c-.178-.1-.37-.211-.581-.325a17.023,17.023,0,0,0-5.451-1.825s-1.209.168-1.37-2.37a10.761,10.761,0,0,0-.427-2.339,39.869,39.869,0,0,1-1.436-7.111l-.405-3.726s1.825-9.718.728-13.861a2.871,2.871,0,0,0-1.01-3.344c-4.591-3.38-9.222,9.775-9.222,9.775l-1.721,1.671a3.693,3.693,0,0,0-1.46-.557,8.151,8.151,0,0,0-1.571,3.536c-.341,1.372-2.674,3.664-4.783,5.511-1.5,1.311-2.944,2.674-4.387,4.041-1.067,1.014-3.444,2.465-8.63,3.285-.813.128-1.553.249-2.228.36a6.952,6.952,0,0,0,.261-1.882,7.058,7.058,0,0,0-5.537-6.857,1.771,1.771,0,0,0,0-.5,2.072,2.072,0,0,0-.524-.948,10.189,10.189,0,0,0-3.9-3.38,5.084,5.084,0,0,0-2.107-.339h-.578a5.4,5.4,0,0,0-3.949,2.057c-.583.78-.934,1.7-1.436,2.536a11.281,11.281,0,0,1-3.927,3.667c-.936.566-1.92,1.055-2.8,1.7a10.516,10.516,0,0,0-3.88,10.486c.356,1.69,1.107,3.354.905,5.068a8.9,8.9,0,0,1-1.6,3.652,11.371,11.371,0,0,0-1.792,3.581,3.543,3.543,0,0,0,1.109,3.636,8.751,8.751,0,0,1,1.235.825,3.96,3.96,0,0,1,.569.891,8.869,8.869,0,0,0,5.515,4.285,4.029,4.029,0,0,0,1.128.123h.114a1.9,1.9,0,0,0,2.053-.948,2.153,2.153,0,0,1,.2-.5.59.59,0,0,1,.344-.237,3.156,3.156,0,0,1,.8.3,10.221,10.221,0,0,0,3.906,1.116,5.5,5.5,0,0,0,.685.012,3.03,3.03,0,0,0,1.4-.2,2.991,2.991,0,0,0,1.074-.92c.062-.078.118-.161.178-.237A19.605,19.605,0,0,1,353.3,149.2a9.894,9.894,0,0,0-1.32,4.759,4.78,4.78,0,0,0,.533,2.512s.04-.1.123-.268a20.138,20.138,0,0,0,2.621,3.631c.043,2.254.033,5.077-.249,5.658a11.7,11.7,0,0,0,4.47,12.877l1.486,3.254-6.118.434c-.619-.085-8.618-1.161-8.658.405-.04,1.628,1.209,17.485,5.357,16.411,3.866-1,2.591-5.624,2.4-6.245l.138-.038-.152-.043,3.093-2.932a1.37,1.37,0,0,0-.237-1.017l.031-.017,7.471.334,1.756,3.816s2.979,4.532.564,8.346-4.913,9.777-5.316,13.394c-.329,2.958-2.52,5.864-3.3,6.821-1.4.474-6.774,2.584-4.629,5.776,2.456,3.655,10.429,10.611,13.652,10.372s1.932-2.584,1.932-2.584l-2.695-2.612a65.712,65.712,0,0,1-.282-7.194,1.676,1.676,0,0,0-1.185-1.714c.254-1.813.9-5.25,2.275-7.148,1.932-2.664,8.135-14.387,8.135-14.387s1.972-1.749,1.529-6.954c-.178-2.1-.277-3.944-.334-5.4l7.021.315s7.53-.756,2.415-8.824-15.987-15.975-15.987-15.975l-.1-4.994c.493.123.782.185.782.185s-.043-.18-.114-.5l.114.026a108.444,108.444,0,0,1-2.055-12.207l.443.2c4.672,5.406,7.822.837,7.822.837s9.867-13.87,8.9-13.235a.839.839,0,0,1-.649.04l.711-2.266s2.913-4.451-1.315-6.954c-3.451-2.043-3.361,4.361-3.212,6.781l-.171-.145s-3.3,4.977-5.075,7.751-3.261.948-3.261.948l-2.24-2.524a8.868,8.868,0,0,0,.533-3.157,5.364,5.364,0,0,0-1.515-4.1,7.1,7.1,0,0,1-2.261-4.729,5,5,0,0,1,.448-1.948l11.64-6.163s2.456.038,5.757-5.049a87.318,87.318,0,0,1,7.049-9.3s-.069-.1-.187-.263c.119-.14.187-.216.187-.216s-.135-.2-.365-.5l1.794-2.069a26.54,26.54,0,0,0-.021,2.809l.929,3.141.521,17.485s-.564,1.659,3.062,3.34c3.067,1.422,7.926,3.792,9.343,4.492-.052.128-.083.2-.083.2l.422-.028.062.028h0c7.085-.635,6.843,6.437,6.843,6.437s.474,14.387-1.69,19.4a28.962,28.962,0,0,0-1.854,11.206s.216-1.057,1.422.325c-.024.121-.05.251-.078.386-.692,3.468-2.133,10.844-2.4,13.835a48.477,48.477,0,0,1-1.571,8.059l-.711,13.233,4.529.22-.05.474a1.488,1.488,0,0,1-.768,1.154c-1.55.841-5.214,3.792-4.921,12.9l-.156,1.465a18.4,18.4,0,0,1-2.211,7.066c-.1.185-.2.363-.275.533a.436.436,0,0,1,.123-.254s-2.354.488-1.87,6.848,1.209,7.471,2.176,7.549,5.688,1.233,5.435-1.112-.474-7.551-.161-8.345,1.6-2.937.379-3.453h0a18.167,18.167,0,0,0,.51-4.456,29.024,29.024,0,0,1,4.065-5.127c1.695-1.391,2.607-3.754,3.221-6.8.043-.2,4.994-3.5,4.266-6.238-.128-.474-.22-.894-.292-1.273-.031-.168-.057-.327-.081-.474h.088l1.007-6.042v5.883l.6.078-.021.474-.254,5.641a9.288,9.288,0,0,1-.711,3.2,31.238,31.238,0,0,0-2.5,14.221l-.057,5.418c-.171.033-2.631.614-2.164,6.755.474,6.357,1.206,7.471,2.173,7.549s5.689,1.233,5.437-1.112-.474-7.551-.161-8.346.877-2.894-.341-3.411a4.542,4.542,0,0,1,.507-2.045c.531-.9,2.3-5.2,3.638-8.5A30.413,30.413,0,0,0,431.1,215.7q0-.06,0-.121a9.849,9.849,0,0,1,.77-3.539,22.82,22.82,0,0,0,1.289-3.89c.033-.159.059-.313.083-.474l1.157.154,3.949-17.089s1.081-9.263.552-13.446c-.021-.173-.045-.332-.073-.486l.237.021s.806-2.064.564-10.889,1.612-11.614,1.612-11.614c1-3.171,2.1-4.233,2.749-4.589h0a1.164,1.164,0,0,1,.552-.18l2.989,3.42h0l.55.63a.2.2,0,0,0,0-.038l.237.277a2.554,2.554,0,0,1-.019-.424c1.6.927,5.281,3.093,7.48,4.648,2.868,2.027,3.655,1.79,6.163,1.579a16.853,16.853,0,0,0,4.958-1.628l.126-.059a6.058,6.058,0,0,0,1.166.474s4.048,3.43,4.439-2.83S467.773,150.86,467.773,150.86Zm-105,72.9a5.855,5.855,0,0,1-1.185-.5ZM356.435,156l.014.889-.062.028C356.407,156.6,356.421,156.3,356.435,156Zm63.318,79.335v.346A.254.254,0,0,1,419.753,235.334Z" transform="translate(-277.902 -83.4)" fill="url(#linear-gradient)"/>
    <rect id="Rectangle_165" data-name="Rectangle 165" width="6.874" height="7.229" transform="translate(147.9 47.788)" fill="#ff7590"/>
    <path id="Tracé_801" data-name="Tracé 801" d="M639.351,586.659c-.6,3.022-1.5,5.371-3.16,6.755a29.049,29.049,0,0,0-3.989,5.1c-.04,4.937-1.344,6.438-1.344,6.438l-1.344.356H626.2a16.425,16.425,0,0,1-.711-2.645,3.1,3.1,0,0,1,.521-1.474,18.466,18.466,0,0,0,2.169-7.023l.154-1.458c-.28-9.047,3.318-11.984,4.828-12.82a1.479,1.479,0,0,0,.751-1.147h0l.268-2.586,8.926.438a7.081,7.081,0,0,0,.149,2.607c.069.377.161.8.284,1.263C644.248,583.182,639.389,586.46,639.351,586.659Z" transform="translate(-499.804 -455.4)" fill="#8e5362"/>
    <path id="Tracé_802" data-name="Tracé 802" d="M705.466,583.342a23.012,23.012,0,0,1-1.263,3.866,9.926,9.926,0,0,0-.758,3.518v.121a30.617,30.617,0,0,1-2.2,10.443c-1.311,3.28-3.048,7.549-3.57,8.447-.867,1.5-.356,4.029-.356,4.029l-5.025-.356.088-8.455a31.48,31.48,0,0,1,2.451-14.134,9.259,9.259,0,0,0,.711-3.174l.237-5.608.073-1.659s8.883-1.263,9.633.751A4.266,4.266,0,0,1,705.466,583.342Z" transform="translate(-550.783 -458.33)" fill="#8e5362"/>
    <path id="Tracé_803" data-name="Tracé 803" d="M670.353,579.2l-9.353-.46.268-2.586,8.936.439A6.873,6.873,0,0,0,670.353,579.2Z" transform="translate(-526.904 -455.4)" opacity="0.1"/>
    <path id="Tracé_804" data-name="Tracé 804" d="M716.685,583.342,707,582.04l.073-1.659s8.884-1.263,9.633.751A4.236,4.236,0,0,1,716.685,583.342Z" transform="translate(-562.001 -458.33)" opacity="0.1"/>
    <path id="Tracé_805" data-name="Tracé 805" d="M672.554,450.857l-3.871,16.987L657.228,466.3v-5.847l-.991,6.008-13.747-.673.711-13.155a48.785,48.785,0,0,0,1.541-8.018c.268-2.972,1.676-10.3,2.356-13.747.237-1.135.37-1.851.37-1.851s23.546,4.9,25.086,6.674a3.749,3.749,0,0,1,.543,1.8C673.613,441.651,672.554,450.857,672.554,450.857Z" transform="translate(-512.781 -343.143)" fill="#bdd2e8"/>
    <path id="Tracé_806" data-name="Tracé 806" d="M653.33,513.024s9.267-4.859,11.526-3.833Z" transform="translate(-521.052 -404.204)" opacity="0.1"/>
    <path id="Tracé_807" data-name="Tracé 807" d="M674.66,458.82s7.7,5.847,7.94,7.426Z" transform="translate(-537.326 -365.88)" opacity="0.1"/>
    <path id="Tracé_808" data-name="Tracé 808" d="M665.83,543.772s5.57-.237,7.348,1.185Z" transform="translate(-530.589 -430.685)" opacity="0.1"/>
    <path id="Tracé_809" data-name="Tracé 809" d="M705.49,517.44s2.647,8.665,1.5,11.036-2.33-.555-2.33-.555Z" transform="translate(-560.216 -410.606)" opacity="0.1"/>
    <path id="Tracé_810" data-name="Tracé 810" d="M685.418,708s-2.607.4-2.133,6.715,1.185,7.428,2.133,7.506,5.57,1.225,5.333-1.107-.474-7.5-.159-8.3.86-2.875-.334-3.389L690,710.647s-2.529-2.332-4.029-.633a6.568,6.568,0,0,0-.31-1.216C685.51,708.429,685.183,708.237,685.418,708Z" transform="translate(-543.863 -555.999)" fill="#494457"/>
    <path id="Tracé_811" data-name="Tracé 811" d="M827.843,347.539s-.6.334-1.474.751a16.421,16.421,0,0,1-4.864,1.619c-2.46.209-3.231.446-6.044-1.569-2.159-1.545-5.774-3.7-7.348-4.62l-.685-.405-.069-.04v-.028l1.306-3.588,4.622-2.458,1.147.984,3.415,2.927a1.7,1.7,0,0,0,1.394.8c.86-.059,5.451.325,5.451.325l.867.142,1.827.3Z" transform="translate(-638.574 -273.086)" fill="#8e5362"/>
    <path id="Tracé_812" data-name="Tracé 812" d="M883.454,364.225s-.6.334-1.474.751c-.927-.474-2.079-1.363-1.635-2.825.4-1.315.51-2.342.839-3.081l1.827.3Z" transform="translate(-694.185 -289.773)" opacity="0.1"/>
    <path id="Tracé_813" data-name="Tracé 813" d="M883.595,353.324s5.155-1.481,4.771,4.74-4.356,2.816-4.356,2.816-3.377-.889-2.667-3.231S881.848,353.888,883.595,353.324Z" transform="translate(-694.946 -285.271)" fill="#8e5362"/>
    <path id="Tracé_814" data-name="Tracé 814" d="M603.006,141.054l-5.371,2.256-.083.036-.059-.028-.334-.168c-1.389-.692-6.163-3.06-9.166-4.465-3.555-1.659-3-3.318-3-3.318l-.512-17.381-.91-3.122s-.642-10.581,4.5-13.233,1.818,15.326,1.818,15.326l.4,3.735a40,40,0,0,0,1.41,7.056,10.96,10.96,0,0,1,.417,2.325c.159,2.527,1.344,2.358,1.344,2.358a16.5,16.5,0,0,1,5.342,1.816,13.368,13.368,0,0,1,1.768,1.119Z" transform="translate(-467.805 -93.148)" fill="#8e5362"/>
    <path id="Tracé_815" data-name="Tracé 815" d="M731.574,265.16l-4.584-.474a17.613,17.613,0,0,0,1.946-3.965,6.746,6.746,0,0,0,.2-.818,2.728,2.728,0,0,0-.251-2.012c-1.342-1.974,7.98-4.74,7.98-4.74a22.775,22.775,0,0,0-.1,3.29,16.641,16.641,0,0,0,.237,2.278,5.65,5.65,0,0,0,1.915,3.716C741.844,264.449,731.574,265.16,731.574,265.16Z" transform="translate(-577.253 -208.958)" fill="#8e5362"/>
    <path id="Tracé_816" data-name="Tracé 816" d="M731.574,283.082l-4.584-.474a17.612,17.612,0,0,0,1.946-3.965,1.655,1.655,0,0,0,1.453.884s4.627.685,6.618-2.887a5.649,5.649,0,0,0,1.915,3.716C741.844,282.371,731.574,283.082,731.574,283.082Z" transform="translate(-577.253 -226.88)" opacity="0.1"/>
    <path id="Tracé_817" data-name="Tracé 817" d="M808.161,343.72a2.552,2.552,0,0,0,.019.422l-.711-.827-.059-.069,1.306-3.588,4.622-2.458,1.147.984C812.843,338.812,808.235,340.805,808.161,343.72Z" transform="translate(-638.612 -273.086)" opacity="0.1"/>
    <path id="Tracé_818" data-name="Tracé 818" d="M646.578,246.884l-5.371,2.256h-.142l-.415.028s.031-.069.081-.2c.448-1.088,2.527-6.4,1.628-8.9a13.355,13.355,0,0,1,1.768,1.119Z" transform="translate(-511.377 -198.978)" opacity="0.1"/>
    <path id="Tracé_819" data-name="Tracé 819" d="M687.929,437.483c-2.091-.187-23.005-2.121-24.956-5.2a10.821,10.821,0,0,0-1.043-1.422c.237-1.135.37-1.851.37-1.851s23.546,4.9,25.086,6.675A3.7,3.7,0,0,1,687.929,437.483Z" transform="translate(-527.614 -343.135)" opacity="0.1"/>
    <path id="Tracé_820" data-name="Tracé 820" d="M666.047,250.908s4.677.692,6.653-2.941c0,0,3.3,2.712,5.276,2.944s11.14,11.77,11.14,11.77-7.348,2.37-6.874,6.163l-3.477-4.029s-1.737-.081-3.238,4.74c0,0-1.818,2.764-1.581,11.533s-.552,10.825-.552,10.825-23.072-1.974-25.124-5.214-2.37-1.659-2.37-1.659a28.888,28.888,0,0,1,1.816-11.14c2.133-4.977,1.659-19.277,1.659-19.277s.237-7.032-6.715-6.4c0,0,2.922-6.8,1.581-9.4a34.22,34.22,0,0,0,6.848,1.119,11.714,11.714,0,0,1,5.044,1.185,5.6,5.6,0,0,1,2.093,1.579,3.073,3.073,0,0,0,3.555,1.029,35.885,35.885,0,0,0,2.062,5.056c.092.173.185.344.28.507a7.78,7.78,0,0,0,.422.668A1.694,1.694,0,0,0,666.047,250.908Z" transform="translate(-512.911 -198.024)" fill="#ff7590"/>
    <path id="Tracé_821" data-name="Tracé 821" d="M742.466,256.41a8.12,8.12,0,0,1-.839,1.007,8.27,8.27,0,0,1-5.925,2.5,8.5,8.5,0,0,1-.856-.043,2.728,2.728,0,0,0-.251-2.012c-1.341-1.974,7.981-4.74,7.981-4.74A22.759,22.759,0,0,0,742.466,256.41Z" transform="translate(-582.955 -208.935)" opacity="0.1"/>
    <path id="Tracé_822" data-name="Tracé 822" d="M721.251,219.116a8.265,8.265,0,1,1-2.421-5.875A8.3,8.3,0,0,1,721.251,219.116Z" transform="translate(-560.216 -176.661)" fill="#8e5362"/>
    <path id="Tracé_823" data-name="Tracé 823" d="M792,325.789l.171,5.551s2.477-2,2.555-3.892S792,325.789,792,325.789Z" transform="translate(-626.854 -264.373)" opacity="0.1"/>
    <path id="Tracé_824" data-name="Tracé 824" d="M707.66,349.24s6.518,8.948,10.31,9.855S709.082,352.141,707.66,349.24Z" transform="translate(-562.505 -282.272)" opacity="0.1"/>
    <path id="Tracé_825" data-name="Tracé 825" d="M736.83,353.17s3.633,4.105,6.241,4.617Z" transform="translate(-584.761 -285.271)" opacity="0.1"/>
    <path id="Tracé_826" data-name="Tracé 826" d="M682.83,396.82s6.637,6.518,10.429,6.914Z" transform="translate(-543.56 -318.575)" opacity="0.1"/>
    <path id="Tracé_827" data-name="Tracé 827" d="M729.186,219.112a8.265,8.265,0,0,1-2.37,5.8l-.91-.566a2.516,2.516,0,0,1-.886-.77,3.062,3.062,0,0,1-.19-1.718,4.043,4.043,0,0,0-1.261-3.356c-1.571-1.259-4.091-.562-5.688-1.8a5.608,5.608,0,0,1-1.007-1.121l-1.5-2.008c-.09-.119-.2-.237-.315-.377a8.3,8.3,0,0,1,14.112,5.926Z" transform="translate(-568.151 -176.657)" opacity="0.1"/>
    <path id="Tracé_828" data-name="Tracé 828" d="M713.247,191.359a14.887,14.887,0,0,1,2.482-1.282c.834-.417,1.571-.948,2.406-1.3a3.789,3.789,0,0,1,2.664-.268c1.856.638,2.557,3.231,4.465,3.686.322.076.654.083.979.133a4.456,4.456,0,0,1,3,2.1,6.983,6.983,0,0,1,.948,3.605,5.779,5.779,0,0,1-.3,2.069c-.564,1.548-1.979,2.607-2.934,3.946a7.5,7.5,0,0,0-1.372,4.383l-2.313-1.439a2.493,2.493,0,0,1-.886-.77,3.064,3.064,0,0,1-.19-1.718,4.049,4.049,0,0,0-1.259-3.356c-1.574-1.259-4.093-.562-5.688-1.8a5.606,5.606,0,0,1-1.007-1.121l-1.5-2.008a5.717,5.717,0,0,1-1.09-1.51C711.334,193.563,712.412,192,713.247,191.359Z" transform="translate(-565.506 -159.527)" fill="#362133"/>
    <path id="Tracé_829" data-name="Tracé 829" d="M723.512,217.03a2.494,2.494,0,0,1-.886-.77,3.063,3.063,0,0,1-.19-1.718,4.043,4.043,0,0,0-1.261-3.356c-1.571-1.259-4.091-.562-5.688-1.8a5.608,5.608,0,0,1-1.007-1.121l-1.5-2.008a5.668,5.668,0,0,1-1.09-1.51,3.487,3.487,0,0,1,1.095-2.87c-.784.725-1.645,2.1-1.353,3.129a5.936,5.936,0,0,0,1.09,1.51l1.5,2.008a5.609,5.609,0,0,0,1.007,1.121c1.59,1.235,4.11.538,5.688,1.8a4.048,4.048,0,0,1,1.259,3.356,3.063,3.063,0,0,0,.19,1.718,2.493,2.493,0,0,0,.886.77l2.313,1.439a3.928,3.928,0,0,1,.014-.41Z" transform="translate(-565.492 -169.84)" opacity="0.1"/>
    <path id="Tracé_830" data-name="Tracé 830" d="M620.958,682.94s-2.309.474-1.835,6.8,1.185,7.428,2.133,7.506,5.57,1.225,5.333-1.107-.474-7.5-.159-8.3,1.567-2.918.372-3.432l-.965,1.261s-2.529-2.332-4.029-.633C621.809,685.045,620.406,683.492,620.958,682.94Z" transform="translate(-494.904 -536.879)" fill="#494457"/>
    <path id="Tracé_831" data-name="Tracé 831" d="M633.23,699.5c.5.237.967.526,1.465.763a3.289,3.289,0,0,0,1.59.374,1.11,1.11,0,0,0,.649-.225" transform="translate(-505.716 -549.514)" opacity="0.1"/>
    <path id="Tracé_832" data-name="Tracé 832" d="M697.33,725.62a8.055,8.055,0,0,0,.86.846,3,3,0,0,0,1.659.344.674.674,0,0,0,.284-.036.693.693,0,0,0,.254-.237l.31-.4" transform="translate(-554.623 -569.443)" opacity="0.1"/>
    <path id="Tracé_833" data-name="Tracé 833" d="M532.6,256.344s-1.067-10.111,3.081-7.623,1.292,6.912,1.292,6.912L536,258.754Z" transform="translate(-428.847 -205.278)" fill="#ffc1c7"/>
    <path id="Tracé_834" data-name="Tracé 834" d="M561,105.27l2.37-2.328s4.544-13.076,9.047-9.718-5.707,11.851-5.707,11.851L564,108.235Z" transform="translate(-450.606 -86.517)" fill="#ffc1c7"/>
    <path id="Tracé_835" data-name="Tracé 835" d="M414.278,359.926l-.118,2.685s2.173,3.792,3.081,4.07.83-8.021.83-8.021Z" transform="translate(-338.57 -289.46)" fill="#ff5374"/>
    <path id="Tracé_836" data-name="Tracé 836" d="M414.278,359.926l-.118,2.685s2.173,3.792,3.081,4.07.83-8.021.83-8.021Z" transform="translate(-338.57 -289.46)" opacity="0.1"/>
    <path id="Tracé_837" data-name="Tracé 837" d="M334.76,284.87l.161,9.9H345.94l-.83-5.767Z" transform="translate(-255.418 -217.352)" fill="#ffc1c7"/>
    <path id="Tracé_838" data-name="Tracé 838" d="M436.893,455.82l.514,3.16,6.44,14.3s2.922,4.5.552,8.3-4.819,9.718-5.214,13.311S435.67,502,435.67,502l6.8,2.884s.474-5.648,2.37-8.3,7.978-14.3,7.978-14.3,1.936-1.74,1.5-6.914-.4-8.81-.4-8.81l-.671-8.255Z" transform="translate(-354.982 -363.591)" fill="#575988"/>
    <path id="Tracé_839" data-name="Tracé 839" d="M436.893,455.82l.514,3.16,6.44,14.3s2.922,4.5.552,8.3-4.819,9.718-5.214,13.311S435.67,502,435.67,502l6.8,2.884s.474-5.648,2.37-8.3,7.978-14.3,7.978-14.3,1.936-1.74,1.5-6.914-.4-8.81-.4-8.81l-.671-8.255Z" transform="translate(-354.982 -363.591)" opacity="0.1"/>
    <path id="Tracé_840" data-name="Tracé 840" d="M420.942,648.82s-7.269,2.211-4.859,5.847,10.232,10.547,13.392,10.31,1.9-2.569,1.9-2.569l-2.648-2.607a63.523,63.523,0,0,1-.275-7.148c.2-1.619-2.252-2.37-2.569-1.422S420.942,648.82,420.942,648.82Z" transform="translate(-339.664 -510.846)" fill="#c4747b"/>
    <path id="Tracé_841" data-name="Tracé 841" d="M429.771,375.58l-5.762.638a2.067,2.067,0,0,0-1.839,2.107c.062,2.3.1,5.968-.22,6.637a11.708,11.708,0,0,0,4.385,12.8l8.573,2.726-13.747.988.436,7.625,2.133-1.185L449.8,409.1s7.388-.751,2.37-8.77-15.681-15.88-15.681-15.88l-.119-6.243-.792-1.816Z" transform="translate(-343.911 -302.369)" fill="#575988"/>
    <path id="Tracé_842" data-name="Tracé 842" d="M487.66,478.159a7.4,7.4,0,0,1,5.926,0Z" transform="translate(-394.649 -380.163)" opacity="0.1"/>
    <path id="Tracé_843" data-name="Tracé 843" d="M396.53,483.224s-8.492-1.223-8.533.4,1.185,17.381,5.255,16.314,2.33-6.281,2.33-6.281l3.043-2.922s.315-1.619-1.7-1.462Z" transform="translate(-318.608 -384.162)" fill="#c4747b"/>
    <path id="Tracé_844" data-name="Tracé 844" d="M477.989,282.639l3.356,3.833s1.462,1.818,3.2-.948,4.977-7.7,4.977-7.7,3.6,3.159,4.544,2.529-8.729,13.157-8.729,13.157-3.081,4.541-7.665-.83l-1.342-.633Z" transform="translate(-386.005 -227.78)" fill="#ff5374"/>
    <path id="Tracé_845" data-name="Tracé 845" d="M477.989,282.639l3.356,3.833s1.462,1.818,3.2-.948,4.977-7.7,4.977-7.7,3.6,3.159,4.544,2.529-8.729,13.157-8.729,13.157-3.081,4.541-7.665-.83l-1.342-.633Z" transform="translate(-386.005 -227.78)" opacity="0.1"/>
    <circle id="Ellipse_54" data-name="Ellipse 54" cx="6.992" cy="6.992" r="6.992" transform="translate(74.725 25.299)" fill="#ffc1c7"/>
    <path id="Tracé_846" data-name="Tracé 846" d="M418.572,160.7s-6.008,2.844-5.3,7.822a110.049,110.049,0,0,1,.83,11.258s2.728,4.029-.889,11.732c0,0-2.311,3.911-.77,6.755,0,0,1.709-4.5,6.127-1.185s11.531,4.859,11.531,4.859-3.674-16.117-1.422-18.369c0,0,3.911-5.807.356-9.481s-1.778-7.111-1.778-7.111l11.417-6.122s2.408.038,5.648-5.018a87.066,87.066,0,0,1,6.914-9.244s-2.451-3.674-4.74-3.951a8.176,8.176,0,0,0-1.541,3.517c-.337,1.363-2.624,3.641-4.693,5.478-1.47,1.3-2.887,2.657-4.3,4.029-1.048,1.007-3.38,2.448-8.466,3.264C419.124,160.272,418.572,160.7,418.572,160.7Z" transform="translate(-336.858 -124.648)" opacity="0.1"/>
    <path id="Tracé_847" data-name="Tracé 847" d="M418.572,158.7s-6.008,2.844-5.3,7.822a110.049,110.049,0,0,1,.83,11.258s2.728,4.029-.889,11.732c0,0-2.311,3.911-.77,6.755,0,0,1.709-4.5,6.127-1.185s11.531,4.859,11.531,4.859-3.674-16.117-1.422-18.369c0,0,3.911-5.807.356-9.481s-1.778-7.111-1.778-7.111l11.417-6.122s2.408.038,5.648-5.018a87.068,87.068,0,0,1,6.914-9.244s-2.451-3.674-4.74-3.951a8.176,8.176,0,0,0-1.541,3.517c-.337,1.363-2.624,3.641-4.693,5.478-1.47,1.3-2.887,2.657-4.3,4.029-1.048,1.007-3.38,2.448-8.466,3.264C419.124,158.272,418.572,158.7,418.572,158.7Z" transform="translate(-336.858 -123.123)" fill="#ff5374"/>
    <path id="Tracé_848" data-name="Tracé 848" d="M461.83,342.49s4.66,6.874,4.778,8.059C466.611,350.549,465.9,343.161,461.83,342.49Z" transform="translate(-374.941 -277.122)" opacity="0.1"/>
    <path id="Tracé_849" data-name="Tracé 849" d="M436,244.82s3.25,3.911,7.945.633A10.071,10.071,0,0,1,436,244.82Z" transform="translate(-355.234 -202.602)" opacity="0.1"/>
    <path id="Tracé_850" data-name="Tracé 850" d="M366.969,157.14a2.1,2.1,0,0,0-.512-.948,10.04,10.04,0,0,0-3.83-3.361,5.3,5.3,0,0,0-6.042,1.721c-.574.773-.915,1.692-1.41,2.52a11.177,11.177,0,0,1-3.852,3.645c-.917.562-1.884,1.048-2.749,1.685a10.53,10.53,0,0,0-3.807,10.429c.348,1.678,1.086,3.333.886,5.037a8.919,8.919,0,0,1-1.571,3.631,11.482,11.482,0,0,0-1.759,3.555,3.548,3.548,0,0,0,1.088,3.612,9.038,9.038,0,0,1,1.211.82,3.936,3.936,0,0,1,.557.886,8.715,8.715,0,0,0,5.411,4.266c1.019.268,2.387.171,2.759-.815a2.133,2.133,0,0,1,.192-.5c.337-.474,1.078-.209,1.6.064a9.9,9.9,0,0,0,3.823,1.1,3.188,3.188,0,0,0,1.567-.187,2.894,2.894,0,0,0,1.055-.913A11.24,11.24,0,0,0,363.4,187.6a13.5,13.5,0,0,0-.017-3.982c-.4-2.1-1.68-4.063-1.491-6.191.2-2.275,2.048-4.136,2.33-6.4a4.88,4.88,0,0,0-.832-3.363,4.812,4.812,0,0,1-.633-.991.984.984,0,0,1,.19-1.088,1.659,1.659,0,0,1,.493-.237,4.1,4.1,0,0,0,2.446-3.674,8.161,8.161,0,0,1,.164-1.716C366.315,159.069,367.1,158.093,366.969,157.14Z" transform="translate(-283.683 -132.161)" opacity="0.1"/>
    <path id="Tracé_851" data-name="Tracé 851" d="M364.969,157.14a2.1,2.1,0,0,0-.512-.948,10.04,10.04,0,0,0-3.83-3.361,5.3,5.3,0,0,0-6.042,1.721c-.574.773-.915,1.692-1.41,2.52a11.177,11.177,0,0,1-3.852,3.645c-.917.562-1.884,1.048-2.749,1.685a10.53,10.53,0,0,0-3.806,10.429c.348,1.678,1.086,3.333.886,5.037a8.919,8.919,0,0,1-1.571,3.631,11.482,11.482,0,0,0-1.759,3.555,3.548,3.548,0,0,0,1.088,3.612,9.038,9.038,0,0,1,1.211.82,3.938,3.938,0,0,1,.557.886,8.715,8.715,0,0,0,5.411,4.266c1.019.268,2.387.171,2.759-.815a2.134,2.134,0,0,1,.192-.5c.337-.474,1.078-.209,1.6.064a9.9,9.9,0,0,0,3.823,1.1,3.188,3.188,0,0,0,1.567-.187,2.894,2.894,0,0,0,1.055-.913A11.24,11.24,0,0,0,361.4,187.6a13.5,13.5,0,0,0-.017-3.982c-.4-2.1-1.68-4.063-1.491-6.191.2-2.275,2.048-4.136,2.33-6.4a4.88,4.88,0,0,0-.832-3.363,4.811,4.811,0,0,1-.633-.991.984.984,0,0,1,.19-1.088,1.659,1.659,0,0,1,.493-.237,4.1,4.1,0,0,0,2.446-3.674,8.161,8.161,0,0,1,.164-1.716C364.315,159.069,365.1,158.093,364.969,157.14Z" transform="translate(-282.157 -132.161)" fill="#bb7684"/>
    <g id="Groupe_18" data-name="Groupe 18" transform="translate(67.045 20.327)" opacity="0.1">
      <path id="Tracé_852" data-name="Tracé 852" d="M379.743,323.853a2.235,2.235,0,0,0-.194.5,1.586,1.586,0,0,1-1.439.924,1.929,1.929,0,0,0,2.15-.924,2.236,2.236,0,0,1,.194-.5.593.593,0,0,1,.237-.2A.814.814,0,0,0,379.743,323.853Z" transform="translate(-378.11 -283.029)"/>
      <path id="Tracé_853" data-name="Tracé 853" d="M419.181,157.112a2.046,2.046,0,0,0-.512-.948,10.04,10.04,0,0,0-3.83-3.361,4.977,4.977,0,0,0-2.181-.327,4.84,4.84,0,0,1,1.47.327,10.04,10.04,0,0,1,3.83,3.361,2.046,2.046,0,0,1,.512.948c.135.948-.652,1.932-.913,2.809a7.432,7.432,0,0,0-.164,1.716,4.112,4.112,0,0,1-2.448,3.674,1.658,1.658,0,0,0-.493.237.984.984,0,0,0-.187,1.09,4.8,4.8,0,0,0,.63.991,4.876,4.876,0,0,1,.834,3.361c-.284,2.268-2.133,4.127-2.332,6.4-.19,2.133,1.09,4.091,1.491,6.189a13.587,13.587,0,0,1,.017,3.982,11.21,11.21,0,0,1-1.818,5.781,2.884,2.884,0,0,1-1.052.913,2.356,2.356,0,0,1-.775.192,3.065,3.065,0,0,0,1.486-.192,2.884,2.884,0,0,0,1.059-.9,11.211,11.211,0,0,0,1.818-5.781,13.505,13.505,0,0,0-.017-3.982c-.4-2.1-1.68-4.063-1.491-6.189.2-2.278,2.048-4.136,2.332-6.4a4.876,4.876,0,0,0-.834-3.361,4.8,4.8,0,0,1-.63-.991.984.984,0,0,1,.187-1.09,1.659,1.659,0,0,1,.493-.237,4.107,4.107,0,0,0,2.448-3.674,7.993,7.993,0,0,1,.164-1.716C418.529,159.043,419.316,158.067,419.181,157.112Z" transform="translate(-403.403 -152.462)"/>
    </g>
    <path id="Tracé_854" data-name="Tracé 854" d="M406.82,525a3.2,3.2,0,0,0,3.278.905" transform="translate(-332.97 -416.374)" opacity="0.1"/>
    <path id="Tracé_855" data-name="Tracé 855" d="M465.635,696a2.013,2.013,0,0,1-1.635.413" transform="translate(-376.597 -546.843)" opacity="0.1"/>
    <ellipse id="Ellipse_55" data-name="Ellipse 55" cx="6.383" cy="1.078" rx="6.383" ry="1.078" transform="translate(18.537 154.357)" fill="#6c63ff" opacity="0.1"/>
    <ellipse id="Ellipse_56" data-name="Ellipse 56" cx="6.383" cy="1.078" rx="6.383" ry="1.078" transform="translate(193.287 175.831)" fill="#6c63ff"/>
    <ellipse id="Ellipse_57" data-name="Ellipse 57" cx="6.383" cy="1.078" rx="6.383" ry="1.078" transform="translate(193.287 155.073)" fill="#6c63ff" opacity="0.1"/>
    <ellipse id="Ellipse_58" data-name="Ellipse 58" cx="6.383" cy="1.078" rx="6.383" ry="1.078" transform="translate(36.635 164.371)" fill="#6c63ff" opacity="0.1"/>
    <ellipse id="Ellipse_59" data-name="Ellipse 59" cx="9.531" cy="1.612" rx="9.531" ry="1.612" transform="translate(210.326 163.838)" fill="#6c63ff"/>
    <ellipse id="Ellipse_60" data-name="Ellipse 60" cx="21.512" cy="3.636" rx="21.512" ry="3.636" transform="translate(61.314 174.43)" fill="#6c63ff" opacity="0.1"/>
    <path id="Tracé_856" data-name="Tracé 856" d="M1011.079,739.482a2.779,2.779,0,0,0,.91-1.372,1.221,1.221,0,0,0-.635-1.4,1.78,1.78,0,0,0-1.678.59,2.241,2.241,0,0,1-1.633.787,2.481,2.481,0,0,0,.768-2.325.974.974,0,0,0-.213-.474c-.325-.346-.91-.2-1.3.076-1.232.867-1.576,2.541-1.583,4.048a7.619,7.619,0,0,1-.021-1.659,1.714,1.714,0,0,0-.626-1.477,1.914,1.914,0,0,0-.948-.237,1.983,1.983,0,0,0-1.55.441,1.525,1.525,0,0,0,.062,1.9,6.2,6.2,0,0,0,1.6,1.285,3.555,3.555,0,0,1,1.147,1.093,1.214,1.214,0,0,1,.085.194h3.472a9.646,9.646,0,0,0,2.14-1.469Z" transform="translate(-787.283 -576.668)" fill="#6c63ff"/>
    <path id="Tracé_857" data-name="Tracé 857" d="M925.912,788.072a2.775,2.775,0,0,0,.908-1.372,1.225,1.225,0,0,0-.635-1.4,1.78,1.78,0,0,0-1.678.59,2.241,2.241,0,0,1-1.633.787,2.481,2.481,0,0,0,.768-2.325.947.947,0,0,0-.213-.474c-.322-.346-.91-.2-1.3.076-1.233.867-1.576,2.541-1.583,4.048a7.462,7.462,0,0,1-.024-1.659,1.714,1.714,0,0,0-.626-1.477,1.9,1.9,0,0,0-.948-.225,1.983,1.983,0,0,0-1.55.441,1.524,1.524,0,0,0,.062,1.9,6.167,6.167,0,0,0,1.6,1.285,3.555,3.555,0,0,1,1.145,1.093,1.2,1.2,0,0,1,.085.194h3.472A9.719,9.719,0,0,0,925.912,788.072Z" transform="translate(-722.3 -613.741)" fill="#6c63ff"/>
    <path id="Tracé_858" data-name="Tracé 858" d="M303.021,595.791s-3.33-11.308.626-19.63a17.862,17.862,0,0,0,1.451-11.211,30,30,0,0,0-1.586-5.26" transform="translate(-252.773 -442.841)" fill="none" stroke="#fff" stroke-miterlimit="10" stroke-width="2"/>
    <path id="Tracé_859" data-name="Tracé 859" d="M303.5,529.172c0,1.387-2.51,5.4-2.51,5.4s-2.508-4.018-2.508-5.4a2.51,2.51,0,1,1,5.018,0Z" transform="translate(-250.313 -417.583)" fill="#6c63ff"/>
    <path id="Tracé_860" data-name="Tracé 860" d="M320.924,557.6c-.754,1.161-5.044,3.171-5.044,3.171s.078-4.74.832-5.9a2.51,2.51,0,0,1,4.212,2.728Z" transform="translate(-263.585 -438.339)" fill="#6c63ff"/>
    <path id="Tracé_861" data-name="Tracé 861" d="M317.226,610.043c-1.237.626-5.956.194-5.956.194s2.458-4.051,3.7-4.674a2.51,2.51,0,0,1,2.261,4.48Z" transform="translate(-260.067 -477.66)" fill="#6c63ff"/>
    <path id="Tracé_862" data-name="Tracé 862" d="M307.6,652.609c-1.114.823-5.838,1.185-5.838,1.185s1.74-4.409,2.844-5.233a2.51,2.51,0,0,1,2.984,4.029Z" transform="translate(-252.811 -510.326)" fill="#6c63ff"/>
    <path id="Tracé_863" data-name="Tracé 863" d="M291.33,570.679c1,.965,5.624,1.965,5.624,1.965s-1.133-4.6-2.133-5.565a2.51,2.51,0,0,0-3.5,3.6Z" transform="translate(-244.303 -447.971)" fill="#6c63ff"/>
    <path id="Tracé_864" data-name="Tracé 864" d="M278.124,618.085c1.237.623,5.954.192,5.954.192s-2.458-4.051-3.7-4.674a2.51,2.51,0,1,0-2.259,4.482Z" transform="translate(-233.724 -483.77)" fill="#6c63ff"/>
    <path id="Tracé_865" data-name="Tracé 865" d="M275.393,668.067c1.114.825,5.838,1.185,5.838,1.185s-1.74-4.409-2.844-5.231a2.51,2.51,0,0,0-2.984,4.029Z" transform="translate(-232 -522.122)" fill="#6c63ff"/>
    <path id="Tracé_866" data-name="Tracé 866" d="M274,696.27s4.055-.806,5.139-1.88,5.947-2.951,6.487-1.609,7.3,5.9,2.7,6.71-10.815,1.074-12.166.538S274,696.27,274,696.27Z" transform="translate(-231.631 -544.032)" fill="#a8a8a8"/>
    <path id="Tracé_867" data-name="Tracé 867" d="M288.337,711.6c-4.6.806-10.815,1.074-12.166.536-1.031-.408-1.747-2.37-2.029-3.287l-.142.036s.811,3.221,2.164,3.759,7.57.268,12.166-.538c1.327-.237,1.707-.777,1.564-1.47C289.788,711.08,289.326,711.429,288.337,711.6Z" transform="translate(-231.631 -556.648)" opacity="0.2"/>
    <path id="Tracé_868" data-name="Tracé 868" d="M931.631,659.91s1.3,1.7-.6,4.266-3.472,4.74-2.844,6.345c0,0,2.873-4.776,5.214-4.842S934.2,662.775,931.631,659.91Z" transform="translate(-730.655 -519.307)" fill="#6c63ff"/>
    <path id="Tracé_869" data-name="Tracé 869" d="M931.878,659.91a2.133,2.133,0,0,1,.268.536c2.28,2.678,3.494,5.179,1.3,5.241-2.041.059-4.489,3.709-5.077,4.631a2.214,2.214,0,0,0,.069.211s2.873-4.776,5.215-4.842S934.445,662.775,931.878,659.91Z" transform="translate(-730.902 -519.307)" opacity="0.1"/>
    <path id="Tracé_870" data-name="Tracé 870" d="M952.421,667.82c0,.6-.069,1.086-.152,1.086s-.149-.474-.149-1.086.083-.318.166-.318S952.421,667.221,952.421,667.82Z" transform="translate(-749.023 -525.047)" fill="#ffd037"/>
    <path id="Tracé_871" data-name="Tracé 871" d="M953.586,670.771c-.526.287-.986.46-1.024.386s.353-.363.879-.649.32-.078.36,0S954.112,670.484,953.586,670.771Z" transform="translate(-749.358 -527.281)" fill="#ffd037"/>
    <path id="Tracé_872" data-name="Tracé 872" d="M904.741,659.91s-1.3,1.7.6,4.266,3.472,4.74,2.844,6.345c0,0-2.87-4.776-5.214-4.842S902.169,662.775,904.741,659.91Z" transform="translate(-710.641 -519.307)" fill="#6c63ff"/>
    <path id="Tracé_873" data-name="Tracé 873" d="M904.724,659.91a2.137,2.137,0,0,0-.268.536c-2.28,2.678-3.494,5.179-1.3,5.241,2.041.059,4.489,3.709,5.077,4.631a1.666,1.666,0,0,1-.071.211s-2.87-4.776-5.214-4.842S902.152,662.775,904.724,659.91Z" transform="translate(-710.624 -519.307)" opacity="0.1"/>
    <path id="Tracé_874" data-name="Tracé 874" d="M903.94,667.82c0,.6.069,1.086.152,1.086s.149-.474.149-1.086-.083-.318-.166-.318S903.94,667.221,903.94,667.82Z" transform="translate(-712.262 -525.047)" fill="#ffd037"/>
    <path id="Tracé_875" data-name="Tracé 875" d="M899.407,670.771c.526.287.984.46,1.024.386s-.353-.363-.879-.649-.32-.078-.36,0S898.881,670.484,899.407,670.771Z" transform="translate(-708.559 -527.281)" fill="#ffd037"/>
    <path id="Tracé_876" data-name="Tracé 876" d="M905.69,697.428s3.641-.114,4.74-.894,5.6-1.714,5.873-.474,5.47,6.231,1.36,6.264-9.549-.64-10.645-1.306S905.69,697.428,905.69,697.428Z" transform="translate(-713.598 -546.429)" fill="#a8a8a8"/>
    <path id="Tracé_877" data-name="Tracé 877" d="M917.735,708.227c-4.11.033-9.55-.64-10.645-1.306-.834-.507-1.168-2.33-1.278-3.171h-.123s.237,2.937,1.327,3.6,6.535,1.339,10.645,1.306c1.185,0,1.6-.431,1.574-1.055C919.07,707.986,918.617,708.22,917.735,708.227Z" transform="translate(-713.598 -552.756)" opacity="0.2"/>
  </g>
</svg>
