<svg id="Groupe_22" data-name="Groupe 22" xmlns="http://www.w3.org/2000/svg" width="67.061" height="72.831" viewBox="0 0 67.061 72.831">
  <g id="tDt1CE.tif_1_" transform="translate(0 0)">
    <g id="Groupe_21" data-name="Groupe 21" transform="translate(0 0)">
      <path id="Tracé_1002" data-name="Tracé 1002" d="M0,42.214A21.537,21.537,0,0,0,5.949,57.345c4.7,4.905,9.553,9.668,14.369,14.463a3.225,3.225,0,0,0,4.738-.041c.824-.811,1.631-1.635,2.446-2.455Q39.074,57.673,50.646,46.038q7.731-7.768,15.462-15.531a3.041,3.041,0,0,0-.2-4.6c-1.333-1.158-3.054-1.015-4.457.387q-4.183,4.177-8.367,8.359c-2.263,2.255-4.522,4.51-6.8,6.752a1.618,1.618,0,0,1-2.43.135,1.668,1.668,0,0,1,.061-2.459c.135-.151.29-.289.432-.432Q55.154,27.767,65.961,16.877a3.183,3.183,0,0,0,.179-4.55,3.367,3.367,0,0,0-4.681.183q-7.272,7.284-14.552,14.556c-1.394,1.394-2.785,2.789-4.2,4.159a1.481,1.481,0,0,1-2.186.094,1.57,1.57,0,0,1-.281-2.267,5.366,5.366,0,0,1,.612-.681q7.8-7.835,15.617-15.67c1.68-1.684,3.38-3.348,5.023-5.068a3.13,3.13,0,0,0-1.256-5.317c-1.5-.55-2.557.269-3.515,1.223q-9.9,9.847-19.788,19.714A6.4,6.4,0,0,1,35.7,24.31a1.488,1.488,0,0,1-2.014-.383,1.56,1.56,0,0,1-.086-2.059,7.19,7.19,0,0,1,.844-.885q7.719-7.774,15.441-15.543c1.464-1.476,1.537-3.172.236-4.506a3.2,3.2,0,0,0-4.64.114Q38.242,8.222,31.009,15.4q-3.615,3.59-7.221,7.2a1.751,1.751,0,0,1-1.908.628c-1.317-.453-1.549-1.859-.477-2.936,2.658-2.675,5.333-5.333,7.98-8.024A3.129,3.129,0,0,0,29.4,7.715a3.081,3.081,0,0,0-4.534.163Q23.531,9.211,22.2,10.548c-4.934,4.917-9.806,9.9-14.822,14.728A22.97,22.97,0,0,0,0,42.214Z" transform="translate(0 0.007)" fill="#ff7590"/>
    </g>
  </g>
  <path id="Tracé_1003" data-name="Tracé 1003" d="M33.33,73l.42-.049a13.6,13.6,0,0,1,7.017.55,12.649,12.649,0,0,1,8.049,8.771,14.587,14.587,0,0,1,.151,6.528c-.938,3.376-3.217,5.81-5.668,8.147-2.112,2.014-4.159,4.1-6.2,6.181-.493.506-.771.636-1.35.053-3.095-3.14-6.365-6.12-9.341-9.366-2.94-3.213-3.511-7.189-2.5-11.315a12.691,12.691,0,0,1,8.408-9.178A1.615,1.615,0,0,0,33.33,73Z" transform="translate(-13.888 -43.484)" fill="#fff"/>
</svg>
