<svg xmlns="http://www.w3.org/2000/svg" xmlns:xlink="http://www.w3.org/1999/xlink" width="1000" height="600" viewBox="0 0 1000 600">
  <defs>
    <clipPath id="clip-path">
      <rect id="Rectangle_385" data-name="Rectangle 385" width="289" height="289" transform="translate(341.578 85.578)" fill="#fff"/>
    </clipPath>
    <clipPath id="clip-pharmacieC">
      <rect width="1000" height="600"/>
    </clipPath>
  </defs>
  <g id="pharmacieC" clip-path="url(#clip-pharmacieC)">
    <rect width="1000" height="600" fill="#fff"/>
    <rect id="Rectangle_384" data-name="Rectangle 384" width="1000" height="600" fill="#88f0c8"/>
    <g id="Groupe_de_masques_24" data-name="Groupe de masques 24" transform="translate(14.422 14.422)" clip-path="url(#clip-path)">
      <path id="hospital-sign" d="M278.682,89.736h-80.26V9.477A9.476,9.476,0,0,0,188.946,0H99.21a9.476,9.476,0,0,0-9.476,9.475V89.736H9.475A9.476,9.476,0,0,0,0,99.211v89.742a9.476,9.476,0,0,0,9.475,9.475H89.734v80.252a9.476,9.476,0,0,0,9.476,9.475h89.736a9.476,9.476,0,0,0,9.475-9.475V198.428h80.26a9.476,9.476,0,0,0,9.476-9.475V99.211A9.474,9.474,0,0,0,278.682,89.736Zm-9.475,89.742h-80.26a9.476,9.476,0,0,0-9.475,9.475v80.252H108.685V188.953a9.476,9.476,0,0,0-9.475-9.475H18.951V108.687H99.21a9.476,9.476,0,0,0,9.475-9.476V18.952H179.47V99.211a9.476,9.476,0,0,0,9.476,9.476h80.26v70.791Z" transform="translate(342 85.999)" fill="#fff"/>
    </g>
    <g id="pharmacies" transform="translate(840.082 -320.142)" style="isolation: isolate">
      <g id="Groupe_173" data-name="Groupe 173" style="isolation: isolate">
        <path id="Tracé_1535" data-name="Tracé 1535" d="M-447.606,785.97v6.93c0,6.175-3.4,9.325-10.081,9.325h-6.993v18.523h-3.4v-44.1h10.395C-451.008,776.646-447.606,779.8-447.606,785.97Zm-3.4,1.134c0-5.229-1.953-7.308-6.93-7.308h-6.742v19.279h6.742c4.977,0,6.93-2.079,6.93-7.308Z" fill="#fff"/>
        <path id="Tracé_1536" data-name="Tracé 1536" d="M-437.527,776.646v20.1h14.176v-20.1h3.4v44.1h-3.4V799.894h-14.176v20.854h-3.4v-44.1Z" fill="#fff"/>
        <path id="Tracé_1537" data-name="Tracé 1537" d="M-396.576,809.407h-11.845l-2.457,11.341h-3.4l9.828-44.1h3.907l9.954,44.1h-3.528Zm-.694-3.087L-402.5,782l-5.229,24.319Z" fill="#fff"/>
        <path id="Tracé_1538" data-name="Tracé 1538" d="M-366.588,820.748l-7.245-19.027h-7.687v19.027h-3.4v-44.1h10.395c6.679,0,10.081,3.15,10.081,9.324V792.4c0,4.789-2.016,7.75-6.049,8.821l7.561,19.531Zm-1.26-29.423V787.1c0-5.229-1.953-7.308-6.931-7.308h-6.741v18.838h6.741C-369.8,798.634-367.848,796.491-367.848,791.325Z" fill="#fff"/>
        <path id="Tracé_1539" data-name="Tracé 1539" d="M-341.011,813.313h-1.953L-353.3,785.277v35.471h-3.213v-44.1h3.339l11.088,30.556,11.215-30.556h3.529v44.1h-3.4V785.277Z" fill="#fff"/>
        <path id="Tracé_1540" data-name="Tracé 1540" d="M-303.968,809.407h-11.845l-2.458,11.341h-3.4l9.828-44.1h3.906l9.955,44.1h-3.528Zm-.694-3.087L-309.891,782l-5.229,24.319Z" fill="#fff"/>
        <path id="Tracé_1541" data-name="Tracé 1541" d="M-272.845,811.928c0,6.3-3.4,9.324-10.081,9.324h-.126c-6.678,0-10.08-2.961-10.08-9.324V785.466c0-6.048,3.4-9.324,10.08-9.324h.126c6.678,0,10.081,3.276,10.081,9.324v7.56h-3.4V786.6c0-5.167-1.827-7.309-6.741-7.309s-6.741,2.142-6.741,7.309v24.193c0,5.166,1.827,7.308,6.741,7.308s6.741-2.142,6.741-7.308v-7.5h3.4Z" fill="#fff"/>
        <path id="Tracé_1542" data-name="Tracé 1542" d="M-264.784,820.748v-44.1h3.4v44.1Z" fill="#fff"/>
        <path id="Tracé_1543" data-name="Tracé 1543" d="M-252.751,820.748v-44.1h17.326v3.15h-13.924v17.011h11.971v3.15h-11.971V817.6h14.113v3.15Z" fill="#fff"/>
        <path id="Tracé_1544" data-name="Tracé 1544" d="M-213.438,791.893v-5.671c0-4.851-1.765-6.993-6.49-6.993s-6.489,2.142-6.489,6.993v3.088c0,3.276,1.134,4.158,4.473,5.921l6.741,3.718c3.087,1.638,5.293,4.1,5.293,7.434v5.671c0,6.3-3.214,9.2-9.892,9.2h-.126c-6.678,0-9.891-2.835-9.891-9.2v-7.183h3.4v6.175c0,4.788,1.764,7.119,6.552,7.119s6.552-2.331,6.552-7.119v-3.528c0-3.277-1.323-4.411-4.662-6.3l-6.615-3.591c-3.655-2.079-5.229-3.78-5.229-7.309v-5.1c0-6.048,3.78-9.072,9.828-9.072h.126c6.049,0,9.828,3.024,9.828,9.072v6.679Z" fill="#fff"/>
      </g>
    </g>
  </g>
</svg>
