<svg xmlns="http://www.w3.org/2000/svg" width="676" height="676" viewBox="0 0 676 676">
  <g id="Groupe_124" data-name="Groupe 124" transform="translate(6146 -11627)">
    <g id="avatarFemale" transform="translate(-6146 11627)">
      <path id="Tracé_1341" data-name="Tracé 1341" d="M938,450c0,120.33-62.88,225.98-157.58,285.87q-13.26,8.4-27.34,15.55c-2.12,1.09-4.25,2.14-6.4,3.17-1.77.86-3.56,1.7-5.35,2.53a334.831,334.831,0,0,1-57.78,20.47c-1.29.33-2.59.65-3.89.96-.97.24-1.95.47-2.93.69a2.494,2.494,0,0,1-.37.09c-2.01.47-4.02.92-6.05,1.33-1.14.24-2.28.48-3.42.71-.69.15-1.39.28-2.08.41-.87.17-1.73.33-2.6.5-.48.1-.96.18-1.45.26-1.1.2-2.2.4-3.29.59-1.86.32-3.74.63-5.61.91-1.36.21-2.71.41-4.07.6-1.6.23-3.2.44-4.81.64-.44.07-.88.12-1.32.17l-1.71.21c-1.74.21-3.5.4-5.25.58q-1.71.18-3.42.33c-1.47.14-2.94.26-4.42.38-1.8.14-3.59.27-5.4.38-1.16.07-2.32.14-3.49.2-2.98.16-5.96.27-8.96.35-1.49.04-2.99.07-4.49.09h-.03c-1.49.02-2.99.03-4.49.03A337.827,337.827,0,0,1,262,450c0-186.67,151.33-338,338-338S938,263.33,938,450Z" transform="translate(-262 -112)" fill="#6c63ff"/>
      <path id="Tracé_1351" data-name="Tracé 1351" d="M701.96,648.27l1.22.63C703.06,650.2,702.77,651,701.96,648.27Z" transform="translate(-262 -112)" fill="#2f2e41"/>
      <path id="Tracé_1352" data-name="Tracé 1352" d="M703.57,648.69c.01.14.03.29.04.43l-.43-.22c.01-.13.02-.27.04-.41C703.32,646.74,703.2,644.67,703.57,648.69Z" transform="translate(-262 -112)" fill="#2f2e41"/>
    </g>
    <g id="photo" transform="translate(-5995 11755)" opacity="0.455">
      <g id="Groupe_123" data-name="Groupe 123">
        <g id="Groupe_122" data-name="Groupe 122">
          <circle id="Ellipse_207" data-name="Ellipse 207" cx="28.8" cy="28.8" r="28.8" transform="translate(129.2 115.6)"/>
          <path id="Tracé_1443" data-name="Tracé 1443" d="M394.4,250.4a88.689,88.689,0,0,0-49.6-23.6V80.4a57.588,57.588,0,0,0-16.4-40,55.891,55.891,0,0,0-40-16.4H56.4a57.588,57.588,0,0,0-40,16.4A55.891,55.891,0,0,0,0,80.4V319.2a57.588,57.588,0,0,0,16.4,40,55.891,55.891,0,0,0,40,16.4H280.8c14.8,12,33.2,19.6,53.6,19.6a84.853,84.853,0,0,0,60-144.8ZM21.2,80.4A33.482,33.482,0,0,1,31.6,56,35.1,35.1,0,0,1,56.4,45.6h232a35.512,35.512,0,0,1,35.2,35.2V205.6l-59.2-59.2a10.741,10.741,0,0,0-15.2,0L160,236,99.6,175.2a10.741,10.741,0,0,0-15.2,0l-63.2,64ZM56,355.2v-.8A35.1,35.1,0,0,1,31.2,344a36.506,36.506,0,0,1-10-24.8V269.6L92,198.4l60.4,60.4c4,4,10.8,4,15.2,0l89.2-89.6L315.2,228l-3.6,1.2a37.15,37.15,0,0,0-5.2,1.6c-1.6.4-3.2,1.2-4.8,1.6a11.976,11.976,0,0,0-3.2,1.6,37.168,37.168,0,0,0-4,2l-6,3.6c-1.2.8-2,1.2-3.2,2-.8.4-1.2.8-2,1.2a48.259,48.259,0,0,0-9.6,8.4,84.619,84.619,0,0,0-24.8,60,87.937,87.937,0,0,0,2,17.6c.4,1.6.8,2.8,1.2,4.4,1.2,4,2.4,8,4,12v.4a73.372,73.372,0,0,0,5.2,9.6Zm322.8,0a63.276,63.276,0,0,1-88.4.8c-1.6-1.6-3.2-3.6-4.8-5.2-1.2-1.2-2.4-2.8-3.6-4a37.984,37.984,0,0,1-4-6.8c-.8-1.6-1.6-2.8-2.4-4.4a33.788,33.788,0,0,1-2-6.8c-.4-1.6-1.2-3.6-1.6-5.2a66.205,66.205,0,0,1-1.2-12.8A64.2,64.2,0,0,1,289.2,266c11.2-11.6,27.2-18.4,44.8-18.4A64.2,64.2,0,0,1,378.8,266a62.521,62.521,0,0,1,18.4,44.8A63.975,63.975,0,0,1,378.8,355.2Z"/>
          <path id="Tracé_1444" data-name="Tracé 1444" d="M341.6,267.6a13.96,13.96,0,0,0-3.6-2.4,11.68,11.68,0,0,0-3.6-.8h-.8a11.68,11.68,0,0,0-3.6.8,9.445,9.445,0,0,0-3.6,2.4l-24.8,24.8c-4,4-4,10.8,0,15.2,4,4,10.8,4,15.2,0l6.4-6.4v44a10.8,10.8,0,1,0,21.6,0v-44l6.4,6.4c4,4,10.8,4,15.2,0,4-4,4-10.8,0-15.2Z"/>
        </g>
      </g>
    </g>
  </g>
</svg>
