<svg xmlns="http://www.w3.org/2000/svg" xmlns:xlink="http://www.w3.org/1999/xlink" width="1000" height="600" viewBox="0 0 1000 600">
  <defs>
    <clipPath id="clip-path">
      <rect id="Rectangle_383" data-name="Rectangle 383" width="279" height="279" transform="translate(-9625 3963)" fill="#fff"/>
    </clipPath>
    <clipPath id="clip-restaurantC">
      <rect width="1000" height="600"/>
    </clipPath>
  </defs>
  <g id="restaurantC" clip-path="url(#clip-restaurantC)">
    <rect width="1000" height="600" fill="#ffb05d"/>
    <g id="Restaurants" transform="translate(838.909 -321.142)" style="isolation: isolate">
      <g id="Groupe_165" data-name="Groupe 165" style="isolation: isolate">
        <path id="Tracé_1507" data-name="Tracé 1507" d="M-459.575,820.748l-7.245-19.027h-7.687v19.027h-3.4v-44.1h10.395c6.679,0,10.081,3.15,10.081,9.324V792.4c0,4.789-2.016,7.75-6.048,8.821l7.56,19.531Zm-1.26-29.423V787.1c0-5.229-1.953-7.308-6.931-7.308h-6.741v18.838h6.741C-462.788,798.634-460.835,796.491-460.835,791.325Z" fill="#fff"/>
        <path id="Tracé_1508" data-name="Tracé 1508" d="M-449.5,820.748v-44.1h17.326v3.15H-446.1v17.011h11.971v3.15H-446.1V817.6h14.113v3.15Z" fill="#fff"/>
        <path id="Tracé_1509" data-name="Tracé 1509" d="M-410.185,791.893v-5.671c0-4.851-1.764-6.993-6.489-6.993s-6.49,2.142-6.49,6.993v3.088c0,3.276,1.135,4.158,4.474,5.921l6.741,3.718c3.087,1.638,5.293,4.1,5.293,7.434v5.671c0,6.3-3.214,9.2-9.892,9.2h-.126c-6.679,0-9.891-2.835-9.891-9.2v-7.183h3.4v6.175c0,4.788,1.765,7.119,6.553,7.119s6.552-2.331,6.552-7.119v-3.528c0-3.277-1.323-4.411-4.662-6.3l-6.615-3.591c-3.655-2.079-5.229-3.78-5.229-7.309v-5.1c0-6.048,3.78-9.072,9.828-9.072h.126c6.048,0,9.828,3.024,9.828,9.072v6.679Z" fill="#fff"/>
        <path id="Tracé_1510" data-name="Tracé 1510" d="M-382.591,779.8h-8.316v40.952h-3.4V779.8h-8.316v-3.15h20.034Z" fill="#fff"/>
        <path id="Tracé_1511" data-name="Tracé 1511" d="M-365.329,809.407h-11.844l-2.458,11.341h-3.4l9.829-44.1h3.906l9.954,44.1h-3.528Zm-.693-3.087L-371.251,782l-5.229,24.319Z" fill="#fff"/>
        <path id="Tracé_1512" data-name="Tracé 1512" d="M-334.018,811.928c0,6.3-3.276,9.324-9.954,9.324h-.252c-6.678,0-9.955-2.961-9.955-9.324V776.646h3.4v34.148c0,5.228,1.7,7.308,6.678,7.308s6.678-2.08,6.678-7.308V776.646h3.4Z" fill="#fff"/>
        <path id="Tracé_1513" data-name="Tracé 1513" d="M-307.495,820.748l-7.245-19.027h-7.687v19.027h-3.4v-44.1h10.4c6.679,0,10.081,3.15,10.081,9.324V792.4c0,4.789-2.016,7.75-6.048,8.821l7.56,19.531Zm-1.26-29.423V787.1c0-5.229-1.953-7.308-6.931-7.308h-6.741v18.838h6.741C-310.708,798.634-308.755,796.491-308.755,791.325Z" fill="#fff"/>
        <path id="Tracé_1514" data-name="Tracé 1514" d="M-282.358,809.407H-294.2l-2.458,11.341h-3.4l9.829-44.1h3.906l9.955,44.1H-279.9Zm-.694-3.087L-288.281,782l-5.229,24.319Z" fill="#fff"/>
        <path id="Tracé_1515" data-name="Tracé 1515" d="M-270.7,820.748v-44.1h3.528l14.428,36.038V776.646h3.276v44.1h-3.339l-14.617-36.29v36.29Z" fill="#fff"/>
        <path id="Tracé_1516" data-name="Tracé 1516" d="M-224.147,779.8h-8.317v40.952h-3.4V779.8h-8.316v-3.15h20.035Z" fill="#fff"/>
        <path id="Tracé_1517" data-name="Tracé 1517" d="M-203.61,791.893v-5.671c0-4.851-1.764-6.993-6.489-6.993s-6.49,2.142-6.49,6.993v3.088c0,3.276,1.134,4.158,4.474,5.921l6.741,3.718c3.087,1.638,5.292,4.1,5.292,7.434v5.671c0,6.3-3.213,9.2-9.891,9.2h-.126c-6.679,0-9.892-2.835-9.892-9.2v-7.183h3.4v6.175c0,4.788,1.764,7.119,6.553,7.119s6.552-2.331,6.552-7.119v-3.528c0-3.277-1.323-4.411-4.662-6.3l-6.616-3.591c-3.654-2.079-5.229-3.78-5.229-7.309v-5.1c0-6.048,3.78-9.072,9.829-9.072h.126c6.048,0,9.828,3.024,9.828,9.072v6.679Z" fill="#fff"/>
      </g>
    </g>
    <g id="Groupe_de_masques_22" data-name="Groupe de masques 22" transform="translate(9986 -3858)" clip-path="url(#clip-path)">
      <g id="restaurant" transform="translate(-9624.917 3963)">
        <g id="Groupe_167" data-name="Groupe 167" transform="translate(15.521)">
          <g id="Groupe_166" data-name="Groupe 166">
            <path id="Tracé_1518" data-name="Tracé 1518" d="M273.868,237.218l-109.4-109.4L36.65,0H26.661l-2.04,5.183c-5.383,13.68-7.683,27.671-6.651,40.46,1.177,14.578,6.715,27.2,16.016,36.5l99.781,99.78,13.161-13.161,92.247,103.15a24.532,24.532,0,0,0,34.692-34.693Z" transform="translate(-17.73)" fill="#fff"/>
          </g>
        </g>
        <g id="Groupe_169" data-name="Groupe 169" transform="translate(0 158.813)">
          <g id="Groupe_168" data-name="Groupe 168">
            <path id="Tracé_1519" data-name="Tracé 1519" d="M85.416,180.443,7.268,258.591A24.531,24.531,0,0,0,41.96,293.283l78.148-78.148Z" transform="translate(-0.095 -180.443)" fill="#fff"/>
          </g>
        </g>
        <g id="Groupe_171" data-name="Groupe 171" transform="translate(149.418 0.197)">
          <g id="Groupe_170" data-name="Groupe 170">
            <path id="Tracé_1520" data-name="Tracé 1520" d="M287.511,46.481,243.182,90.81,231.617,79.246l44.33-44.33L264.382,23.352,220.053,67.681,208.489,56.117l44.33-44.329L241.255.224,183.433,58.045a40.816,40.816,0,0,0-11.895,26.448,23.559,23.559,0,0,1-1.675,7.383l37.561,37.561a23.533,23.533,0,0,1,7.383-1.676,40.808,40.808,0,0,0,26.448-11.894l57.822-57.821Z" transform="translate(-169.863 -0.224)" fill="#fff"/>
          </g>
        </g>
      </g>
    </g>
  </g>
</svg>
