<svg xmlns="http://www.w3.org/2000/svg" xmlns:xlink="http://www.w3.org/1999/xlink" width="676" height="676" viewBox="0 0 676 676">
  <defs>
    <clipPath id="clip-path">
      <rect id="Rectangle_370" data-name="Rectangle 370" width="325" height="325" transform="translate(-8162 8336)" fill="#fff"/>
    </clipPath>
  </defs>
  <g id="Groupe_148" data-name="Groupe 148" transform="translate(8338 -8160)">
    <g id="Groupe_131" data-name="Groupe 131" transform="translate(-150 2443)">
      <g id="Groupe_125" data-name="Groupe 125" transform="translate(-2042 -5910)">
        <g id="avatarFemale" transform="translate(-6146 11627)">
          <path id="Tracé_1341" data-name="Tracé 1341" d="M938,450c0,120.33-62.88,225.98-157.58,285.87q-13.26,8.4-27.34,15.55c-2.12,1.09-4.25,2.14-6.4,3.17-1.77.86-3.56,1.7-5.35,2.53a334.831,334.831,0,0,1-57.78,20.47c-1.29.33-2.59.65-3.89.96-.97.24-1.95.47-2.93.69a2.494,2.494,0,0,1-.37.09c-2.01.47-4.02.92-6.05,1.33-1.14.24-2.28.48-3.42.71-.69.15-1.39.28-2.08.41-.87.17-1.73.33-2.6.5-.48.1-.96.18-1.45.26-1.1.2-2.2.4-3.29.59-1.86.32-3.74.63-5.61.91-1.36.21-2.71.41-4.07.6-1.6.23-3.2.44-4.81.64-.44.07-.88.12-1.32.17l-1.71.21c-1.74.21-3.5.4-5.25.58q-1.71.18-3.42.33c-1.47.14-2.94.26-4.42.38-1.8.14-3.59.27-5.4.38-1.16.07-2.32.14-3.49.2-2.98.16-5.96.27-8.96.35-1.49.04-2.99.07-4.49.09h-.03c-1.49.02-2.99.03-4.49.03A337.827,337.827,0,0,1,262,450c0-186.67,151.33-338,338-338S938,263.33,938,450Z" transform="translate(-262 -112)" fill="#f8be84"/>
          <path id="Tracé_1351" data-name="Tracé 1351" d="M701.96,648.27l1.22.63C703.06,650.2,702.77,651,701.96,648.27Z" transform="translate(-262 -112)" fill="#2f2e41"/>
          <path id="Tracé_1352" data-name="Tracé 1352" d="M703.57,648.69c.01.14.03.29.04.43l-.43-.22c.01-.13.02-.27.04-.41C703.32,646.74,703.2,644.67,703.57,648.69Z" transform="translate(-262 -112)" fill="#2f2e41"/>
        </g>
      </g>
      <g id="avatarFemale-2" data-name="avatarFemale" transform="translate(-8141.772 5763.228)" opacity="0.804">
        <path id="Tracé_1341-2" data-name="Tracé 1341" d="M845.545,403.772c0,103.873-54.28,195.073-136.028,246.772q-11.446,7.251-23.6,13.423c-1.83.941-3.669,1.847-5.525,2.736-1.528.742-3.073,1.467-4.618,2.184a289.038,289.038,0,0,1-49.878,17.67c-1.114.285-2.236.561-3.358.829-.837.207-1.683.406-2.529.6a2.149,2.149,0,0,1-.319.078c-1.735.406-3.47.794-5.222,1.148-.984.207-1.968.414-2.952.613-.6.13-1.2.242-1.8.354-.751.147-1.493.285-2.244.432-.414.086-.829.155-1.252.224-.95.173-1.9.345-2.84.509-1.606.276-3.229.544-4.843.786-1.174.181-2.339.354-3.513.518-1.381.2-2.762.38-4.152.553-.38.06-.76.1-1.14.147l-1.476.181c-1.5.181-3.021.345-4.532.5q-1.476.155-2.952.285c-1.269.121-2.538.224-3.815.328-1.554.121-3.1.233-4.661.328-1,.06-2,.121-3.013.173-2.572.138-5.145.233-7.735.3-1.286.034-2.581.06-3.876.078h-.026c-1.286.017-2.581.026-3.876.026A291.623,291.623,0,0,1,262,403.772C262,242.633,392.633,112,553.772,112S845.545,242.633,845.545,403.772Z" transform="translate(-262 -112)" fill="none" stroke="#fff" stroke-width="15"/>
      </g>
    </g>
    <g id="Groupe_de_masques_12" data-name="Groupe de masques 12" clip-path="url(#clip-path)">
      <g id="restaurant" transform="translate(-8162 8336)">
        <g id="Groupe_135" data-name="Groupe 135">
          <g id="Groupe_134" data-name="Groupe 134">
            <path id="Tracé_1450" data-name="Tracé 1450" d="M316.546,276.33,189.107,148.89,40.217,0H28.581L26.2,6.037c-6.271,15.935-8.95,32.233-7.747,47.131,1.371,16.981,7.822,31.683,18.657,42.518L153.346,211.917l15.331-15.331L276.133,316.743a28.576,28.576,0,1,0,40.412-40.414Z" fill="#fff"/>
          </g>
        </g>
        <g id="Groupe_137" data-name="Groupe 137">
          <g id="Groupe_136" data-name="Groupe 136">
            <path id="Tracé_1451" data-name="Tracé 1451" d="M99.485,185,8.453,276.029a28.576,28.576,0,1,0,40.412,40.412L139.9,225.409Z" fill="#fff"/>
          </g>
        </g>
        <g id="Groupe_139" data-name="Groupe 139">
          <g id="Groupe_138" data-name="Groupe 138">
            <path id="Tracé_1452" data-name="Tracé 1452" d="M311.2,54.113l-51.639,51.638L246.085,92.28l51.639-51.639L284.253,27.17,232.615,78.809,219.144,65.338,270.782,13.7,257.312.229,189.957,67.584A47.546,47.546,0,0,0,176.1,98.392a27.443,27.443,0,0,1-1.951,8.6L217.9,150.746a27.412,27.412,0,0,1,8.6-1.952,47.536,47.536,0,0,0,30.808-13.855l67.355-67.354Z" fill="#fff"/>
          </g>
        </g>
      </g>
    </g>
  </g>
</svg>
