<svg xmlns="http://www.w3.org/2000/svg" width="676" height="676" viewBox="0 0 676 676">
  <g id="Groupe_121" data-name="Groupe 121" transform="translate(6146 -11627)">
    <g id="avatarFemale" transform="translate(-6146 11627)">
      <path id="Tracé_1341" data-name="Tracé 1341" d="M938,450c0,120.33-62.88,225.98-157.58,285.87q-13.26,8.4-27.34,15.55c-2.12,1.09-4.25,2.14-6.4,3.17-1.77.86-3.56,1.7-5.35,2.53a334.831,334.831,0,0,1-57.78,20.47c-1.29.33-2.59.65-3.89.96-.97.24-1.95.47-2.93.69a2.494,2.494,0,0,1-.37.09c-2.01.47-4.02.92-6.05,1.33-1.14.24-2.28.48-3.42.71-.69.15-1.39.28-2.08.41-.87.17-1.73.33-2.6.5-.48.1-.96.18-1.45.26-1.1.2-2.2.4-3.29.59-1.86.32-3.74.63-5.61.91-1.36.21-2.71.41-4.07.6-1.6.23-3.2.44-4.81.64-.44.07-.88.12-1.32.17l-1.71.21c-1.74.21-3.5.4-5.25.58q-1.71.18-3.42.33c-1.47.14-2.94.26-4.42.38-1.8.14-3.59.27-5.4.38-1.16.07-2.32.14-3.49.2-2.98.16-5.96.27-8.96.35-1.49.04-2.99.07-4.49.09h-.03c-1.49.02-2.99.03-4.49.03A337.827,337.827,0,0,1,262,450c0-186.67,151.33-338,338-338S938,263.33,938,450Z" transform="translate(-262 -112)" fill="#6c63ff"/>
      <path id="Tracé_1351" data-name="Tracé 1351" d="M701.96,648.27l1.22.63C703.06,650.2,702.77,651,701.96,648.27Z" transform="translate(-262 -112)" fill="#2f2e41"/>
      <path id="Tracé_1352" data-name="Tracé 1352" d="M703.57,648.69c.01.14.03.29.04.43l-.43-.22c.01-.13.02-.27.04-.41C703.32,646.74,703.2,644.67,703.57,648.69Z" transform="translate(-262 -112)" fill="#2f2e41"/>
    </g>
    <g id="store" transform="translate(-6051.561 11719.006)">
      <rect id="Rectangle_360" data-name="Rectangle 360" width="411.836" height="259.306" transform="translate(37.642 177.254)" fill="#ffedb1"/>
      <path id="Tracé_1433" data-name="Tracé 1433" d="M39.565,245.339a81.413,81.413,0,0,0,28.6,5.249,82.36,82.36,0,0,0,59.106-25.22,81.872,81.872,0,0,0,118.212,0,81.872,81.872,0,0,0,118.213,0,82.362,82.362,0,0,0,59.106,25.22,81.409,81.409,0,0,0,28.6-5.249V183.855H39.565Z" transform="translate(-1.923 -6.597)" fill="#ffe17d"/>
      <path id="Tracé_1434" data-name="Tracé 1434" d="M480.35,162.37a59.116,59.116,0,0,1-112.589,25.2,6.147,6.147,0,0,0-11.247,0,59.13,59.13,0,0,1-106.965,0,6.147,6.147,0,0,0-11.247,0,59.13,59.13,0,0,1-106.965,0,6.147,6.147,0,0,0-11.247,0A59.116,59.116,0,0,1,7.5,162.37L64.121,63.282A15.254,15.254,0,0,1,77.365,55.6h333.12a15.255,15.255,0,0,1,13.244,7.685Z" transform="translate(-0.365 -0.364)" fill="#dc4655"/>
      <path id="Tracé_1435" data-name="Tracé 1435" d="M410.485,55.6H77.365a15.255,15.255,0,0,0-13.244,7.685L7.5,162.37H480.35L423.729,63.282A15.255,15.255,0,0,0,410.485,55.6Z" transform="translate(-0.364 -0.364)" fill="#e6646e"/>
      <g id="Groupe_119" data-name="Groupe 119" transform="translate(75.77 253.528)">
        <rect id="Rectangle_361" data-name="Rectangle 361" width="91.516" height="183.041" transform="translate(244.055)" fill="#fff"/>
        <rect id="Rectangle_362" data-name="Rectangle 362" width="205.923" height="144.909" fill="#fff"/>
      </g>
      <g id="Groupe_120" data-name="Groupe 120" transform="translate(98.655 276.405)">
        <path id="Tracé_1436" data-name="Tracé 1436" d="M188.9,288.065h-85.2v85.2Z" transform="translate(-103.694 -288.065)" fill="#fff6d8"/>
        <path id="Tracé_1437" data-name="Tracé 1437" d="M117.309,387.209h25.179l99.146-99.144H216.455Z" transform="translate(-104.356 -288.065)" fill="#fff6d8"/>
        <path id="Tracé_1438" data-name="Tracé 1438" d="M268.137,312.112l-76.266,76.266h76.266Z" transform="translate(-107.979 -289.233)" fill="#fff6d8"/>
        <path id="Tracé_1439" data-name="Tracé 1439" d="M405.969,301.467v-13.4H360.21v59.16Z" transform="translate(-116.159 -288.065)" fill="#fff6d8"/>
        <path id="Tracé_1440" data-name="Tracé 1440" d="M360.21,381.921v7.626h45.759V336.161Z" transform="translate(-116.159 -290.402)" fill="#fff6d8"/>
      </g>
      <path id="Tracé_1441" data-name="Tracé 1441" d="M464.733,429.427h-8.117V217.737a66.231,66.231,0,0,0,30.506-55.732,7.141,7.141,0,0,0-.94-3.54L429.56,59.378A22.441,22.441,0,0,0,410.121,48.1H77A22.439,22.439,0,0,0,57.561,59.378L.94,158.465a7.138,7.138,0,0,0-.94,3.54,66.231,66.231,0,0,0,30.506,55.732V429.428H22.389a7.136,7.136,0,1,0,0,14.271H464.733a7.136,7.136,0,0,0,0-14.272ZM14.763,169.141H37.639a7.136,7.136,0,1,0,0-14.271H19.432L69.952,66.458A8.136,8.136,0,0,1,77,62.368h333.12a8.134,8.134,0,0,1,7.048,4.09l50.52,88.412H449.478a7.136,7.136,0,0,0,0,14.271h22.879a51.965,51.965,0,0,1-102.947,0h49.565a7.136,7.136,0,0,0,0-14.271H68.15a7.136,7.136,0,1,0,0,14.271h49.56a51.965,51.965,0,0,1-102.947,0Zm339.372,0a51.959,51.959,0,0,1-102.937,0Zm-118.212,0a51.959,51.959,0,0,1-102.937,0ZM44.777,224.657A66.174,66.174,0,0,0,125.348,191.9a66.229,66.229,0,0,0,118.213,0,66.229,66.229,0,0,0,118.212,0,66.177,66.177,0,0,0,80.571,32.762v204.77H418.482v-175.9a7.135,7.135,0,0,0-7.136-7.136H319.827a7.135,7.135,0,0,0-7.136,7.136v175.9H44.777ZM404.21,391.295H326.962V260.66H404.21Zm-77.248,14.271H404.21v23.862H326.962Z" transform="translate(0)"/>
      <path id="Tracé_1442" data-name="Tracé 1442" d="M285.2,256.516H79.281a7.136,7.136,0,0,0-7.136,7.136V408.558a7.136,7.136,0,0,0,7.136,7.136H285.2a7.135,7.135,0,0,0,7.136-7.136V263.652A7.135,7.135,0,0,0,285.2,256.516Zm-7.136,144.906H86.416V270.787H278.064Z" transform="translate(-3.506 -10.127)"/>
    </g>
  </g>
</svg>
