<svg xmlns="http://www.w3.org/2000/svg" xmlns:xlink="http://www.w3.org/1999/xlink" width="228" height="228" viewBox="0 0 228 228">
  <defs>
    <clipPath id="clip-path">
      <rect id="Rectangle_359" data-name="Rectangle 359" width="228" height="228" transform="translate(74 223)" fill="#fff"/>
    </clipPath>
    <linearGradient id="linear-gradient" x1="0.5" y1="1" x2="0.5" gradientUnits="objectBoundingBox">
      <stop offset="0" stop-color="gray" stop-opacity="0.251"/>
      <stop offset="0.54" stop-color="gray" stop-opacity="0.122"/>
      <stop offset="1" stop-color="gray" stop-opacity="0.102"/>
    </linearGradient>
    <linearGradient id="linear-gradient-2" x1="0.5" y1="1" x2="0.5" y2="0" xlink:href="#linear-gradient"/>
    <linearGradient id="linear-gradient-3" x1="0.5" y1="1" x2="0.5" y2="0" xlink:href="#linear-gradient"/>
  </defs>
  <g id="Groupe_de_masques_9" data-name="Groupe de masques 9" transform="translate(-74 -223)" clip-path="url(#clip-path)">
    <g id="undraw_happy_birthday_s72n" transform="translate(56 232)">
      <g id="Groupe_10" data-name="Groupe 10" transform="translate(33.635 37.42)" opacity="0.5">
        <rect id="Rectangle_150" data-name="Rectangle 150" width="0.962" height="5.452" transform="translate(2.245)" fill="#47e6b1"/>
        <rect id="Rectangle_151" data-name="Rectangle 151" width="0.962" height="5.452" transform="translate(5.452 2.245) rotate(90)" fill="#47e6b1"/>
      </g>
      <g id="Groupe_11" data-name="Groupe 11" transform="translate(67.834 156.081)" opacity="0.5">
        <rect id="Rectangle_152" data-name="Rectangle 152" width="0.962" height="5.452" transform="translate(2.248)" fill="#47e6b1"/>
        <rect id="Rectangle_153" data-name="Rectangle 153" width="0.962" height="5.452" transform="translate(5.452 2.245) rotate(90)" fill="#47e6b1"/>
      </g>
      <g id="Groupe_12" data-name="Groupe 12" transform="translate(19.963 92.749)" opacity="0.5">
        <rect id="Rectangle_154" data-name="Rectangle 154" width="0.962" height="5.452" transform="translate(2.245)" fill="#47e6b1"/>
        <rect id="Rectangle_155" data-name="Rectangle 155" width="0.962" height="5.452" transform="translate(5.452 2.245) rotate(90)" fill="#47e6b1"/>
      </g>
      <g id="Groupe_13" data-name="Groupe 13" transform="translate(188.413)" opacity="0.5">
        <rect id="Rectangle_156" data-name="Rectangle 156" width="0.962" height="5.452" transform="translate(2.245)" fill="#47e6b1"/>
        <rect id="Rectangle_157" data-name="Rectangle 157" width="0.962" height="5.452" transform="translate(5.452 2.245) rotate(90)" fill="#47e6b1"/>
      </g>
      <g id="Groupe_14" data-name="Groupe 14" transform="translate(26.059 13.56)" opacity="0.5">
        <rect id="Rectangle_158" data-name="Rectangle 158" width="0.962" height="5.452" transform="translate(2.248)" fill="#47e6b1"/>
        <rect id="Rectangle_159" data-name="Rectangle 159" width="0.962" height="5.452" transform="translate(5.452 2.245) rotate(90)" fill="#47e6b1"/>
      </g>
      <path id="Tracé_764" data-name="Tracé 764" d="M335.721,553.854a1.179,1.179,0,0,1-.656-1.424.58.58,0,0,0,.026-.13h0a.578.578,0,0,0-1.06-.393h0a.577.577,0,0,0-.066.116,1.179,1.179,0,0,1-1.424.656.579.579,0,0,0-.13-.026h0a.578.578,0,0,0-.393,1.06h0a.581.581,0,0,0,.116.066,1.179,1.179,0,0,1,.656,1.424.578.578,0,0,0-.026.13h0a.578.578,0,0,0,1.06.393h0a.577.577,0,0,0,.066-.116,1.179,1.179,0,0,1,1.424-.656.573.573,0,0,0,.13.026h0a.578.578,0,0,0,.393-1.06h0A.578.578,0,0,0,335.721,553.854Z" transform="translate(-288.017 -417.23)" fill="#4d8af0" opacity="0.5"/>
      <path id="Tracé_765" data-name="Tracé 765" d="M319.228,733.2a1.179,1.179,0,0,1-.656-1.424.577.577,0,0,0,.026-.13h0a.578.578,0,0,0-1.06-.393h0a.578.578,0,0,0-.066.116,1.179,1.179,0,0,1-1.422.659.576.576,0,0,0-.13-.026h0a.578.578,0,0,0-.393,1.06h0a.577.577,0,0,0,.116.066,1.179,1.179,0,0,1,.656,1.424.58.58,0,0,0-.026.13h0a.578.578,0,0,0,1.06.393h0a.58.58,0,0,0,.066-.116,1.179,1.179,0,0,1,1.424-.656.579.579,0,0,0,.13.026h0a.578.578,0,0,0,.393-1.06h0A.575.575,0,0,0,319.228,733.2Z" transform="translate(-276.292 -544.759)" fill="#4d8af0" opacity="0.5"/>
      <path id="Tracé_766" data-name="Tracé 766" d="M926.228,336.2a1.179,1.179,0,0,1-.656-1.424.576.576,0,0,0,.026-.13h0a.578.578,0,0,0-1.06-.393h0a.578.578,0,0,0-.066.116,1.179,1.179,0,0,1-1.422.659.578.578,0,0,0-.13-.026h0a.578.578,0,0,0-.393,1.06h0a.576.576,0,0,0,.116.066,1.179,1.179,0,0,1,.656,1.424.58.58,0,0,0-.026.13h0a.578.578,0,0,0,1.06.393h0a.578.578,0,0,0,.066-.116,1.179,1.179,0,0,1,1.424-.656.577.577,0,0,0,.13.026h0a.578.578,0,0,0,.393-1.06h0A.581.581,0,0,0,926.228,336.2Z" transform="translate(-707.907 -262.467)" fill="#4d8af0" opacity="0.5"/>
      <path id="Tracé_767" data-name="Tracé 767" d="M898.751,525.544a1.179,1.179,0,0,1-.656-1.424.583.583,0,0,0,.026-.13h0a.578.578,0,0,0-1.06-.393h0a.577.577,0,0,0-.066.116,1.179,1.179,0,0,1-1.424.656.579.579,0,0,0-.13-.026h0a.578.578,0,0,0-.393,1.06h0a.576.576,0,0,0,.116.066,1.179,1.179,0,0,1,.656,1.424.58.58,0,0,0-.026.13h0a.578.578,0,0,0,1.06.393h0a.576.576,0,0,0,.066-.116,1.179,1.179,0,0,1,1.424-.656.573.573,0,0,0,.13.026h0a.578.578,0,0,0,.393-1.06h0A.576.576,0,0,0,898.751,525.544Z" transform="translate(-688.367 -397.1)" fill="#4d8af0" opacity="0.5"/>
      <path id="Tracé_768" data-name="Tracé 768" d="M919.221,148.214a1.179,1.179,0,0,1-.656-1.424.579.579,0,0,0,.026-.13h0a.578.578,0,0,0-1.06-.393h0a.578.578,0,0,0-.066.116,1.179,1.179,0,0,1-1.424.656.577.577,0,0,0-.13-.026h0a.578.578,0,0,0-.393,1.06h0a.58.58,0,0,0,.116.066,1.179,1.179,0,0,1,.656,1.424.579.579,0,0,0-.026.13h0a.578.578,0,0,0,1.06.393h0a.578.578,0,0,0,.066-.116,1.179,1.179,0,0,1,1.424-.656.577.577,0,0,0,.13.026h0a.578.578,0,0,0,.393-1.06h0A.58.58,0,0,0,919.221,148.214Z" transform="translate(-702.923 -128.794)" fill="#4d8af0" opacity="0.5"/>
      <path id="Tracé_769" data-name="Tracé 769" d="M983.441,640.264a1.179,1.179,0,0,1-.656-1.424.582.582,0,0,0,.026-.13h0a.578.578,0,0,0-1.06-.393h0a.58.58,0,0,0-.066.116,1.179,1.179,0,0,1-1.424.656.579.579,0,0,0-.13-.026h0a.578.578,0,0,0-.393,1.06h0a.579.579,0,0,0,.116.066,1.179,1.179,0,0,1,.656,1.424.58.58,0,0,0-.026.13h0a.578.578,0,0,0,1.06.393h0a.578.578,0,0,0,.066-.116,1.179,1.179,0,0,1,1.424-.656.576.576,0,0,0,.13.026h0a.578.578,0,0,0,.393-1.06h0A.58.58,0,0,0,983.441,640.264Z" transform="translate(-748.587 -478.673)" fill="#4d8af0" opacity="0.5"/>
      <circle id="Ellipse_47" data-name="Ellipse 47" cx="1.924" cy="1.924" r="1.924" transform="translate(0 72.558)" fill="#f55f44" opacity="0.5"/>
      <circle id="Ellipse_48" data-name="Ellipse 48" cx="1.924" cy="1.924" r="1.924" transform="translate(214.729 40.286)" fill="#f55f44" opacity="0.5"/>
      <circle id="Ellipse_49" data-name="Ellipse 49" cx="2.167" cy="2.167" r="2.167" transform="translate(126.965 112.24)" fill="#f55f44" opacity="0.5"/>
      <circle id="Ellipse_50" data-name="Ellipse 50" cx="2.167" cy="2.167" r="2.167" transform="translate(126.965 112.24)" fill="#f55f44" opacity="0.5"/>
      <circle id="Ellipse_51" data-name="Ellipse 51" cx="1.924" cy="1.924" r="1.924" transform="translate(238.63 98.146)" fill="#f55f44" opacity="0.5"/>
      <circle id="Ellipse_52" data-name="Ellipse 52" cx="2.167" cy="2.167" r="2.167" transform="translate(82.829 11.491)" fill="#47e6b1" opacity="0.5"/>
      <circle id="Ellipse_53" data-name="Ellipse 53" cx="1.924" cy="1.924" r="1.924" transform="translate(206.541 177.624)" fill="#f55f44" opacity="0.5"/>
      <path id="Tracé_770" data-name="Tracé 770" d="M486.236,468a8.917,8.917,0,0,0,3.909,10.009c1.4.815,3.008,1.225,4.363,2.109,2.944,1.919,4.106,5.591,5.062,8.971,1.1,3.886,2.2,7.995,1.193,11.9-.641,2.494-2.1,4.7-2.93,7.137a14.892,14.892,0,0,0-.708,6.357,5.422,5.422,0,0,0,1.185,3.161c1.127,1.214,2.941,1.4,4.571,1.687a22.184,22.184,0,0,1,15.949,12.349" transform="translate(-397.619 -357.759)" fill="none" stroke="#707070" stroke-miterlimit="10" stroke-width="2"/>
      <path id="Tracé_771" data-name="Tracé 771" d="M487.446,468a8.917,8.917,0,0,0,3.909,10.009c1.4.815,3.008,1.225,4.363,2.109,2.944,1.919,4.106,5.591,5.062,8.971,1.1,3.886,2.2,7.995,1.193,11.9-.641,2.494-2.1,4.7-2.93,7.137a14.891,14.891,0,0,0-.708,6.357,5.422,5.422,0,0,0,1.185,3.161c1.127,1.214,2.941,1.4,4.571,1.687a22.184,22.184,0,0,1,15.949,12.349" transform="translate(-398.48 -357.759)" fill="none" stroke="#fff" stroke-miterlimit="10" stroke-width="2"/>
      <path id="Tracé_772" data-name="Tracé 772" d="M622.733,372.4c-2.808,3.915-5.724,8.125-5.964,12.939-.367,7.394,5.548,13.441,8.188,20.358a24.2,24.2,0,0,1-.812,18.925c-1.289,2.664-3.126,5.311-2.889,8.261a16.14,16.14,0,0,0,1.763,5.094,28.72,28.72,0,0,1-1.667,25.932" transform="translate(-490.675 -289.781)" fill="none" stroke="#707070" stroke-miterlimit="10" stroke-width="2"/>
      <path id="Tracé_773" data-name="Tracé 773" d="M623.926,372.4c-2.806,3.93-5.721,8.128-5.967,12.939-.367,7.394,5.548,13.441,8.188,20.358a24.2,24.2,0,0,1-.812,18.925c-1.289,2.664-3.126,5.311-2.889,8.261a16.139,16.139,0,0,0,1.763,5.094,28.72,28.72,0,0,1-1.667,25.932" transform="translate(-491.521 -289.781)" fill="none" stroke="#fff" stroke-miterlimit="10" stroke-width="2"/>
      <path id="Tracé_774" data-name="Tracé 774" d="M754.443,494.28l1.358,11.069c.179,1.471.332,3.074-.456,4.334-.748,1.188-2.153,1.754-3.245,2.632-3.586,2.889-3.259,8.411-2.023,12.843s3.016,9.194,1.3,13.459a45.2,45.2,0,0,1-2.889,4.895,14.987,14.987,0,0,0-1.791,9.3" transform="translate(-582.979 -376.446)" fill="none" stroke="#707070" stroke-miterlimit="10" stroke-width="2"/>
      <path id="Tracé_775" data-name="Tracé 775" d="M755.613,494.28l1.358,11.069c.179,1.471.332,3.074-.457,4.334-.748,1.188-2.153,1.754-3.245,2.632-3.586,2.889-3.259,8.411-2.023,12.843s3.016,9.194,1.3,13.459a45.209,45.209,0,0,1-2.889,4.895,14.987,14.987,0,0,0-1.791,9.3" transform="translate(-583.811 -376.446)" fill="none" stroke="#fff" stroke-miterlimit="10" stroke-width="2"/>
      <g id="Groupe_15" data-name="Groupe 15" transform="translate(55.623 2.715)" opacity="0.7">
        <path id="Tracé_776" data-name="Tracé 776" d="M523.963,165.479A32.823,32.823,0,0,0,481,134.277a39.424,39.424,0,0,0,.419-5.568,32.8,32.8,0,0,0-65.525-2.352,32.823,32.823,0,0,0-42.982,31.205c0,16.469,12.135,39.873,27.926,44.019l2.459,1.4-1.335,4.574h7.905l-1.716-4.58,2.447-1.4c12.21-3.2,22.222-17.914,26.143-32.023a23.982,23.982,0,0,0,7,3.178l2.459,1.4-1.315,4.562h7.905l-1.716-4.58,2.447-1.4a22.886,22.886,0,0,0,5.2-2.112c2.112,15.828,13.349,35.152,27.567,38.882l2.459,1.4-1.335,4.574h7.905l-1.722-4.58,2.447-1.4C511.842,205.35,523.963,181.937,523.963,165.479Z" transform="translate(-372.91 -95.856)" fill="url(#linear-gradient)"/>
      </g>
      <path id="Tracé_777" data-name="Tracé 777" d="M305.931,378.848H298.28l1.341-4.588h4.588Z" transform="translate(-212.096 -266.123)" fill="#f55f44"/>
      <path id="Tracé_778" data-name="Tracé 778" d="M444.885,231.039c0,17.533-14.213,43.216-31.743,43.216S381.4,248.569,381.4,231.039a31.744,31.744,0,1,1,63.488,0Z" transform="translate(-323.324 -166.693)" fill="#f55f44"/>
      <path id="Tracé_779" data-name="Tracé 779" d="M300.917,371.159h-4.588l-2.678-1.529H303.6Z" transform="translate(-208.804 -262.83)" fill="#fff"/>
      <path id="Tracé_780" data-name="Tracé 780" d="M413.9,223.78s-13.386,7.267-15.3,21.8" transform="translate(-335.554 -184.103)" fill="#fff" opacity="0.1"/>
      <path id="Tracé_781" data-name="Tracé 781" d="M449.6,282.268H441.95l1.341-4.588h4.588Z" transform="translate(-314.254 -197.448)" fill="#4d8af0"/>
      <path id="Tracé_782" data-name="Tracé 782" d="M588.555,134.459c0,17.533-14.213,43.216-31.743,43.216s-31.743-25.686-31.743-43.216a31.744,31.744,0,0,1,63.488,0Z" transform="translate(-425.482 -98.018)" fill="#6c63ff"/>
      <path id="Tracé_783" data-name="Tracé 783" d="M444.587,274.571H440l-2.678-1.531h9.945Z" transform="translate(-310.962 -194.149)" fill="#fff"/>
      <path id="Tracé_784" data-name="Tracé 784" d="M557.569,127.2s-13.386,7.267-15.3,21.8" transform="translate(-437.712 -115.429)" fill="#fff" opacity="0.1"/>
      <path id="Tracé_785" data-name="Tracé 785" d="M592.061,405.411H584.41l1.341-4.591h4.588Z" transform="translate(-415.553 -285.008)" fill="#3ad29f"/>
      <path id="Tracé_786" data-name="Tracé 786" d="M731.008,257.6c0,17.533-14.213,43.216-31.743,43.216S667.52,275.132,667.52,257.6a31.744,31.744,0,0,1,63.488,0Z" transform="translate(-526.773 -185.579)" fill="#3ad29f"/>
      <path id="Tracé_787" data-name="Tracé 787" d="M587.047,397.718h-4.588l-2.678-1.528h9.945Z" transform="translate(-412.26 -281.716)" fill="#fff"/>
      <path id="Tracé_788" data-name="Tracé 788" d="M700.029,250.34s-13.386,7.267-15.3,21.8" transform="translate(-539.011 -202.989)" fill="#fff" opacity="0.1"/>
      <g id="Groupe_16" data-name="Groupe 16" transform="translate(112.491 123.334)" opacity="0.5">
        <path id="Tracé_789" data-name="Tracé 789" d="M606.446,515.793a8.374,8.374,0,0,0-7.559-2.069,15.167,15.167,0,0,0-7.995,4.334,9.347,9.347,0,0,0-1.673,2.294,9.363,9.363,0,0,0-1.658-2.378h0a15.054,15.054,0,0,0-7.931-4.461,7.889,7.889,0,0,0-9.769,9.466,15.147,15.147,0,0,0,4.216,8.056c4.791,4.944,14.352,3.014,14.756,2.927l.118-.026.367.084c.4.093,9.931,2.187,14.805-2.673a15.232,15.232,0,0,0,4.354-7.983A8.341,8.341,0,0,0,606.446,515.793Zm-19.22,15.314c-2.311.312-8.07.734-10.928-2.216a12.085,12.085,0,0,1-3.383-6.385,5.39,5.39,0,0,1,1.277-4.848,4.27,4.27,0,0,1,1.557-.953,6.426,6.426,0,0,1,3.329-.168,12.072,12.072,0,0,1,6.276,3.583c2.858,2.93,2.257,8.685,1.872,10.985Zm18.235-8.266a12.061,12.061,0,0,1-3.493,6.325c-2.91,2.889-8.668,2.378-10.965,2.023-.344-2.311-.847-8.058,2.063-10.959a12.052,12.052,0,0,1,6.336-3.467,6.426,6.426,0,0,1,3.326.225,4.27,4.27,0,0,1,1.543.982,5.4,5.4,0,0,1,1.19,4.869Z" transform="translate(-569.727 -513.316)" fill="url(#linear-gradient-2)"/>
      </g>
      <path id="Tracé_790" data-name="Tracé 790" d="M591.838,534.446l-.91.191c-.387.081-9.535,1.927-14.12-2.8a14.625,14.625,0,0,1-4.045-7.709,7.547,7.547,0,0,1,9.344-9.058,14.5,14.5,0,0,1,7.579,4.273h0c4.583,4.73,2.45,13.817,2.358,14.2Zm-13.444-16.322a4.084,4.084,0,0,0-1.491.913,5.175,5.175,0,0,0-1.222,4.64,11.576,11.576,0,0,0,3.239,6.111c2.736,2.823,8.246,2.418,10.457,2.121.367-2.2.945-7.694-1.791-10.517h0a11.544,11.544,0,0,0-6.007-3.427A6.148,6.148,0,0,0,578.394,518.124Z" transform="translate(-459.303 -391.096)" fill="#6c63ff"/>
      <path id="Tracé_791" data-name="Tracé 791" d="M632.719,535.09l-.2-.907c-.087-.387-2.063-9.509,2.6-14.158h0a14.518,14.518,0,0,1,7.651-4.14,7.541,7.541,0,0,1,9.18,9.2,14.507,14.507,0,0,1-4.166,7.637c-4.663,4.649-13.779,2.644-14.158,2.557Zm13.724-16.1a6.148,6.148,0,0,0-3.178-.217,11.588,11.588,0,0,0-6.068,3.323h0c-2.785,2.777-2.311,8.278-1.973,10.485,2.2.335,7.709.835,10.491-1.939a11.553,11.553,0,0,0,3.343-6.068,5.167,5.167,0,0,0-1.141-4.661A4.086,4.086,0,0,0,646.443,518.987Z" transform="translate(-501.536 -391.699)" fill="#6c63ff"/>
      <g id="Groupe_17" data-name="Groupe 17" transform="translate(87.091 140.961)" opacity="0.5">
        <path id="Tracé_792" data-name="Tracé 792" d="M390.126,487.86H301.42v17.749h4.609v51.37h79.489v-51.37h4.609Z" transform="translate(-301.42 -487.86)" fill="url(#linear-gradient-3)"/>
      </g>
      <rect id="Rectangle_160" data-name="Rectangle 160" width="77.478" height="62.881" transform="translate(92.705 146.326)" fill="#fff"/>
      <rect id="Rectangle_161" data-name="Rectangle 161" width="14.597" height="51.65" transform="translate(124.144 157.554)" fill="#6c63ff"/>
      <rect id="Rectangle_162" data-name="Rectangle 162" width="77.478" height="15.721" transform="translate(92.705 142.957)" opacity="0.1"/>
      <rect id="Rectangle_163" data-name="Rectangle 163" width="86.461" height="15.721" transform="translate(88.215 141.833)" fill="#fff"/>
      <rect id="Rectangle_164" data-name="Rectangle 164" width="14.597" height="15.721" transform="translate(124.144 141.833)" fill="#6c63ff"/>
    </g>
  </g>
</svg>
