<svg xmlns="http://www.w3.org/2000/svg" xmlns:xlink="http://www.w3.org/1999/xlink" width="676" height="676" viewBox="0 0 676 676">
  <defs>
    <clipPath id="clip-path">
      <rect id="Rectangle_367" data-name="Rectangle 367" width="325" height="325" transform="translate(-8162 6218)" fill="#fff"/>
    </clipPath>
  </defs>
  <g id="Groupe_145" data-name="Groupe 145" transform="translate(8338 -6042)">
    <g id="Groupe_130" data-name="Groupe 130" transform="translate(-150 325)">
      <g id="Groupe_125" data-name="Groupe 125" transform="translate(-2042 -5910)">
        <g id="avatarFemale" transform="translate(-6146 11627)">
          <path id="Tracé_1341" data-name="Tracé 1341" d="M938,450c0,120.33-62.88,225.98-157.58,285.87q-13.26,8.4-27.34,15.55c-2.12,1.09-4.25,2.14-6.4,3.17-1.77.86-3.56,1.7-5.35,2.53a334.831,334.831,0,0,1-57.78,20.47c-1.29.33-2.59.65-3.89.96-.97.24-1.95.47-2.93.69a2.494,2.494,0,0,1-.37.09c-2.01.47-4.02.92-6.05,1.33-1.14.24-2.28.48-3.42.71-.69.15-1.39.28-2.08.41-.87.17-1.73.33-2.6.5-.48.1-.96.18-1.45.26-1.1.2-2.2.4-3.29.59-1.86.32-3.74.63-5.61.91-1.36.21-2.71.41-4.07.6-1.6.23-3.2.44-4.81.64-.44.07-.88.12-1.32.17l-1.71.21c-1.74.21-3.5.4-5.25.58q-1.71.18-3.42.33c-1.47.14-2.94.26-4.42.38-1.8.14-3.59.27-5.4.38-1.16.07-2.32.14-3.49.2-2.98.16-5.96.27-8.96.35-1.49.04-2.99.07-4.49.09h-.03c-1.49.02-2.99.03-4.49.03A337.827,337.827,0,0,1,262,450c0-186.67,151.33-338,338-338S938,263.33,938,450Z" transform="translate(-262 -112)" fill="#773bff"/>
          <path id="Tracé_1351" data-name="Tracé 1351" d="M701.96,648.27l1.22.63C703.06,650.2,702.77,651,701.96,648.27Z" transform="translate(-262 -112)" fill="#2f2e41"/>
          <path id="Tracé_1352" data-name="Tracé 1352" d="M703.57,648.69c.01.14.03.29.04.43l-.43-.22c.01-.13.02-.27.04-.41C703.32,646.74,703.2,644.67,703.57,648.69Z" transform="translate(-262 -112)" fill="#2f2e41"/>
        </g>
      </g>
    </g>
    <g id="Groupe_de_masques_13" data-name="Groupe de masques 13" transform="translate(-18 5)" clip-path="url(#clip-path)">
      <g id="shopping-cart-of-checkered-design" transform="translate(-8162 6218)">
        <path id="Tracé_1453" data-name="Tracé 1453" d="M323,67.716a10.432,10.432,0,0,0-8.425-4.282H79.948a10.125,10.125,0,0,0-1.346.087L68.946,35.685A10.439,10.439,0,0,0,62.909,29.4L14.245,10.28a10.429,10.429,0,0,0-7.63,19.413l44.2,17.363,54.1,155.938a8.637,8.637,0,0,0-5.333,5.227L83.938,251.67A8.691,8.691,0,0,0,92.114,263.3h8.033a31.284,31.284,0,1,0,46.5,0h68.206a31.282,31.282,0,1,0,46.5,0h9.77a8.69,8.69,0,0,0,0-17.379H104.478l9.687-26.908a10.328,10.328,0,0,0,4.017.838h152.94a10.423,10.423,0,0,0,9.928-7.243L324.5,77.046A10.423,10.423,0,0,0,323,67.716ZM123.4,298.063a13.9,13.9,0,1,1,13.9-13.9A13.917,13.917,0,0,1,123.4,298.063Zm114.7,0a13.9,13.9,0,1,1,13.9-13.9A13.918,13.918,0,0,1,238.1,298.063Zm54.661-190.31H239.551V84.29h60.731ZM277.44,155.546H239.551V128.608h46.525Zm-106.831,0V128.608h48.086v26.939ZM218.695,176.4V199H170.609V176.4Zm-117.513-47.8h48.574v26.939H110.529Zm69.428-20.855V84.29h48.086v23.463ZM149.755,84.29v23.463H93.944L85.8,84.29ZM117.766,176.4h31.989V199H125.6ZM239.551,199V176.4H270.76L263.519,199Z" fill="#fff"/>
      </g>
    </g>
  </g>
</svg>
