<svg xmlns="http://www.w3.org/2000/svg" xmlns:xlink="http://www.w3.org/1999/xlink" width="1000" height="600" viewBox="0 0 1000 600">
  <defs>
    <clipPath id="clip-path">
      <rect id="Rectangle_378" data-name="Rectangle 378" width="317" height="317" transform="translate(-10062 5798)" fill="#fff"/>
    </clipPath>
  </defs>
  <g id="Groupe_156" data-name="Groupe 156" transform="translate(10505 -5571)">
    <g id="Groupe_154" data-name="Groupe 154" transform="translate(-101 -141)">
      <rect id="Rectangle_377" data-name="Rectangle 377" width="1000" height="600" transform="translate(-10404 5712)" fill="#7835ff"/>
      <g id="Groupe_de_masques_20" data-name="Groupe de masques 20" transform="translate(-20)" clip-path="url(#clip-path)">
        <g id="shopping-cart-of-checkered-design" transform="translate(-10062 5798)">
          <path id="Tracé_1469" data-name="Tracé 1469" d="M315.047,66.049a10.175,10.175,0,0,0-8.218-4.177H77.98a9.876,9.876,0,0,0-1.312.084l-9.418-27.15a10.182,10.182,0,0,0-5.888-6.134L13.895,10.027A10.173,10.173,0,0,0,6.452,28.962L49.562,45.9,102.33,198a8.425,8.425,0,0,0-5.2,5.1l-15.257,42.38a8.477,8.477,0,0,0,7.975,11.346h7.835a30.514,30.514,0,1,0,45.358,0h66.527a30.512,30.512,0,1,0,45.356,0h9.53a8.476,8.476,0,0,0,0-16.952H101.906l9.449-26.246a10.073,10.073,0,0,0,3.918.817H264.449a10.166,10.166,0,0,0,9.684-7.065L316.513,75.15A10.166,10.166,0,0,0,315.047,66.049ZM120.36,290.726a13.562,13.562,0,1,1,13.561-13.561A13.574,13.574,0,0,1,120.36,290.726Zm111.881,0A13.562,13.562,0,1,1,245.8,277.165,13.575,13.575,0,0,1,232.241,290.726ZM285.556,105.1h-51.9V82.215H292.89Zm-14.945,46.618H233.654V125.442h45.38Zm-104.2,0V125.442h46.9v26.276Zm46.9,20.344V194.1h-46.9V172.062ZM98.691,125.442h47.378v26.276H107.808ZM166.41,105.1V82.215h46.9V105.1ZM146.068,82.215V105.1H91.632L83.693,82.215Zm-31.2,89.847h31.2V194.1H122.511ZM233.654,194.1V172.062h30.441L257.033,194.1Z" fill="#fff"/>
        </g>
      </g>
      <g id="SUPERMARCHÉS" transform="translate(-9710.22 5684.596)" style="isolation: isolate">
        <g id="Groupe_155" data-name="Groupe 155" style="isolation: isolate">
          <path id="Tracé_1481" data-name="Tracé 1481" d="M-341.4,497.992v-5.671c0-4.85-1.764-6.993-6.489-6.993s-6.49,2.143-6.49,6.993v3.088c0,3.277,1.134,4.158,4.474,5.922l6.741,3.718c3.087,1.638,5.292,4.1,5.292,7.433v5.671c0,6.3-3.213,9.2-9.891,9.2h-.126c-6.679,0-9.892-2.835-9.892-9.2v-7.182h3.4v6.175c0,4.788,1.764,7.119,6.553,7.119s6.552-2.331,6.552-7.119v-3.529c0-3.276-1.323-4.41-4.662-6.3l-6.616-3.59c-3.654-2.08-5.229-3.781-5.229-7.309v-5.1c0-6.047,3.78-9.072,9.828-9.072h.127c6.048,0,9.828,3.025,9.828,9.072v6.679Z" fill="#fff"/>
          <path id="Tracé_1482" data-name="Tracé 1482" d="M-310.529,518.027c0,6.3-3.276,9.325-9.954,9.325h-.252c-6.679,0-9.955-2.961-9.955-9.325V482.745h3.4v34.149c0,5.228,1.7,7.307,6.679,7.307s6.678-2.079,6.678-7.307V482.745h3.4Z" fill="#fff"/>
          <path id="Tracé_1483" data-name="Tracé 1483" d="M-281.864,492.069V499c0,6.175-3.4,9.324-10.081,9.324h-6.993v18.524h-3.4v-44.1h10.395C-285.266,482.745-281.864,485.9-281.864,492.069Zm-3.4,1.135c0-5.229-1.953-7.308-6.931-7.308h-6.741v19.279h6.741c4.978,0,6.931-2.079,6.931-7.309Z" fill="#fff"/>
          <path id="Tracé_1484" data-name="Tracé 1484" d="M-275.187,526.848v-44.1h17.326V485.9h-13.924v17.01h11.971v3.151h-11.971V523.7h14.113v3.151Z" fill="#fff"/>
          <path id="Tracé_1485" data-name="Tracé 1485" d="M-232.662,526.848l-7.245-19.028h-7.687v19.028H-251v-44.1h10.4c6.679,0,10.081,3.151,10.081,9.324V498.5c0,4.788-2.016,7.749-6.048,8.82l7.56,19.532Zm-1.26-29.423V493.2c0-5.229-1.953-7.308-6.931-7.308h-6.741v18.837h6.741C-235.875,504.733-233.922,502.591-233.922,497.425Z" fill="#fff"/>
          <path id="Tracé_1486" data-name="Tracé 1486" d="M-207.084,519.413h-1.954l-10.332-28.036v35.471h-3.213v-44.1h3.339l11.088,30.557,11.215-30.557h3.528v44.1h-3.4V491.377Z" fill="#fff"/>
          <path id="Tracé_1487" data-name="Tracé 1487" d="M-170.042,515.507h-11.844l-2.458,11.341h-3.4l9.829-44.1h3.906l9.955,44.1h-3.528Zm-.693-3.087-5.229-24.319-5.229,24.319Z" fill="#fff"/>
          <path id="Tracé_1488" data-name="Tracé 1488" d="M-140.054,526.848-147.3,507.82h-7.686v19.028h-3.4v-44.1h10.4c6.679,0,10.08,3.151,10.08,9.324V498.5c0,4.788-2.016,7.749-6.048,8.82l7.561,19.532Zm-1.259-29.423V493.2c0-5.229-1.954-7.308-6.931-7.308h-6.741v18.837h6.741C-143.267,504.733-141.313,502.591-141.313,497.425Z" fill="#fff"/>
          <path id="Tracé_1489" data-name="Tracé 1489" d="M-110.318,518.027c0,6.3-3.4,9.325-10.08,9.325h-.126c-6.679,0-10.081-2.961-10.081-9.325V491.565c0-6.047,3.4-9.324,10.081-9.324h.126c6.678,0,10.08,3.277,10.08,9.324v7.561h-3.4V492.7c0-5.167-1.827-7.308-6.741-7.308s-6.742,2.141-6.742,7.308v24.194c0,5.166,1.828,7.307,6.742,7.307s6.741-2.141,6.741-7.307v-7.5h3.4Z" fill="#fff"/>
          <path id="Tracé_1490" data-name="Tracé 1490" d="M-99.106,482.745v20.1H-84.93v-20.1h3.4v44.1h-3.4V505.993H-99.106v20.855h-3.4v-44.1Z" fill="#fff"/>
          <path id="Tracé_1491" data-name="Tracé 1491" d="M-73.213,526.848v-44.1h17.326V485.9H-69.811v17.01H-57.84v3.151H-69.811V523.7H-55.7v3.151ZM-57.462,471.4l-6.112,7.876h-2.709L-62,471.4Z" fill="#fff"/>
          <path id="Tracé_1492" data-name="Tracé 1492" d="M-33.9,497.992v-5.671c0-4.85-1.765-6.993-6.489-6.993s-6.489,2.143-6.489,6.993v3.088c0,3.277,1.133,4.158,4.472,5.922l6.741,3.718c3.088,1.638,5.293,4.1,5.293,7.433v5.671c0,6.3-3.213,9.2-9.891,9.2h-.126c-6.679,0-9.892-2.835-9.892-9.2v-7.182h3.4v6.175c0,4.788,1.763,7.119,6.551,7.119s6.553-2.331,6.553-7.119v-3.529c0-3.276-1.323-4.41-4.662-6.3l-6.615-3.59c-3.655-2.08-5.23-3.781-5.23-7.309v-5.1c0-6.047,3.781-9.072,9.828-9.072h.126c6.049,0,9.829,3.025,9.829,9.072v6.679Z" fill="#fff"/>
        </g>
      </g>
    </g>
  </g>
</svg>
