<svg xmlns="http://www.w3.org/2000/svg" xmlns:xlink="http://www.w3.org/1999/xlink" width="202.661" height="202.661" viewBox="0 0 202.661 202.661">
  <defs>
    <filter id="Ellipse_100" x="10.33" y="16.33" width="181" height="180" filterUnits="userSpaceOnUse">
      <feOffset dy="3" input="SourceAlpha"/>
      <feGaussianBlur stdDeviation="13" result="blur"/>
      <feFlood flood-color="#ffc400" flood-opacity="0.533"/>
      <feComposite operator="in" in2="blur"/>
      <feComposite in="SourceGraphic"/>
    </filter>
  </defs>
  <g id="Groupe_106" data-name="Groupe 106" transform="translate(-70 -343)">
    <g id="icn_add" transform="translate(70 343)">
      <path id="Tracé_1006" data-name="Tracé 1006" d="M101.33,0A101.33,101.33,0,1,1,0,101.33,101.33,101.33,0,0,1,101.33,0Z" fill="#635aff"/>
      <path id="Tracé_1005" data-name="Tracé 1005" d="M88.5,0A88.5,88.5,0,1,1,0,88.5,88.5,88.5,0,0,1,88.5,0Z" transform="translate(12.831 12.831)" fill="#5a52ff"/>
      <path id="Tracé_20" data-name="Tracé 20" d="M72.381,0A72.381,72.381,0,1,1,0,72.381,72.381,72.381,0,0,1,72.381,0Z" transform="translate(28.949 28.949)" fill="#4f46f2"/>
      <g id="Groupe_12" data-name="Groupe 12" transform="translate(65.14 65.14)">
        <path id="Tracé_18" data-name="Tracé 18" d="M71.809,34.33,37.018.585a1.893,1.893,0,0,0-2.688,0L.585,35.376a1.893,1.893,0,0,0,0,2.688L35.376,71.809a2.224,2.224,0,0,0,1.344.6,1.621,1.621,0,0,0,1.344-.6L71.809,37.018a2.224,2.224,0,0,0,.6-1.344A1.455,1.455,0,0,0,71.809,34.33Zm-35.089,33.6L4.467,36.719,35.674,4.467,67.927,35.674Z" transform="translate(-0.025 -0.025)" fill="#4f46f2"/>
        <path id="Tracé_19" data-name="Tracé 19" d="M26.026,15.792v9.234H16.792A1.816,1.816,0,0,0,15,26.818a1.927,1.927,0,0,0,1.792,1.792h9.234v9.085a1.816,1.816,0,0,0,1.792,1.792,1.927,1.927,0,0,0,1.792-1.792V28.609h9.085a1.816,1.816,0,0,0,1.792-1.792,1.689,1.689,0,0,0-1.642-1.792H29.759V15.792A1.816,1.816,0,0,0,27.967,14,2.075,2.075,0,0,0,26.026,15.792Z" transform="translate(8.28 7.786)" fill="#4f46f2"/>
      </g>
    </g>
    <g id="undraw_transfer_money_rywa" transform="translate(106.189 395.383)">
      <g transform="matrix(1, 0, 0, 1, -36.19, -52.38)" filter="url(#Ellipse_100)">
        <ellipse id="Ellipse_100-2" data-name="Ellipse 100" cx="51.5" cy="51" rx="51.5" ry="51" transform="translate(49.33 52.33)" fill="#ffc502" opacity="0.999"/>
      </g>
      <path id="Tracé_1082" data-name="Tracé 1082" d="M853.35,435.944s.266.888-1.243,1.687-1.953,3.818-.178,4.706,2.309,2.042,1.421,2.841-2.486,2.93-.355,3.463,2.4,1.6,1.776,2.042,1.421-.8,1.421-.8.355,2.131,2.22,1.6,7.1-10.654,4.439-12.075A76.778,76.778,0,0,0,853.35,435.944Z" transform="translate(-742.644 -389.512)" fill="#2f2e41"/>
      <path id="Tracé_1083" data-name="Tracé 1083" d="M871.349,490.636s.921,3.223-.691,3.454a6.291,6.291,0,0,0-2.763,1.151l2.993,3.914h5.526l3.454-3.454s-4.6-3.454-3.684-5.526S871.349,490.636,871.349,490.636Z" transform="translate(-757.425 -435.63)" fill="#ffb9b9"/>
      <path id="Tracé_1084" data-name="Tracé 1084" d="M871.349,490.636s.921,3.223-.691,3.454a6.291,6.291,0,0,0-2.763,1.151l2.993,3.914h5.526l3.454-3.454s-4.6-3.454-3.684-5.526S871.349,490.636,871.349,490.636Z" transform="translate(-757.425 -435.63)" opacity="0.1"/>
      <path id="Tracé_1085" data-name="Tracé 1085" d="M852.787,719.3l5.3,1.842,3.684.23-.23-3.223-7.6-2.247Z" transform="translate(-737.481 -624.234)" fill="#ffb9b9"/>
      <path id="Tracé_1086" data-name="Tracé 1086" d="M953,767.553s0,3.224.461,3.224,6.677-.691,8.519,0,4.605-1.842,3.224-3.224-3.635-3.454-5.041-2.993S953,766.172,953,766.172Z" transform="translate(-830.905 -673.176)" fill="#575a89"/>
      <path id="Tracé_1087" data-name="Tracé 1087" d="M819.312,764.974s-2.763,5.526-.921,5.986a6.387,6.387,0,0,0,4.145-.461c.23-.23,3.454-1.151,3.914-.691s.46-1.842.46-1.842Z" transform="translate(-714.137 -673.589)" fill="#575a89"/>
      <path id="Tracé_1088" data-name="Tracé 1088" d="M831.223,709.359s-4.375,5.986-1.151,7.6,18.65,1.612,19.8,0,1.612-6.677,0-7.138S831.223,709.359,831.223,709.359Z" transform="translate(-723.746 -625.573)" fill="#2f2e41"/>
      <path id="Tracé_1089" data-name="Tracé 1089" d="M831.223,709.359s-4.375,5.986-1.151,7.6,18.65,1.612,19.8,0,1.612-6.677,0-7.138S831.223,709.359,831.223,709.359Z" transform="translate(-723.746 -625.573)" opacity="0.2"/>
      <circle id="Ellipse_103" data-name="Ellipse 103" cx="5.296" cy="5.296" r="5.296" transform="translate(110.471 46.026)" fill="#ffb9b9"/>
      <path id="Tracé_1090" data-name="Tracé 1090" d="M845.987,526.582l4.6-.921s1.151,3.684,4.835,2.993,4.6-2.993,4.6-2.993,2.763,1.151,2.993,1.151,3.223,1.151,3.223,1.842-3.454,7.6-3.454,7.6l.46,12.433-17.038-.461,1.151-12.2Z" transform="translate(-738.509 -466.972)" fill="#6c63ff"/>
      <path id="Tracé_1091" data-name="Tracé 1091" d="M822.538,576.22s-1.381,12.2-.46,13.124,4.6,3.454,4.6,3.454v-2.763l-1.842-3.454,1.842-8.059Z" transform="translate(-717.593 -510.624)" fill="#ffb9b9"/>
      <path id="Tracé_1092" data-name="Tracé 1092" d="M972.048,573.692s-.806,12.548-.806,13.009-2.072,2.072-2.763,2.072-1.151-1.151-1.151-1.151l1.612-1.842-1.151-9.44Z" transform="translate(-843.273 -508.441)" fill="#ffb9b9"/>
      <path id="Tracé_1093" data-name="Tracé 1093" d="M918.209,686.45s10.361-5.756,10.591,0-5.3,8.059-5.3,8.059-14.275,4.281-14.851,2.716-1.727-4.1-.806-4.328,2.072-.691,2.533-.23,6.217-3.454,6.217-3.454Z" transform="translate(-791.621 -603.585)" fill="#2f2e41"/>
      <path id="Tracé_1094" data-name="Tracé 1094" d="M980.516,697.562a13.1,13.1,0,0,0-2.763,1.612,17.851,17.851,0,0,1-3.684,1.842" transform="translate(-849.093 -615.387)" fill="none" stroke="#000" stroke-miterlimit="10" stroke-width="2" opacity="0.2"/>
      <path id="Tracé_1095" data-name="Tracé 1095" d="M823.542,532.863l-1.381-.46s-5.065,5.3-3.454,6.677,2.533,1.842,2.993,2.3,2.763.691,2.763.691Z" transform="translate(-714.683 -472.792)" fill="#6c63ff"/>
      <path id="Tracé_1096" data-name="Tracé 1096" d="M958.755,544.2l2.072.461a33.814,33.814,0,0,0,2.072,3.914c.461.461-.691.23-1.381,1.151s-1.382,2.533-2.763,2.533-3.224-2.3-3.224-2.3Z" transform="translate(-833.088 -482.978)" fill="#6c63ff"/>
      <path id="Tracé_1097" data-name="Tracé 1097" d="M772.786,696.865s-8.749-6.217-11.743-1.612,12.894,10.822,15.2,11.743,4.375,1.842,4.375,1.842,2.072-5.065,2.072-5.986-1.612-.921-2.072-.921-2.533-.461-2.993-1.151A51.772,51.772,0,0,0,772.786,696.865Z" transform="translate(-664.848 -611.928)" fill="#2f2e41"/>
      <path id="Tracé_1098" data-name="Tracé 1098" d="M813.966,705.988a13.324,13.324,0,0,0,4.375,2.3A4.28,4.28,0,0,1,821.1,709.9" transform="translate(-710.863 -622.662)" fill="none" stroke="#000" stroke-miterlimit="10" stroke-width="2" opacity="0.2"/>
      <path id="Tracé_1099" data-name="Tracé 1099" d="M837.731,634.764l.184,9.749a1.22,1.22,0,0,0,1.234,1.2l18.142-.2a1.22,1.22,0,0,0,1.2-1.15l.551-9.545a1.22,1.22,0,0,0-1.218-1.291H838.951a1.22,1.22,0,0,0-1.22,1.243Z" transform="translate(-731.381 -560.095)" fill="#575a89"/>
      <path id="Tracé_1100" data-name="Tracé 1100" d="M890.7,423.04s.295.984-1.377,1.869-2.164,4.229-.2,5.213,2.557,2.262,1.574,3.147-2.754,3.246-.393,3.836,2.656,1.77,1.967,2.262,1.574-.885,1.574-.885.393,2.361,2.459,1.77,4.126-11.318,1.824-14.081C895.993,423.6,890.7,423.04,890.7,423.04Z" transform="translate(-774.655 -378.371)" fill="#2f2e41"/>
      <path id="Tracé_1101" data-name="Tracé 1101" d="M904.13,411.384c0-1.441,4.312-.406,6.16,1.606,1.28,1.393,3.224,3.489,1.595,4.967s2.792,3.414,3.978,4,3.527,2.383,1.413,3.588-2.08,2.421-1.284,2.709-1.754-.428-1.754-.428.258,2.379-1.891,2.368-8.311-11.817-6.839-15.1C906.877,412.046,904.13,411.384,904.13,411.384Z" transform="translate(-788.709 -367.727)" fill="#2f2e41"/>
      <path id="Tracé_1102" data-name="Tracé 1102" d="M870.875,413.193c-5.765-.347-6.344,3.992-6.344,3.992.04,2.511,4.028,1.288,5.136,1.662,1.336-.961,3.912-2.78,5.754-4.078A8.713,8.713,0,0,0,870.875,413.193Z" transform="translate(-754.521 -369.852)" fill="#2f2e41"/>
      <path id="Tracé_1103" data-name="Tracé 1103" d="M661.709,351.738s-5.171-24.237-37.54-41.818" transform="translate(-546.997 -280.706)" fill="none" stroke="#3f3d56" stroke-miterlimit="10" stroke-width="2"/>
      <path id="Tracé_1104" data-name="Tracé 1104" d="M573.355,254.891l.065.266-1.309.318.412,1.283-.26.083-.5-1.562Z" transform="translate(-494.848 -226.205)" fill="#3f3d56"/>
      <path id="Tracé_1105" data-name="Tracé 1105" d="M67.457,753.194c0,3.07-1.825,4.142-4.076,4.142l-.156,0c-.1,0-.208-.007-.31-.014-2.032-.144-3.61-1.271-3.61-4.126,0-2.954,3.775-6.682,4.059-6.958h0l.016-.016S67.457,750.124,67.457,753.194Z" transform="translate(-59.306 -657.397)" fill="#6c63ff"/>
      <path id="Tracé_1106" data-name="Tracé 1106" d="M77.7,756.866l1.491-2.083L77.7,757.095l0,.239c-.1,0-.208-.007-.31-.014l.161-3.071v-.024l0,0,.015-.29-1.5-2.317,1.5,2.1,0,.062.121-2.32-1.283-2.395,1.3,1.987.126-4.811v0l-.021,3.794,1.277-1.5-1.282,1.831-.034,2.078,1.192-1.994-1.2,2.3-.019,1.155,1.731-2.775L77.741,754.3Z" transform="translate(-73.772 -657.397)" fill="#3f3d56"/>
      <path id="Tracé_1107" data-name="Tracé 1107" d="M211.254,787.357l.872-.648s.577,3.224-.067,3.707S209,791.7,209,792.67s-5.474,2.254-5.635.805a3.193,3.193,0,0,1,.483-2.254s2.576-2.576,2.9-3.059,1.127-1.449,1.127-1.449Z" transform="translate(-183.661 -692.355)" fill="#2f2e41"/>
      <path id="Tracé_1108" data-name="Tracé 1108" d="M167,486.821s.024.142.066.4c.039.23.092.555.156.956.676,4.127,2.648,16.274,2.515,16.675-.161.483-1.288,2.254,0,2.737a1,1,0,0,1,.4.436,9.363,9.363,0,0,1,.681,1.607,70.6,70.6,0,0,1,2.064,8.264c.208,1.085.349,1.958.391,2.415a1.314,1.314,0,0,1,0,.319c-.161.644.966,2.9,1.449,3.542s1.288,1.288,1.127,1.932,4.025,2.415,4.508,1.288A20.544,20.544,0,0,0,181,525.3c.161-.322.322-2.576-.483-2.9s-.322-5.957-1.127-7.084a15.471,15.471,0,0,1-1.109-3.173c-.169-.6-.34-1.236-.507-1.876-.679-2.62-1.282-5.255-1.282-5.255l.161-18.837L167.8,485.05l-.227.5-.452.993Z" transform="translate(-152.283 -431.909)" fill="#2f2e41"/>
      <path id="Tracé_1109" data-name="Tracé 1109" d="M125.356,720.66s-1.288-1.288-1.932,0-1.288,6.279-2.415,7.406-2.576,6.762-.966,7.084,3.381-.483,3.542-1.449,3.542-5.957,3.542-6.44-2.254-2.254-2.254-2.254Z" transform="translate(-111.126 -634.836)" fill="#2f2e41"/>
      <path id="Tracé_1110" data-name="Tracé 1110" d="M175.865,430.4s-2.093,18.837-2.576,20.608-3.059,8.533-3.864,9.66-5.957,10.3-6.6,10.787-1.932,1.771-1.932,1.771-2.415,2.415-2.737,2.9-3.059-.966-3.22-1.932a9.927,9.927,0,0,1,.322-3.22c.161-.644-.322-1.61.161-2.093s2.9-2.9,2.9-4.025,4.186-7.728,5.8-9.177a4.8,4.8,0,0,0,1.288-3.864V442l-8.855-2.737s.483-7.728,1.61-7.728S174.094,428.955,175.865,430.4Z" transform="translate(-141.832 -384.347)" fill="#2f2e41"/>
      <circle id="Ellipse_104" data-name="Ellipse 104" cx="5.313" cy="5.313" r="5.313" transform="translate(15.679 8.543)" fill="#9f616a"/>
      <path id="Tracé_1111" data-name="Tracé 1111" d="M181.151,210.822s.644,2.415,1.449,3.059-2.093,3.381-2.093,3.381l-5.474.322-.966-3.059s1.771-3.542,1.288-5.8S181.151,210.822,181.151,210.822Z" transform="translate(-158.388 -192.779)" fill="#9f616a"/>
      <path id="Tracé_1112" data-name="Tracé 1112" d="M177.3,248.18s-1.449.161-1.771.644a5.77,5.77,0,0,1-4.347,1.61c-1.771-.322-2.9-.805-3.22-.644s-.966,3.542-.966,3.542l1.771,5.152-.322,14.168-.483,3.864s-.966-1.288,2.9-.483,8.855-.644,10.465-.8,4.347-.644,4.508-1.61a25.47,25.47,0,0,0-.483-4.508l-2.576-10.787-1.61-5.8Z" transform="translate(-152.284 -227.4)" fill="#6c63ff"/>
      <path id="Tracé_1113" data-name="Tracé 1113" d="M231.271,240.677s1.362-.722,1.845-.078,6.6,1.61,6.6,2.093,1.288,13.524.966,14.651a3.281,3.281,0,0,0,.644,2.415l1.127,4.83s3.059,9.177,1.771,9.5a8.383,8.383,0,0,1-2.9,0c-.483,0-.322-6.118-1.61-7.728a36.223,36.223,0,0,1-3.381-6.44c-.322-.8-4.347-11.914-4.186-13.2S231.271,240.677,231.271,240.677Z" transform="translate(-207.777 -220.624)" fill="#d0cde1"/>
      <path id="Tracé_1114" data-name="Tracé 1114" d="M139.583,248.18s-1.288,0-1.449.322a17.623,17.623,0,0,1-2.415,2.9c-.644.483-2.9,2.576-2.9,3.059s4.669,4.025,4.669,4.025,1.932,9.5.966,12.719-2.415,10.948-1.771,11.431,2.093.644,2.093,0,.966-7.567,1.771-9.016,3.22-10.626,2.254-13.2S139.583,248.18,139.583,248.18Z" transform="translate(-122.777 -227.4)" fill="#d0cde1"/>
      <path id="Tracé_1115" data-name="Tracé 1115" d="M265.634,364.847s.161,4.991-1.61,7.567a30.6,30.6,0,0,0-2.9,5.474s-2.9-.805-3.381-1.771-3.542-.161-3.542-.483,3.7-1.932,4.025-2.254,1.449-.322,2.093-.966a4.262,4.262,0,0,0,.805-2.093l.644-4.186Z" transform="translate(-227.575 -328.129)" fill="#9f616a"/>
      <path id="Tracé_1116" data-name="Tracé 1116" d="M172.376,142.129a3.061,3.061,0,0,0,1.192-.273,1.6,1.6,0,0,0,.408-2.362,3.052,3.052,0,0,0-.566-.455l-1.224-.833a5.985,5.985,0,0,0-1.727-.917,5.389,5.389,0,0,0-1.765-.1,11.927,11.927,0,0,0-3.381.615,5.659,5.659,0,0,0-2.74,2,6.022,6.022,0,0,0-.48,5.252,17.815,17.815,0,0,0,2.723,4.715l.554-2.7a1,1,0,0,1,.314-.647c.5-.354,1.107.373,1.718.368a1.029,1.029,0,0,0,.871-.689,3.929,3.929,0,0,0,.193-1.157,3.168,3.168,0,0,1,1.147-2.438A7.261,7.261,0,0,1,172.376,142.129Z" transform="translate(-147.724 -131.548)" fill="#2f2e41"/>
      <path id="Tracé_1117" data-name="Tracé 1117" d="M231.184,498.652s-.544,15.729-.866,16.212,0-16.261,0-16.261Z" transform="translate(-206.831 -443.61)" opacity="0.1"/>
      <path id="Tracé_1118" data-name="Tracé 1118" d="M283.664,257.607h1.288s5.474,7.406,4.83,7.889,0,1.771,0,1.771l1.288,2.415s1.61,1.449,1.127,1.771a5.883,5.883,0,0,0-1.127,1.61s-3.22-.483-4.186,1.449l-2.088-2.636Z" transform="translate(-253.012 -235.54)" fill="#d0cde1"/>
      <rect id="Rectangle_190" data-name="Rectangle 190" width="4.782" height="8.911" transform="translate(26.687 26.275) rotate(-22.438)" fill="#2f2e41"/>
      <ellipse id="Ellipse_105" data-name="Ellipse 105" cx="0.956" cy="0.879" rx="0.956" ry="0.879" transform="translate(29.035 28.021) rotate(-22.438)" fill="#6c63ff"/>
      <path id="Tracé_1119" data-name="Tracé 1119" d="M171.312,308.139s-11.592,9.66-13.524,6.6,2.093-5.635,2.093-5.635a14.181,14.181,0,0,0,7.567-2.415l4.025-1.771s3.675-5.246,4.927-3.248S174.263,307.145,171.312,308.139Z" transform="translate(-143.88 -273.192)" fill="#9f616a"/>
      <path id="Tracé_1120" data-name="Tracé 1120" d="M130.522,289.426l-1.771.644v4.83l-.644.966a5.962,5.962,0,0,0,.644,2.415c.483.483,1.449.322,1.127,1.449a6.1,6.1,0,0,0-.161,2.254s2.9,3.7,3.059,3.22,2.415-6.44,2.737-6.44-3.22-9.338-3.22-9.338Z" transform="translate(-118.707 -263.011)" fill="#d0cde1"/>
      <path id="Tracé_1121" data-name="Tracé 1121" d="M279.121,450.263s1.665-1.61.832-1.691-3.73-1.691-4.213-.885S279.121,450.263,279.121,450.263Z" transform="translate(-246.134 -399.457)" fill="#2f2e41"/>
      <ellipse id="Ellipse_106" data-name="Ellipse 106" cx="2.5" cy="1.5" rx="2.5" ry="1.5" transform="translate(62.141 17.948)" fill="#57b894"/>
      <path id="Tracé_1122" data-name="Tracé 1122" d="M498.211,216.254a21.542,21.542,0,0,0-15.711,0v-6.421a27.193,27.193,0,0,1,15.711,0Z" transform="translate(-424.683 -193.292)" fill="none" stroke="#3f3d56" stroke-miterlimit="10" stroke-width="0.5"/>
      <path id="Tracé_1123" data-name="Tracé 1123" d="M509.84,219.865a15.548,15.548,0,0,0-11.34,0V215.23a19.626,19.626,0,0,1,11.34,0Z" transform="translate(-438.497 -198.23)" fill="none" stroke="#3f3d56" stroke-miterlimit="10" stroke-width="0.5"/>
      <ellipse id="Ellipse_107" data-name="Ellipse 107" cx="2.5" cy="1.5" rx="2.5" ry="1.5" transform="translate(63.141 16.948)" fill="none" stroke="#3f3d56" stroke-miterlimit="10" stroke-width="2"/>
      <ellipse id="Ellipse_108" data-name="Ellipse 108" cx="2.323" cy="1.23" rx="2.323" ry="1.23" transform="matrix(0.98, -0.2, 0.2, 0.98, 63.589, 25.849)" fill="#57b894"/>
      <path id="Tracé_1124" data-name="Tracé 1124" d="M507.489,266.619a21.542,21.542,0,0,0-15.394,3.142l-1.284-6.291a27.192,27.192,0,0,1,15.394-3.142Z" transform="translate(-431.858 -237.79)" fill="none" stroke="#3f3d56" stroke-miterlimit="10" stroke-width="0.5"/>
      <path id="Tracé_1125" data-name="Tracé 1125" d="M519.2,271.56a15.547,15.547,0,0,0-11.111,2.268l-.927-4.541a19.626,19.626,0,0,1,11.111-2.268Z" transform="translate(-445.973 -243.595)" fill="none" stroke="#3f3d56" stroke-miterlimit="10" stroke-width="0.5"/>
      <ellipse id="Ellipse_109" data-name="Ellipse 109" cx="2.323" cy="1.23" rx="2.323" ry="1.23" transform="matrix(0.98, -0.2, 0.2, 0.98, 64.282, 25.15)" fill="none" stroke="#3f3d56" stroke-miterlimit="10" stroke-width="2"/>
      <ellipse id="Ellipse_110" data-name="Ellipse 110" cx="1.23" cy="2.323" rx="1.23" ry="2.323" transform="translate(63.227 35.297) rotate(-86.019)" fill="#57b894"/>
      <path id="Tracé_1126" data-name="Tracé 1126" d="M503.386,329.434a21.542,21.542,0,0,0-15.674-1.091l.446-6.406a27.193,27.193,0,0,1,15.674,1.091Z" transform="translate(-429.183 -290.497)" fill="none" stroke="#3f3d56" stroke-miterlimit="10" stroke-width="0.5"/>
      <path id="Tracé_1127" data-name="Tracé 1127" d="M515.661,333a15.548,15.548,0,0,0-11.312-.787l.322-4.623a19.626,19.626,0,0,1,11.312.787Z" transform="translate(-443.547 -295.538)" fill="none" stroke="#3f3d56" stroke-miterlimit="10" stroke-width="0.5"/>
      <ellipse id="Ellipse_111" data-name="Ellipse 111" cx="1.23" cy="2.323" rx="1.23" ry="2.323" transform="translate(64.082 34.809) rotate(-86.019)" fill="none" stroke="#3f3d56" stroke-miterlimit="10" stroke-width="2"/>
      <path id="Tracé_1128" data-name="Tracé 1128" d="M356.652,263.895s-10.041-1.374-17.212,2.829" transform="translate(-301.168 -240.783)" fill="none" stroke="#3f3d56" stroke-miterlimit="10" stroke-width="2"/>
      <path id="Tracé_1129" data-name="Tracé 1129" d="M287.573,224.459l.261.083-.408,1.284,1.311.313-.064.266-1.6-.381Z" transform="translate(-249.059 -199.931)" fill="#3f3d56"/>
    </g>
  </g>
</svg>
